<?xml version="1.0" encoding="utf-8"?>
<!-- Generator: Adobe Illustrator 24.1.2, SVG Export Plug-In . SVG Version: 6.00 Build 0)  -->
<svg version="1.1" id="Layer_1" xmlns="http://www.w3.org/2000/svg" xmlns:xlink="http://www.w3.org/1999/xlink" x="0px" y="0px"
	 viewBox="0 0 920 974.7" style="enable-background:new 0 0 920 974.7;" xml:space="preserve">
<style type="text/css">
	.st0{opacity:0.78;}
	.st1{fill-rule:evenodd;clip-rule:evenodd;fill:#8FC7C6;stroke:#282828;stroke-width:0.25;stroke-miterlimit:10;}
	
		.st2{opacity:0.4;fill-rule:evenodd;clip-rule:evenodd;fill:#8FC7C6;stroke:#282828;stroke-width:0.25;stroke-miterlimit:10;enable-background:new    ;}
	
		.st3{opacity:0.8;fill-rule:evenodd;clip-rule:evenodd;fill:#8FC7C6;stroke:#282828;stroke-width:0.25;stroke-miterlimit:10;enable-background:new    ;}
	
		.st4{opacity:0.2;fill-rule:evenodd;clip-rule:evenodd;fill:#8FC7C6;stroke:#282828;stroke-width:0.25;stroke-miterlimit:10;enable-background:new    ;}
	
		.st5{opacity:0.5;fill-rule:evenodd;clip-rule:evenodd;fill:#8FC7C6;stroke:#282828;stroke-width:0.25;stroke-miterlimit:10;enable-background:new    ;}
	
		.st6{opacity:0.3;fill-rule:evenodd;clip-rule:evenodd;fill:#8FC7C6;stroke:#282828;stroke-width:0.25;stroke-miterlimit:10;enable-background:new    ;}
	
		.st7{opacity:0.89;fill-rule:evenodd;clip-rule:evenodd;fill:#8FC7C6;stroke:#282828;stroke-width:0.25;stroke-miterlimit:10;enable-background:new    ;}
	
		.st8{opacity:0.7;fill-rule:evenodd;clip-rule:evenodd;fill:#8FC7C6;stroke:#282828;stroke-width:0.25;stroke-miterlimit:10;enable-background:new    ;}
	.st9{fill:#AD2833;}
</style>
<g class="st0">
	<polygon class="st1" points="561.7,367.4 561.5,346.9 561.4,333.7 562.1,332.8 562.8,332.5 563.2,330.9 564.7,329.4 566.2,329.5 
		568.2,330.5 573.1,330.9 574.8,329.6 575.8,329 576.8,329.8 576,333.5 577.2,337.1 578.6,338 580.1,338.2 582.1,337.4 583.6,339.1 
		583.7,339.7 583,340.4 583.6,341.3 582.4,342.4 582.4,343 582.2,367.5 	"/>
	<polygon class="st1" points="582.2,367.5 582.4,343 583.4,344.1 585.5,344.6 587.4,345.7 588.2,345.5 591.1,343.7 592.7,341.3 
		594,340.9 595.2,339.1 596.7,338.1 600.1,339.2 600.4,342.1 601.2,343 602.2,342.9 603.9,342.2 605.8,342.7 605.8,369.5 585,369.3 
		582.3,369.2 	"/>
	<polygon class="st2" points="657.7,371.1 636.3,371.6 636.3,370.2 631.3,370 631.3,340.4 631.7,339.6 633.1,340.3 633.8,341.7 
		634,344 634.9,345.3 635.7,345.5 637.1,344.7 637.9,344.8 640.2,347 641.9,346.9 642.8,346.1 643.5,342.9 644,342.4 647.9,343.3 
		646.5,345.2 647.1,346.4 649,347.4 651.4,347.9 651.8,349.5 652.5,350 655.7,349.5 658,352.2 	"/>
	<polygon class="st1" points="631.3,370 610.4,369.5 605.8,369.5 605.8,342.7 606.5,343 606.8,343.7 607,346.7 609,347.6 611.2,347 
		612.2,345.3 613.5,344.8 613.5,343.4 615.5,344.7 615.9,345.5 616.5,344.6 616.8,343.4 618.4,342.8 619.5,343.2 620.6,345.2 
		620.4,346.1 619.2,346.7 618.5,347.7 619.4,351.5 621.2,352.8 622.9,353 624.1,352.7 624.4,352 624.2,348.4 626,347.5 624.7,346.6 
		624.5,345.9 625,345.6 627.1,346.5 628.1,345.9 628.9,344.5 628.9,340.6 629.8,341 631.3,340.4 	"/>
	<polygon class="st1" points="708.3,372.4 706.1,371.8 703.6,370 693.6,366.6 690.4,366.8 688.5,366.1 686.4,366.1 682.4,367.6 
		682.7,346.5 683.6,346.4 685,345.1 686.3,345.9 686.5,344.3 686.7,343.5 687.3,342.9 689.6,343.4 692.7,342 693.6,342 693.6,341 
		694,340.6 696,341.1 696.8,342.9 698,342.7 697.7,343.2 696.7,343.5 696.9,343.9 698.4,343.2 699,344.1 700.5,343.9 701.2,345.1 
		707,344.8 706.7,343.3 708.3,343.9 	"/>
	<polygon class="st3" points="657.7,371.1 658,352.2 659,354.1 660.5,354.4 661.3,353.6 661.8,350.9 662.3,350.3 665.4,351.2 
		666.6,351.1 667.5,350.5 667.8,348.9 668.8,347.6 668.1,347.4 666.9,348.3 666.8,347.9 667.5,347.1 668.4,346.8 670.3,347.1 
		671.1,346.3 673.2,346.5 674.2,345.6 674.8,346.3 675.3,345.6 675.3,344.6 675.7,344.5 676.5,345.5 677.4,345.1 678.1,343.7 
		678.6,343.6 682.7,346.5 682.4,367.6 682.3,370.8 661.9,374 657.8,374.8 	"/>
	<polygon class="st1" points="462.6,372 462.3,346.5 484.2,346.5 487,346.4 487.1,347 487.6,371.7 	"/>
	<polygon class="st4" points="462.6,372 451,371.6 437.9,371.9 437.8,346.7 462.3,346.5 	"/>
	<polygon class="st1" points="413.5,372 413.5,346.8 437.8,346.7 437.9,371.9 	"/>
	<polygon class="st5" points="389.5,372 389.1,346.9 413.5,346.8 413.5,372 	"/>
	<polygon class="st1" points="561.6,371.5 536.4,371.5 536.4,346.9 561.5,346.9 561.7,367.4 	"/>
	<polygon class="st1" points="389.5,372 365.2,372.4 364.4,347.1 389.1,346.9 	"/>
	<polygon class="st1" points="487.6,371.7 487.1,347 494.7,346.9 495.4,348 496.1,347.6 497.9,348 498.7,347.6 498.8,348.9 
		499.5,348.3 500,348.8 500.4,347.9 500.7,348.9 501.1,348.9 501.5,347.4 502.8,348.1 503.5,347.8 505.8,348.9 506.3,349.6 
		506.9,348.7 507.4,349.3 508.4,349 508.5,349.7 509.5,349.7 509.6,350.4 510.9,350.6 511.4,352 512.1,352.7 512.1,371.5 	"/>
	<polygon class="st2" points="536.4,371.5 512.1,371.5 512.1,352.7 512,347.2 536.4,346.9 	"/>
	<polygon class="st1" points="365,372.4 343.8,372.7 344,362 344.3,347.3 364.4,347.1 365.2,372.4 	"/>
	<polygon class="st1" points="682.2,381.2 682.3,370.8 682.4,367.6 686.4,366.1 688.5,366.1 690.4,366.8 693.6,366.6 703.6,370 
		706.1,371.8 708.3,372.4 708.3,372.4 707.7,373.1 706.2,373.6 703.1,373 700.8,374 698.5,374.4 694.5,373.9 691.7,376.3 
		690.7,376.8 689.1,376.6 687.1,377.4 685.2,380 	"/>
	<polygon class="st1" points="561.5,393.5 561.6,371.5 561.7,367.4 582.2,367.5 582.3,369.2 585,369.3 585.2,393.8 578.8,393.8 	"/>
	<polygon class="st3" points="585.2,393.8 585,369.3 605.8,369.5 610.4,369.5 610,394.1 602.9,394 	"/>
	<polygon class="st4" points="635.9,394.2 626.9,394.2 627,394.5 610,394.1 610.4,369.5 631.3,370 636.3,370.2 636.3,371.6 	"/>
	<polygon class="st1" points="681.8,394.7 678.4,394.7 676.7,399.8 677,401 678.2,402.3 671.7,402.5 661.6,402.2 661.8,394.7 
		661.9,374 682.3,370.8 682.2,381.2 	"/>
	<polygon class="st1" points="635.9,394.2 636.3,371.6 657.7,371.1 657.8,374.8 661.9,374 661.8,394.7 651,394.5 	"/>
	<polygon class="st5" points="487.6,396.2 487.6,371.7 512.1,371.5 512.2,396.1 505.6,396.2 	"/>
	<polygon class="st1" points="529.6,396.4 512.2,396.1 512.1,371.5 536.4,371.5 536.4,396.4 	"/>
	<polygon class="st1" points="554.6,396.6 536.4,396.4 536.4,371.5 561.6,371.5 561.5,393.5 561.5,396.5 	"/>
	<polygon class="st2" points="438,396.4 437.9,371.9 451,371.6 462.6,372 462.5,396.3 456,396.3 	"/>
	<polygon class="st1" points="462.5,396.3 462.6,372 487.6,371.7 487.6,396.2 480.1,396.2 	"/>
	<polygon class="st3" points="431.8,396.6 413.6,396.4 413.5,372 437.9,371.9 438,396.4 	"/>
	<polygon class="st1" points="407.7,396.4 389.5,396.4 389.5,372 413.5,372 413.6,396.4 	"/>
	<polygon class="st1" points="383.7,396.5 365.2,396.6 365,372.4 365.2,372.4 389.5,372 389.5,396.4 	"/>
	<polygon class="st5" points="365.2,396.6 343.5,396.5 343.8,372.7 365,372.4 	"/>
	<polygon class="st1" points="707.9,395.7 691.4,395.6 691.3,394.8 681.8,394.7 682.2,381.2 685.2,380 687.1,377.4 689.1,376.6 
		690.7,376.8 691.7,376.3 694.5,373.9 698.5,374.4 700.8,374 703.1,373 706.2,373.6 707.7,373.1 708.3,372.4 	"/>
	<polygon class="st6" points="694.7,411.2 693.9,410.1 693,409.6 691.4,395.6 707.9,395.7 714.6,395.8 715.5,393.1 715.5,398.7 
		715.2,418 713.5,419.4 712.4,418.3 709.2,417.9 708.6,417 707.2,416.3 704.1,416.4 698.7,415.3 697.8,413.6 	"/>
	<polygon class="st1" points="554.2,420.7 554.6,396.6 561.5,396.5 561.5,393.5 578.8,393.8 578.4,418.6 578.3,420.8 559.1,420.7 	
		"/>
	<polygon class="st1" points="578.4,418.6 578.8,393.8 585.2,393.8 602.9,394 602.6,418.6 599.3,418.8 	"/>
	<polygon class="st4" points="626.9,418.7 624.1,418.7 602.6,418.6 602.9,394 610,394.1 627,394.5 	"/>
	<polygon class="st7" points="626.9,418.7 627,394.5 626.9,394.2 635.9,394.2 651,394.5 651,403.9 651,418.9 650.2,419 	"/>
	<polygon class="st1" points="661.6,402.2 661.6,403.7 651,403.9 651,394.5 661.8,394.7 	"/>
	<polygon class="st1" points="693,409.6 691.2,409.5 688.9,407.9 686.7,407.2 685.7,406.2 682.1,406.3 679.5,404.6 678.2,402.3 
		677,401 676.7,399.8 678.4,394.7 681.8,394.7 691.3,394.8 691.4,395.6 	"/>
	<polygon class="st3" points="529.5,420.6 528.8,420.6 505.1,420.9 505.6,396.2 512.2,396.1 529.6,396.4 	"/>
	<polygon class="st1" points="504.6,420.9 504.5,420.6 480,420.8 480.1,396.2 487.6,396.2 505.6,396.2 505.1,420.9 	"/>
	<polygon class="st4" points="480,420.8 455.8,420.7 456,396.3 462.5,396.3 480.1,396.2 	"/>
	<polygon class="st8" points="455.8,420.7 431.6,420.6 431.8,396.6 438,396.4 456,396.3 	"/>
	<polygon class="st6" points="431.6,420.6 407.5,420.6 407.7,396.4 413.6,396.4 431.8,396.6 	"/>
	<polygon class="st7" points="407.5,420.6 383.2,420.6 383.7,396.5 389.5,396.4 407.7,396.4 	"/>
	<polygon class="st3" points="554.2,420.7 529.5,420.6 529.6,396.4 536.4,396.4 554.6,396.6 	"/>
	<polygon class="st1" points="343,421 343.5,396.5 365.2,396.6 383.7,396.5 383.2,420.6 	"/>
	<polygon class="st1" points="654.3,429.5 654.7,426.8 654,425.7 652.2,424.1 651.7,423 651.6,419.9 650.7,419.7 650.2,419 
		651,418.9 651,403.9 661.6,403.7 661.6,402.2 671.7,402.5 672,429.7 	"/>
	<polygon class="st1" points="672,429.7 671.7,402.5 678.2,402.3 679.5,404.6 682.1,406.3 685.7,406.2 686.7,407.2 688.9,407.9 
		691.2,409.5 693,409.6 693.9,410.1 694.7,411.2 694.8,422.9 696.3,424.9 698.5,426.5 699.6,428.2 701.4,429.8 	"/>
	<polygon class="st1" points="723,441.8 700.7,442 700.1,441.3 700.7,438.6 699.9,436.8 701.3,434 701.4,429.8 699.6,428.2 
		698.5,426.5 696.3,424.9 694.8,422.9 694.7,411.2 697.8,413.6 698.7,415.3 704.1,416.4 707.2,416.3 708.6,417 709.2,417.9 
		712.4,418.3 713.5,419.4 715.2,418 716.2,419.2 718.4,418.8 719.1,419.5 721.1,419.6 721.4,419.1 722.2,420.4 722.9,419.9 
		723,429.2 	"/>
	<polygon class="st1" points="599.4,438.1 599.4,431.8 599.3,418.8 602.6,418.6 624.1,418.7 624.3,434.4 606.5,439.2 606.4,439.6 
		604.7,440.3 604.7,441.5 603.7,441.7 601.9,441.2 601.5,439.4 600.3,439.5 600.9,438.5 600.7,438.2 	"/>
	<polygon class="st1" points="583.9,436.4 578.3,420.8 578.4,418.6 599.3,418.8 599.4,431.8 591.5,431.8 	"/>
	<polygon class="st7" points="624.3,434.4 624.1,418.7 626.9,418.7 650.2,419 650.7,419.7 651.6,419.9 651.7,423 652.2,424.1 
		654,425.7 654.7,426.8 654.3,429.5 655.1,430.8 656,430.8 656.7,431.4 633.1,445 631.2,446 	"/>
	<polygon class="st8" points="504.6,445.1 500.7,445 479.7,445.1 480,420.8 504.5,420.6 504.6,420.9 	"/>
	<polygon class="st1" points="427.4,444.7 407.3,444.7 407.5,420.6 431.6,420.6 431.9,444.6 	"/>
	<polygon class="st4" points="455.5,444.9 448.7,445 431.9,444.6 431.6,420.6 455.8,420.7 	"/>
	<polygon class="st1" points="528.4,445.1 528.8,420.6 529.5,420.6 554.2,420.7 559.1,420.7 559.2,432.9 555.2,435.3 546.8,440.1 
		545.6,440.3 545.2,440.9 537.7,445.2 	"/>
	<polygon class="st1" points="525,445.1 504.6,445.1 504.6,420.9 505.1,420.9 528.8,420.6 528.4,445.1 	"/>
	<polygon class="st2" points="403.5,444.8 382.9,444.9 383.2,420.6 407.5,420.6 407.3,444.7 	"/>
	<polygon class="st3" points="343,421 383.2,420.6 382.9,444.9 379.2,445 355.5,445 343.2,445 	"/>
	<polygon class="st6" points="479.7,445.1 476,445.1 455.5,444.9 455.8,420.7 480,420.8 	"/>
	<polygon class="st3" points="581,448.5 571.6,454.3 569.4,450.7 565.9,452.8 555.2,435.3 559.2,432.9 559.1,420.7 578.3,420.8 
		583.9,436.4 583.9,436.9 587.6,444.5 	"/>
	<polygon class="st6" points="702.2,445.1 673.1,448.9 672.5,447.9 672.7,446.4 672.5,444.9 670.7,444.8 670.1,444.1 670.5,440.9 
		670,440.4 669.1,440.9 668.6,440.7 667.5,439.8 668.5,437.5 666.6,438.1 666.5,437.2 665.8,437.4 663.9,435.5 663.1,435.8 662,435 
		662,433.5 661.5,432.8 660,432.8 657.3,431.2 656.7,431.4 656,430.8 655.1,430.8 654.3,429.5 672,429.7 701.4,429.8 701.3,434 
		699.9,436.8 700.7,438.6 700.1,441.3 700.7,442 700.8,443.3 	"/>
	<polygon class="st1" points="651.8,460.5 641.4,459.5 633.1,445 656.7,431.4 657.3,431.2 660,432.8 661.5,432.8 662,433.5 662,435 
		663.1,435.8 663.9,435.5 665.8,437.4 666.5,437.2 666.6,438.1 668.5,437.5 667.5,439.8 668.6,440.7 669.1,440.9 670,440.4 
		670.5,440.9 670.1,444.1 670.7,444.8 672.5,444.9 672.7,446.4 672.5,447.9 673.1,448.9 	"/>
	<polygon class="st1" points="587.6,444.5 583.9,436.9 583.9,436.4 591.5,431.8 599.4,431.8 599.4,438.1 598.8,437.8 	"/>
	<polygon class="st1" points="615.3,463.4 613.6,462.6 613.3,461.5 615,459.5 615.1,458.6 612.7,458.4 612.1,457.6 610.6,456.9 
		610.8,455.5 608.3,453.4 608.7,452.5 610.2,451 608.8,449.8 607.8,448.4 606.1,448.7 605.4,447.9 605,446.8 605.8,444.3 
		605.2,442.4 606.8,440.8 606.4,439.6 606.5,439.2 624.3,434.4 631.2,446 633.1,445 641.4,459.5 631.5,465.2 626.5,457.2 	"/>
	<polygon class="st4" points="559.5,466.9 557.9,464.9 549.6,466.1 537.7,445.2 545.2,440.9 545.6,440.3 546.8,440.1 555.2,435.3 
		565.9,452.8 569.4,450.7 571.6,454.3 573.8,458.4 	"/>
	<polygon class="st4" points="592.6,467.5 581,448.5 587.6,444.5 598.8,437.8 599.4,438.1 600.7,438.2 600.9,438.5 600.3,439.5 
		601.5,439.4 601.9,441.2 603.7,441.7 604.7,441.5 604.7,440.3 606.4,439.6 606.8,440.8 605.2,442.4 605.8,444.3 605,446.8 
		605.4,447.9 606.1,448.7 607.8,448.4 608.8,449.8 610.2,451 608.7,452.5 608.3,453.4 610.8,455.5 610.6,456.9 612.1,457.6 
		612.7,458.4 615.1,458.6 615,459.5 613.3,461.5 613.6,462.6 615.3,463.4 600,472.3 595.8,465.8 	"/>
	<polygon class="st1" points="728.5,475.7 722.5,480.8 720.5,480.3 719.8,479.2 717.7,478.6 717.5,478.1 717.9,476.8 715.9,474.5 
		715.8,473.5 714.2,472.7 712.3,473.2 711,473.1 710.1,472.4 709.9,471.9 710,470.6 709.1,469.8 709,467.5 707.1,465.4 706.5,465.5 
		706.6,464.6 705.6,464.7 705.5,463.6 704.3,463.1 703.9,460.9 703.1,459.2 701.8,458.4 702,457 701.8,455.6 702.5,453.7 
		701.3,452.4 701.3,450.6 702.5,449 702.1,448.3 702.5,447.3 702.2,445.1 700.8,443.3 700.7,442 723,441.8 723.2,451 723.5,452.1 
		723,453.4 723.1,458 723.5,461.5 725.5,462.8 725.4,463.2 724.5,463.5 724.2,464.2 725.1,468.9 726.5,473.1 726.7,473.4 
		727.5,473.2 727.6,474.8 	"/>
	<polygon class="st1" points="427.3,468.9 427.4,444.7 431.9,444.6 448.7,445 448.2,466.2 446.5,466.3 446.3,473.6 427.2,473.8 	"/>
	<polygon class="st1" points="427.3,468.9 403.6,469 403.5,444.8 407.3,444.7 427.4,444.7 	"/>
	<polygon class="st1" points="403.6,469 379.2,469 379.2,445 382.9,444.9 403.5,444.8 	"/>
	<polygon class="st1" points="476.1,466.5 448.2,466.2 448.7,445 455.5,444.9 476,445.1 	"/>
	<polygon class="st1" points="355.2,469 329.6,468.7 330.2,449.5 343.1,449.6 343.2,445 355.5,445 	"/>
	<polygon class="st6" points="355.2,469 355.5,445 379.2,445 379.2,469 378.6,468.8 356.8,469 	"/>
	<polygon class="st1" points="481.7,472.7 476.2,472.6 476.1,466.5 476,445.1 479.7,445.1 500.7,445 500.5,473.1 500.1,473.1 	"/>
	<polygon class="st1" points="524.5,479 524.2,479.1 523.3,478.2 522.5,478.5 521,480.1 520.5,480.1 520.6,481.1 519.8,481 
		519.7,481.8 519.3,482.2 517.8,481.6 517.9,480.5 516.9,480.8 516.1,480.3 515.2,480.4 514.8,479.8 515,479.1 513.3,478.6 
		512.8,479.3 513.2,480.1 512.4,480.4 512,481.4 510.7,480.4 510.2,481.4 509.8,481 508.8,478.5 507.2,477.9 505.9,477.9 
		504.7,477.4 504.5,477.8 505.3,478.7 504.5,479 503.4,477.6 502.5,477.4 502.6,476.4 503.2,476.2 503.4,475.5 503,475.2 
		501.7,475.5 501.9,474.9 502.6,474.5 501.7,474.4 501.2,473.3 500.6,474 500.1,473.1 500.5,473.1 500.7,445 504.6,445.1 525,445.1 
			"/>
	<polygon class="st1" points="524.5,479 525,445.1 528.4,445.1 537.7,445.2 549.6,466.1 545.4,466.9 544.3,471.3 534.8,478.1 
		533.3,479 532.5,478.1 531.8,478 531.3,479.1 530.8,478.9 530.5,479.5 529.7,479.7 529.7,480.1 528.9,479.1 528.4,479.7 526.3,479 
		525.7,479.5 525.2,478.7 	"/>
	<polygon class="st1" points="687.9,476.5 686.8,475.2 687.1,474.3 688.6,473.8 688.2,472.7 689,471.8 689,470.1 688.3,469.1 
		687.6,469 686.9,469.2 686.8,471.4 686.2,471.5 685.3,470.5 685.2,468.6 685.7,466.8 685.2,466.6 684.8,467.4 683.7,466.5 
		681.7,466.5 681.6,464.7 681.1,464.1 681.6,463.5 680.5,463.1 680.5,462.5 679.1,462.5 676.6,461.2 676.6,459.5 676,458.1 
		677.1,456.5 676.4,456.3 675.8,456.7 674.4,456.3 674.2,455.8 675.4,454.6 675.5,454 674.7,452.3 673,452.2 672.9,451.7 
		673.4,451.5 672.9,450.5 673.1,448.9 702.2,445.1 702.5,447.3 702.1,448.3 702.5,449 701.3,450.6 701.3,452.4 702.5,453.7 
		701.8,455.6 702,457 701.8,458.4 703.1,459.2 703.9,460.9 704.3,463.1 705.5,463.6 705.6,464.7 706.6,464.6 706.5,465.5 
		707.1,465.4 709,467.5 709.1,469.8 710,470.6 709.9,471.9 691.6,475 691.6,475.8 	"/>
	<polygon class="st1" points="572.8,479.4 569,481.6 559.5,466.9 573.8,458.4 571.6,454.3 581,448.5 592.6,467.5 	"/>
	<polygon class="st1" points="664.4,481.8 651.8,460.5 673.1,448.9 672.9,450.5 673.4,451.5 672.9,451.7 673,452.2 674.7,452.3 
		675.5,454 675.4,454.6 674.2,455.8 674.4,456.3 675.8,456.7 676.4,456.3 677.1,456.5 676,458.1 676.6,459.5 676.6,461.2 
		679.1,462.5 680.5,462.5 680.5,463.1 681.6,463.5 681.1,464.1 681.6,464.7 681.7,466.5 683.7,466.5 684.8,467.4 685.2,466.6 
		685.7,466.8 685.2,468.6 685.3,470.5 	"/>
	<polygon class="st5" points="608.5,486.8 600,472.3 615.3,463.4 626.5,457.2 631.5,465.2 637.7,475.9 615.4,489.4 612.3,491.1 	"/>
	<polygon class="st1" points="660.4,484.8 647.3,492.3 637.7,475.9 631.5,465.2 641.4,459.5 651.8,460.5 664.4,481.8 660.3,484.2 	
		"/>
	<polygon class="st1" points="554.6,492 553.9,490.5 552.9,490.7 551.6,489.6 553,489.2 553.3,486.9 551.8,487.7 551.4,487.3 
		551.8,487.1 551.5,486.7 550.7,487.5 550.5,487 550.9,486.7 550.7,486.1 551.1,485.3 550.5,485.1 550.3,484.6 548,486.1 
		547.7,485.6 548.4,483.2 548,482.5 547,482.4 547.1,481.8 546.7,481.2 545.7,482.4 545.6,483.6 544.5,483.9 544.5,482.5 543,482.5 
		542.7,482 541.3,482 539.9,480.6 537.6,480.9 537.4,480.2 536.7,479.8 535.6,480.6 535.6,479.9 534.6,479.2 534.8,478.1 
		544.3,471.3 545.4,466.9 549.6,466.1 557.9,464.9 559.5,466.9 569,481.6 569,482 	"/>
	<polygon class="st4" points="585.6,500.9 572.8,479.4 592.6,467.5 595.8,465.8 600,472.3 608.5,486.8 	"/>
	<polygon class="st1" points="481.7,500.1 454.8,500.2 454.5,475.6 427.2,475.9 427.2,473.8 446.3,473.6 446.5,466.3 448.2,466.2 
		476.1,466.5 476.2,472.6 481.7,472.7 	"/>
	<polygon class="st1" points="345,484.1 343.6,483.5 342.2,484.7 336.9,484.2 334.1,483 333.4,481.1 332.7,481.6 330.2,481.6 
		328,481.5 327.2,480.6 326.1,481 325.5,480.6 324.8,480.9 324,480.6 323,479.7 323,477.9 322.1,476.2 322.7,475.5 321.6,472.7 
		322.3,471.7 321.8,471 322,470.2 320.9,469.9 320.5,469.3 319.9,469.1 319.2,469.6 317.4,468.8 329.6,468.7 355.2,469 356.8,469 
		356.7,488.6 354,490.3 353.2,489.1 352,488.5 351.5,487.3 349.1,485.9 346.2,485.2 	"/>
	<polygon class="st1" points="378.6,500.2 374.6,500.2 372.9,498.3 372.9,495.2 372.4,493.6 369.1,490.9 366.9,490.3 365.1,490.4 
		364.6,489.2 363.3,488.9 363.2,488.2 362.1,487.7 361.9,487 360.9,487.1 359,488.4 358.7,489.3 358.2,489.5 357.8,489.6 
		357.4,488.8 356.7,488.6 356.8,469 378.6,468.8 	"/>
	<polygon class="st1" points="403.6,500.1 378.6,500.2 378.6,468.8 379.2,469 403.6,469 	"/>
	<polygon class="st6" points="403.6,500.1 403.6,469 427.3,468.9 427.2,473.8 427.2,475.9 427,500.2 	"/>
	<polygon class="st2" points="686.4,499.3 676.5,499.7 674.8,500.7 672.5,501.2 667.1,505 664,506 664,505.2 663.2,504 663.6,501.9 
		662.4,500.2 662.3,498.4 661.8,497.9 660.1,490.4 660.8,489.7 660.3,489 660.3,487.4 660.7,486.4 660.4,484.8 660.3,484.2 
		664.4,481.8 685.3,470.5 686.2,471.5 686.8,471.4 686.9,469.2 687.6,469 688.3,469.1 689,470.1 689,471.8 688.2,472.7 688.6,473.8 
		687.1,474.3 686.8,475.2 687.9,476.5 687.5,477.6 688.4,478.3 688.3,478.7 687.7,478.7 687.5,479.3 687.8,479.6 688.2,479.2 
		688.7,479.4 689.7,483.6 690.1,484.4 691.3,484.9 690.6,485.7 691.5,486 691.7,486.9 690.8,487.3 690.7,488.7 689.5,488.5 
		688.5,489.9 688.4,491.7 687.6,492.8 687.4,494 688,496.1 687,496.4 685.8,497.6 	"/>
	<polygon class="st3" points="701.8,501.7 693,508.6 692.2,508.4 690.7,505.5 691.4,504.1 691.3,503.2 692.1,502.7 693,502.8 
		692.8,501.9 692,501.6 691.7,500.4 690.6,500.7 688.3,500.3 686.8,499.9 686.4,499.3 685.8,497.6 687,496.4 688,496.1 687.4,494 
		687.6,492.8 688.4,491.7 688.5,489.9 689.5,488.5 690.7,488.7 690.8,487.3 691.7,486.9 691.5,486 690.6,485.7 691.3,484.9 
		690.1,484.4 689.7,483.6 688.7,479.4 688.2,479.2 687.8,479.6 687.5,479.3 687.7,478.7 688.3,478.7 688.4,478.3 687.5,477.6 
		687.9,476.5 691.6,475.8 691.6,475 709.9,471.9 710.1,472.4 711,473.1 712.3,473.2 714.2,472.7 715.8,473.5 715.9,474.5 
		717.9,476.8 717.5,478.1 717.7,478.6 719.8,479.2 720.5,480.3 722.5,480.8 722.7,481.5 724.4,483.3 724.3,483.8 	"/>
	<polygon class="st3" points="505.9,500.1 481.7,500.1 481.7,472.7 500.1,473.1 500.6,474 501.2,473.3 501.7,474.4 502.6,474.5 
		501.9,474.9 501.7,475.5 503,475.2 503.4,475.5 503.2,476.2 502.6,476.4 502.5,477.4 503.4,477.6 504.5,479 505.3,478.7 
		504.5,477.8 504.7,477.4 505.9,477.9 	"/>
	<polygon class="st5" points="454.8,500.2 441.8,500.3 427,500.2 427.2,475.9 454.5,475.6 	"/>
	<polygon class="st1" points="624.6,505.1 615.4,489.4 637.7,475.9 647.3,492.3 636.4,498.8 636.1,498.4 	"/>
	<polygon class="st2" points="511.6,508.2 505.9,508.1 505.9,500.1 505.9,477.9 507.2,477.9 508.8,478.5 509.8,481 510.2,481.4 
		510.7,480.4 512,481.4 512.4,480.4 513.2,480.1 512.8,479.3 513.3,478.6 515,479.1 514.8,479.8 515.2,480.4 516.1,480.3 
		516.9,480.8 517.9,480.5 517.8,481.6 519.3,482.2 519.7,481.8 519.8,481 520.6,481.1 520.5,480.1 521,480.1 522.5,478.5 
		523.3,478.2 524.2,479.1 524.5,479 525.2,478.7 525.7,479.5 526.3,479 528.4,479.7 528.9,479.1 529.7,480.1 530,508.2 	"/>
	<polygon class="st6" points="536.1,509.2 529.9,509.1 530,508.2 529.7,480.1 529.7,479.7 530.5,479.5 530.8,478.9 531.3,479.1 
		531.8,478 532.5,478.1 533.3,479 534.8,478.1 534.6,479.2 535.6,479.9 535.6,480.6 536.7,479.8 537.4,480.2 537.6,480.9 
		539.9,480.6 541.3,482 542.7,482 543,482.5 544.5,482.5 544.5,483.9 545.6,483.6 545.7,482.4 546.7,481.2 547.1,481.8 547,482.4 
		548,482.5 548.4,483.2 547.7,485.6 548,486.1 550.3,484.6 550.5,485.1 551.1,485.3 550.7,486.1 550.9,486.7 550.5,487 550.7,487.5 
		551.5,486.7 551.8,487.1 551.4,487.3 551.8,487.7 553.3,486.9 553,489.2 551.6,489.6 552.9,490.7 553.9,490.5 554.6,492 554.5,494 
		555.9,494.4 556,495.3 557.2,495.7 557.3,496.1 556.3,496.6 556.3,497.6 555.5,497.9 555.5,498.1 556.5,499.3 556.9,499.4 
		558.1,498.5 558.9,498.5 559,498.9 559.7,499 559.1,499.6 559.8,500.5 558.8,500.8 558.7,501.6 560.7,503.2 559.7,504 560.4,505.8 
		560.1,507.5 561.8,508.2 561.8,508.7 560.4,509.3 	"/>
	<polygon class="st1" points="585.4,502.6 560.7,503.2 558.7,501.6 558.8,500.8 559.8,500.5 559.1,499.6 559.7,499 559,498.9 
		558.9,498.5 558.1,498.5 556.9,499.4 556.5,499.3 555.5,498.1 555.5,497.9 556.3,497.6 556.3,496.6 557.3,496.1 557.2,495.7 
		556,495.3 555.9,494.4 554.5,494 554.6,492 569,482 569,481.6 572.8,479.4 585.6,500.9 	"/>
	<polygon class="st1" points="713.2,514.3 711.3,513.3 711.1,511 710.3,510.2 707.9,510.5 707.5,511.8 707,512 706.2,511.7 
		705.8,512.3 704.9,512.6 703.4,512.1 703.6,511 704.1,510.8 702.8,510 702.7,508.7 701.8,508 701.8,501.7 724.3,483.8 724.6,486 
		726.8,486.4 727.5,488.5 728.2,488.9 727.6,490.7 728.8,491.4 729.8,492.9 730.2,494.7 730.7,495.3 730.4,496.8 	"/>
	<polygon class="st1" points="404.3,523.4 386.1,523.5 386,526.7 375.3,526.7 375.5,544.1 365.9,544.5 365.7,556.3 325,523.2 
		318.2,517.5 345,484.1 346.2,485.2 349.1,485.9 351.5,487.3 352,488.5 353.2,489.1 354,490.3 356.7,488.6 357.4,488.8 357.8,489.6 
		358.2,489.5 358.7,489.3 359,488.4 360.9,487.1 361.9,487 362.1,487.7 363.2,488.2 363.3,488.9 364.6,489.2 365.1,490.4 
		366.9,490.3 369.1,490.9 372.4,493.6 372.9,495.2 372.9,498.3 374.6,500.2 377.7,501.4 378,502.1 378.7,502.2 379,502.8 
		381.2,502.6 383.4,503.3 384,504.8 384.5,504.2 385,504.7 387.2,504.9 387.7,505.4 389.2,505.5 390.2,504.9 394.2,506 395.6,507.3 
		396.3,507.5 397.7,509.1 399,509.5 398.8,511.6 400,512.4 400.6,513.8 401.2,518 402,519.4 402.2,521.2 	"/>
	<polygon class="st3" points="645.9,519.4 645.8,518.6 646.5,517.8 646.3,517.2 645.9,516.6 644.9,516.5 645.2,514.8 642.9,512.7 
		642.8,509.7 641.5,510 640,508.7 639.2,506.6 640,504.9 639.2,504.6 639,502.6 638.2,501.6 637.2,501.4 636.4,498.8 647.3,492.3 
		660.4,484.8 660.7,486.4 660.3,487.4 660.3,489 660.8,489.7 660.1,490.4 661.8,497.9 662.3,498.4 662.4,500.2 663.6,501.9 
		663.2,504 664,505.2 664,506 658.5,509.7 656,513.3 654,518.6 648.5,521.2 647.5,519.9 	"/>
	<polygon class="st1" points="589.1,509.5 585.4,502.6 585.6,500.9 608.5,486.8 612.3,491.1 615.4,489.4 624.6,505.1 615.9,510.3 
		613.4,518.1 598.2,511.6 	"/>
	<polygon class="st1" points="629.8,528.7 621,533.9 615.4,518.9 613.4,518.1 615.9,510.3 624.6,505.1 636.1,498.4 636.4,498.8 
		637.2,501.4 638.2,501.6 639,502.6 639.2,504.6 640,504.9 639.2,506.6 640,508.7 641.5,510 642.8,509.7 642.9,512.7 645.2,514.8 
		644.9,516.5 645.9,516.6 646.3,517.2 646.5,517.8 645.8,518.6 645.9,519.4 	"/>
	<polygon class="st1" points="681.9,512.2 679.7,512.2 673.8,513.3 667.3,514.1 665.8,510.3 665.8,508 664.3,507 664,506 667.1,505 
		672.5,501.2 674.8,500.7 676.5,499.7 686.4,499.3 686.8,499.9 688.3,500.3 690.6,500.7 691.7,500.4 692,501.6 692.8,501.9 
		693,502.8 692.1,502.7 691.3,503.2 691.4,504.1 690.7,505.5 692.2,508.4 693,508.6 693.3,509.5 692.4,510.2 688,509.7 684.6,511.8 
			"/>
	<polygon class="st2" points="442,521.5 441.8,500.3 454.8,500.2 481.7,500.1 481.5,520.8 481.6,521.7 	"/>
	<polygon class="st1" points="511.4,520.5 481.5,520.8 481.7,500.1 505.9,500.1 505.9,508.1 511.6,508.2 	"/>
	<polygon class="st8" points="442.2,544 404.6,544 405.3,542.3 406.8,540.9 409.3,540.6 409.2,540.2 407.4,538.9 407.4,537.7 
		405.4,536.7 406.4,535.3 405.8,534.4 406.2,534.1 407.3,534.6 407.7,533 408.5,532.2 408.3,531.2 409.4,530.1 409.8,528.9 
		409.2,527.5 409.4,525.5 407.6,524.2 404.9,524 404.3,523.4 402.2,521.2 402,519.4 401.2,518 400.6,513.8 400,512.4 398.8,511.6 
		399,509.5 397.7,509.1 396.3,507.5 395.6,507.3 394.2,506 390.2,504.9 389.2,505.5 387.7,505.4 387.2,504.9 385,504.7 384.5,504.2 
		384,504.8 383.4,503.3 381.2,502.6 379,502.8 378.7,502.2 378,502.1 377.7,501.4 374.6,500.2 378.6,500.2 403.6,500.1 427,500.2 
		441.8,500.3 442,521.5 	"/>
	<polygon class="st1" points="683.6,525 681.9,512.2 684.6,511.8 688,509.7 692.4,510.2 693.3,509.5 693,508.6 701.8,501.7 
		701.8,508 702.7,508.7 702.8,510 704.1,510.8 703.6,511 703.4,512.1 704.9,512.6 705.8,512.3 706.2,511.7 707,512 705.6,531.3 
		694.4,531.2 	"/>
	<polygon class="st7" points="564.8,532.5 564.8,528.8 564.3,528.3 563.3,528.6 562.3,528.2 561.7,524.5 560.8,523.4 561.1,522.7 
		562.3,522.4 562.1,520.5 563.1,520.2 563.8,519 561.4,518.2 561,517.6 561.3,515.9 563.4,514.2 563.3,513.9 561.6,513.6 
		561.4,512.4 559.6,511.6 560.4,509.3 561.8,508.7 561.8,508.2 560.1,507.5 560.4,505.8 559.7,504 560.7,503.2 585.4,502.6 
		589.1,509.5 582.7,516.9 579.1,524.9 575.4,532.4 576.1,532.5 576.6,533.1 575.3,535.7 	"/>
	<polygon class="st1" points="668.7,541.3 668.4,538.9 666.9,537.7 666.4,537.7 666.1,538.3 664.9,539 663.2,539.4 661.4,538.4 
		661.8,537.2 662.5,536.9 662.1,535.2 660.4,534.5 659.7,533.6 659.7,533 660.5,533.4 658.5,531.4 658.8,530.2 658.3,529.7 
		657.9,529.6 657.9,530.1 657.3,529.8 656.9,530.1 655.9,529.2 655.4,527.2 654.9,528 653.7,526.5 652.7,526.2 652.7,525.4 
		652,525.8 651.1,525 647.4,524.5 648.5,521.2 654,518.6 656,513.3 658.5,509.7 664,506 664.3,507 665.8,508 665.8,510.3 
		667.3,514.1 667.1,515.9 667.8,519.3 667.2,526 669.8,534.8 671.7,535.5 671.8,536.2 670.7,536.5 670.1,538.1 668.9,538.4 
		669.1,540.8 	"/>
	<polygon class="st7" points="536,531.8 519.7,532 511.3,531.9 511.4,520.5 511.6,508.2 530,508.2 529.9,509.1 536.1,509.2 	"/>
	<polygon class="st1" points="564.8,532.5 562.9,532 553.7,532 536,531.8 536.1,509.2 560.4,509.3 559.6,511.6 561.4,512.4 
		561.6,513.6 563.3,513.9 563.4,514.2 561.3,515.9 561,517.6 561.4,518.2 563.8,519 563.1,520.2 562.1,520.5 562.3,522.4 
		561.1,522.7 560.8,523.4 561.7,524.5 562.3,528.2 563.3,528.6 564.3,528.3 564.8,528.8 	"/>
	<polygon class="st1" points="610.7,536.4 609.6,535.4 608.5,535.3 604.7,533.2 603,533.7 601.7,532.4 600.7,532.1 596.3,533.3 
		595.2,534.3 593.1,535 592.3,535.8 591.5,535.7 588.5,533.8 587.4,529.8 585.9,528.3 584.9,528.1 584.6,526.2 582.9,525.3 
		581.6,526 580.8,525.3 580.1,525.9 579.1,524.9 582.7,516.9 589.1,509.5 598.2,511.6 613.4,518.1 615.4,518.9 621,533.9 621,534.5 
		612.6,537.3 	"/>
	<polygon class="st2" points="684.6,546.2 670.7,547.4 670.2,546.7 671.3,546.4 671.5,543.7 671,543.3 670.9,542.5 669.5,542.6 
		668.7,541.3 669.1,540.8 668.9,538.4 670.1,538.1 670.7,536.5 671.8,536.2 671.7,535.5 669.8,534.8 667.2,526 667.8,519.3 
		667.1,515.9 667.3,514.1 673.8,513.3 679.7,512.2 681.9,512.2 683.6,525 684.8,540.5 	"/>
	<polygon class="st4" points="661.4,538.4 659.6,539.1 659.1,538.9 656.8,540.2 656.1,539.9 655.5,540.7 654.2,540.6 644.9,543.2 
		642.1,541.8 640.1,541.6 639.1,539 637.9,537.6 635.2,536 633.9,534.5 633,534.2 633.2,532.8 632.2,530.5 629.8,528.7 645.9,519.4 
		647.5,519.9 648.5,521.2 647.4,524.5 651.1,525 652,525.8 652.7,525.4 652.7,526.2 653.7,526.5 654.9,528 655.4,527.2 655.9,529.2 
		656.9,530.1 657.3,529.8 657.9,530.1 657.9,529.6 658.3,529.7 658.8,530.2 658.5,531.4 660.5,533.4 659.7,533 659.7,533.6 
		660.4,534.5 662.1,535.2 662.5,536.9 661.8,537.2 	"/>
	<polygon class="st6" points="498.4,544 481.4,543.9 481.6,521.7 481.5,520.8 511.4,520.5 511.3,531.9 519.7,532 519.5,544.1 	"/>
	<polygon class="st4" points="454.5,544 442.2,544 442,521.5 481.6,521.7 481.4,543.9 	"/>
	<polygon class="st5" points="308.7,599.3 308.5,537.5 325,523.2 365.7,556.3 374.5,563.9 377.6,566.1 375.6,568 374.8,572.2 
		369.2,571.3 366.9,573.2 365.7,571.7 362.9,574.2 361,573.5 355,585.1 354.2,591.5 351.3,594.7 350.1,599.2 352.1,601.4 
		346.4,603.4 338.6,614.9 333.2,613.3 332.6,614.5 330,611 328.1,612 323.5,609.8 321,605.8 311.9,603.4 311,601.3 309,601.3 
		309.6,598.5 	"/>
	<polygon class="st4" points="404.2,571.2 402.1,571.6 401.4,569.7 396.5,571.1 394.1,569.5 389.9,571.3 377.6,566.1 374.5,563.9 
		365.7,556.3 365.9,544.5 375.5,544.1 375.3,526.7 386,526.7 386.1,523.5 404.3,523.4 404.9,524 407.6,524.2 409.4,525.5 
		409.2,527.5 409.8,528.9 409.4,530.1 408.3,531.2 408.5,532.2 407.7,533 407.3,534.6 406.2,534.1 405.8,534.4 406.4,535.3 
		405.4,536.7 407.4,537.7 407.4,538.9 409.2,540.2 409.3,540.6 406.8,540.9 405.3,542.3 404.6,544 404.3,544.2 	"/>
	<polygon class="st8" points="597.3,555.6 594.1,558.4 573.2,540.6 575.3,535.7 576.6,533.1 576.1,532.5 575.4,532.4 579.1,524.9 
		580.1,525.9 580.8,525.3 581.6,526 582.9,525.3 584.6,526.2 584.9,528.1 585.9,528.3 587.4,529.8 588.5,533.8 591.5,535.7 
		592.3,535.8 593.1,535 595.2,534.3 596.3,533.3 600.7,532.1 601.7,532.4 603,533.7 604.7,533.2 608.5,535.3 609.6,535.4 
		610.7,536.4 605.1,548.2 	"/>
	<polygon class="st2" points="718,550.4 710.4,557.3 709.1,557.4 708.9,558 707.9,557.8 707,556.4 705.9,555.5 703.8,554.8 
		702.3,553.4 700.3,553.9 699.4,553.7 698.5,551.8 696.9,550.7 695.7,551 695,551.9 690.8,554.1 688.8,554 686.1,554.9 684.3,554.8 
		684.6,546.2 684.8,540.5 683.6,525 694.4,531.2 705.6,531.3 707.7,537 710.9,538.7 712.7,540.2 712.1,541.9 714.9,540.4 	"/>
	<polygon class="st1" points="637.8,550.7 635.2,552.9 626.8,557.5 626.6,556.5 624.1,545.6 619.5,541.4 612.6,537.3 621,534.5 
		621,533.9 629.8,528.7 632.2,530.5 633.2,532.8 633,534.2 633.9,534.5 635.2,536 637.9,537.6 639.1,539 640.1,541.6 642.1,541.8 
		644.9,543.2 643.8,544.9 641.9,546.2 640.5,546.6 639.7,549.1 	"/>
	<polygon class="st1" points="553.3,552 537.8,552.1 519.6,551.8 519.5,544.1 519.7,532 536,531.8 553.7,532 	"/>
	<polygon class="st6" points="567,557.5 561.5,562.5 553.3,552 553.7,532 562.9,532 564.8,532.5 575.3,535.7 573.2,540.6 
		571.5,543.7 	"/>
	<polygon class="st6" points="613,571.4 597.3,555.6 605.1,548.2 610.7,536.4 612.6,537.3 619.5,541.4 624.1,545.6 626.6,556.5 
		618.9,565.5 	"/>
	<polygon class="st1" points="668,556 667,556.5 663.9,555.6 663.1,555.8 662.5,555.4 662.4,554.3 661.7,554.5 661.3,554.2 
		648.5,556.4 648,556.4 647.1,555.7 645.9,556.7 645,555.7 645.4,553.6 644.3,552.8 644.4,551.5 643.1,551.7 642.6,550.3 
		641.9,551.2 638.8,551.8 638.7,551.2 637.8,550.7 639.7,549.1 640.5,546.6 641.9,546.2 643.8,544.9 644.9,543.2 654.2,540.6 
		655.5,540.7 656.1,539.9 656.8,540.2 659.1,538.9 659.6,539.1 661.4,538.4 663.2,539.4 664.9,539 666.1,538.3 666.4,537.7 
		666.9,537.7 668.4,538.9 668.7,541.3 669.5,542.6 670.9,542.5 671,543.3 671.5,543.7 671.3,546.4 670.2,546.7 670.7,547.4 
		670,548.1 669.7,547.6 668.8,548.2 668,548 667.3,549.1 668.1,551.8 667.7,552 667,551.4 666.8,552.1 666,552.3 666.5,553.2 
		666.1,553.8 667.4,554 667.7,554.3 667.5,555.1 668,555 668.7,555.6 	"/>
	<polygon class="st1" points="580.9,572.8 579.5,568.1 567,557.5 571.5,543.7 573.2,540.6 594.1,558.4 590.7,562.4 589.1,563.1 
		585.9,565.8 585.6,566.9 584.8,567.3 586.2,567.4 583.3,569.8 	"/>
	<polygon class="st7" points="486.4,580 481.6,579.9 454.5,580.1 454.5,544 481.4,543.9 498.4,544 498.3,555.3 490.8,555.2 
		490.8,554.9 488.4,554.8 487.9,558.3 487.5,558.5 486.9,564.9 486.2,565.4 486.1,566.7 485.4,567.7 485.9,568.5 486.2,570.7 
		485.3,571.8 485.6,573.5 485.1,575 485.9,576.8 485.7,578 486.3,579 	"/>
	<polygon class="st7" points="454.5,580.1 454.5,589.5 453.8,594.1 453.2,595.4 452.2,595.9 452,597.4 452.3,598.5 451.9,599.8 
		451.5,599.9 451.5,600.6 450,600.4 449.5,600.6 439.5,593.6 436.8,588.2 427.7,585.3 428,579.8 425.4,582.3 425.6,578.5 
		422.6,578.2 420.4,573.4 421.1,572.1 418.9,572.6 417.8,571.1 414.6,572.5 414.4,569.9 412.6,572.4 409.9,572.8 404.2,571.2 
		404.3,544.2 404.6,544 442.2,544 454.5,544 	"/>
	<polygon class="st6" points="504.9,564 501.7,564 501.5,555.4 498.3,555.3 498.4,544 519.5,544.1 519.6,551.8 537.8,552.1 
		537.5,571 525.7,564.5 519.1,563.8 	"/>
	<polygon class="st1" points="683.2,570.7 677.7,573.6 676.6,573.6 676.6,574 673.3,574 673,570.6 672.7,570.4 672.2,570.7 
		671.7,570.2 670.8,570 670.7,569.3 670,569.2 669.5,568.4 670.7,567.4 670,566.5 670.9,566.2 669.5,565.3 669.7,564.2 669.1,563.2 
		669.4,562.7 670.2,562.6 669.5,561.8 670.9,561.8 670.5,561.2 670.5,559.9 671.1,559.3 670.7,558.5 670,558.3 669.9,557.5 
		669.4,556.9 668.4,556.6 668,556 668.7,555.6 668,555 667.5,555.1 667.7,554.3 667.4,554 666.1,553.8 666.5,553.2 666,552.3 
		666.8,552.1 667,551.4 667.7,552 668.1,551.8 667.3,549.1 668,548 668.8,548.2 669.7,547.6 670,548.1 670.7,547.4 684.6,546.2 
		684.3,554.8 683.6,555.3 682.7,555 681.3,553.2 680,553.2 679.3,552.3 677.1,551 	"/>
	<polygon class="st2" points="634,579.3 621.2,579.5 621.8,579 613,571.4 618.9,565.5 626.6,556.5 626.8,557.5 635.2,552.9 
		637.8,550.7 638.7,551.2 638.8,551.8 641.9,551.2 642.6,550.3 643.1,551.7 644.4,551.5 644.3,552.8 645.4,553.6 645,555.7 
		645.9,556.7 648.3,561.7 634.9,577.8 	"/>
	<polygon class="st1" points="712.3,583.1 710.5,583.4 710.6,582.8 709.7,581.3 708.9,581 706.9,581.1 706.3,581.6 704.4,581.7 
		703.8,582.2 702.7,582.1 699.5,580.5 699.7,581.7 698.9,582.3 699,580.1 693.9,577.6 683.2,570.7 677.1,551 679.3,552.3 680,553.2 
		681.3,553.2 682.7,555 683.6,555.3 684.3,554.8 686.1,554.9 688.8,554 690.8,554.1 695,551.9 695.7,551 696.9,550.7 698.5,551.8 
		699.4,553.7 700.3,553.9 702.3,553.4 703.8,554.8 705.9,555.5 707,556.4 707.9,557.8 708.9,558 709.1,557.4 710.4,557.3 718,550.4 
		720.1,556.8 719.6,558.8 720.4,559.6 722,559.9 723.1,561.5 722.4,564.1 723.3,565.8 723.5,566.5 724.6,567.2 725.3,568.4 
		726.5,568.5 726.1,570.1 726.3,572.4 725.2,574.5 725.8,574.9 726.3,575.9 725.7,576.9 718.3,570.3 720.6,575.3 723,577 
		721.8,583.5 719.5,583.2 718.5,584.4 717.5,584.9 717.1,585.7 714.9,586.4 714.3,586.2 713.4,584.9 713,583 	"/>
	<polygon class="st6" points="550.5,573.1 550.1,572.9 547.7,573.9 547.5,574.3 546.5,574 546.2,574.7 544.1,574.9 537.5,571 
		537.8,552.1 553.3,552 561.5,562.5 	"/>
	<polygon class="st1" points="666.9,579.5 665.1,578.2 662.9,577.3 662.3,576.2 662.2,575.1 661.3,574.3 659.1,569 658.9,568.8 
		658.3,569.5 655.5,569 654.4,567.4 652.7,567 649.9,564.7 648.3,561.7 645.9,556.7 647.1,555.7 648,556.4 648.5,556.4 661.3,554.2 
		661.7,554.5 662.4,554.3 662.5,555.4 663.1,555.8 663.9,555.6 667,556.5 668,556 668.4,556.6 669.4,556.9 669.9,557.5 670,558.3 
		670.7,558.5 671.1,559.3 670.5,559.9 670.5,561.2 670.9,561.8 669.5,561.8 670.2,562.6 669.4,562.7 669.1,563.2 669.7,564.2 
		669.5,565.3 670.9,566.2 670,566.5 670.7,567.4 669.5,568.4 670,569.2 670.7,569.3 670.8,570 671.7,570.2 672.2,570.7 672.7,570.4 
		673,570.6 673.3,574 673.5,574.7 674.1,574.7 674.5,575.3 674.2,575.6 674.4,576.6 672.7,576.8 673,577.7 673.7,577.3 674.3,577.9 
		674,578.4 674.4,579.6 674.1,581.3 671.5,581.3 670.7,580.5 669.1,580.4 	"/>
	<polygon class="st1" points="505,579.7 486.4,580 486.3,579 485.7,578 485.9,576.8 485.1,575 485.6,573.5 485.3,571.8 486.2,570.7 
		485.9,568.5 485.4,567.7 486.1,566.7 486.2,565.4 486.9,564.9 487.5,558.5 487.9,558.3 488.4,554.8 490.8,554.9 490.8,555.2 
		498.3,555.3 501.5,555.4 501.7,564 504.9,564 	"/>
	<polygon class="st1" points="598.1,578.6 597.7,578 593.3,576.2 593.3,575.3 592.7,574.8 591.8,574.9 592.1,574.2 591.7,573.3 
		591.1,572.7 590.2,572.9 589.4,571 588.6,571.4 588,568.4 586.2,567.4 584.8,567.3 585.6,566.9 585.9,565.8 589.1,563.1 
		590.7,562.4 594.1,558.4 597.3,555.6 613,571.4 599.8,579.1 	"/>
	<polygon class="st1" points="565.8,581.6 564.8,580.2 564.7,578.2 564,577.5 563.1,577.3 563.2,575.3 564.6,575 564.3,574 
		563.2,574.5 562.9,573.9 561.6,573 561.3,574.1 560.7,574.2 560.5,574.7 559.2,573.5 557.9,573.7 554.9,572.5 553.8,573.2 
		552.8,573 552.3,573.6 551.6,573.2 550.9,573.4 550.5,573.1 561.5,562.5 567,557.5 579.5,568.1 580.9,572.8 577.2,576.4 	"/>
	<polygon class="st1" points="644.7,600.9 643.7,600 648.3,595 638,582.5 636,582.6 635.6,580.7 634,579.3 634.9,577.8 648.3,561.7 
		649.9,564.7 652.7,567 654.4,567.4 655.5,569 658.3,569.5 658.9,568.8 659.1,569 661.3,574.3 662.2,575.1 662.3,576.2 662.9,577.3 
		665.1,578.2 666.9,579.5 660.7,586.1 658.8,591.5 	"/>
	<polygon class="st1" points="505,579.7 504.9,564 519.1,563.8 525.7,564.5 537.5,571 544.1,574.9 543.2,576.1 537.9,582.6 
		535.8,583.4 535,583.2 534.8,580.1 514.5,579.8 	"/>
	<polygon class="st6" points="574.5,589.8 574.5,589.4 575,589 575.1,587.3 574.3,587 573.1,587.4 572.9,586.5 572,586.8 
		571.5,585.2 570.6,584.9 569.9,583.9 570.2,583.2 569.1,582.6 568.9,583.5 567.8,583.5 565.8,581.6 577.2,576.4 580.9,572.8 
		583.3,569.8 586.2,567.4 588,568.4 588.6,571.4 589.4,571 590.2,572.9 591.1,572.7 591.7,573.3 592.1,574.2 591.8,574.9 
		592.7,574.8 593.3,575.3 593.3,576.2 597.7,578 598.1,578.6 588.6,593 576.5,592.7 575.7,593.3 574.8,591.6 575,590.7 	"/>
	<polygon class="st1" points="682.6,599 681,598.8 679.3,596.5 678.1,596 677.2,594.8 677.8,593.8 676.7,593.1 676,591 673.5,590 
		673.5,589.2 672.4,587.7 674,587 674,586.4 672.6,585.8 672.6,584.5 673.1,584 672.3,582.8 672.2,581.8 671.5,581.3 674.1,581.3 
		674.4,579.6 674,578.4 674.3,577.9 673.7,577.3 673,577.7 672.7,576.8 674.4,576.6 674.2,575.6 674.5,575.3 674.1,574.7 
		673.5,574.7 673.3,574 676.6,574 676.6,573.6 677.7,573.6 683.2,570.7 693.9,577.6 699,580.1 698.9,582.3 699.7,581.7 699.5,580.5 
		702.7,582.1 700.5,590.1 696,590.3 696.3,591.9 695.3,592.9 694.6,595.9 692.8,595.9 692.4,596.4 692.2,597.6 690.2,597.4 
		686.3,596.1 685.2,597.2 684.6,597 	"/>
	<polygon class="st1" points="593.9,601.3 587.8,594.3 588.6,593 598.1,578.6 599.8,579.1 613,571.4 621.8,579 621.2,579.5 
		618.5,582 618.4,586.3 617.2,592.8 605.1,602.2 599.2,607.4 	"/>
	<polygon class="st1" points="543.2,600.2 543.2,576.1 544.1,574.9 546.2,574.7 546.5,574 547.5,574.3 547.7,573.9 550.1,572.9 
		550.5,573.1 550.9,573.4 551.6,573.2 552.3,573.6 552.8,573 553.8,573.2 554.9,572.5 557.9,573.7 559.2,573.5 560.5,574.7 
		560.7,574.2 561.3,574.1 561.6,573 562.9,573.9 563.2,574.5 564.3,574 564.6,575 563.2,575.3 563.1,577.3 564,577.5 564.7,578.2 
		564.8,580.2 565.8,581.6 567.8,583.5 568.9,583.5 569.1,582.6 570.2,583.2 569.9,583.9 570.6,584.9 571.5,585.2 572,586.8 
		572.9,586.5 573.1,587.4 574.3,587 575.1,587.3 575,589 574.5,589.4 574.5,589.8 561.4,607.5 	"/>
	<polygon class="st1" points="543.2,608.8 514.7,608.7 514.5,579.8 534.8,580.1 535,583.2 535.8,583.4 537.9,582.6 543.2,576.1 
		543.2,600.2 	"/>
	<polygon class="st8" points="629.3,607.8 617.2,592.8 618.4,586.3 618.5,582 621.2,579.5 634,579.3 635.6,580.7 636,582.6 
		638,582.5 648.3,595 643.7,600 631.5,610.4 	"/>
	<polygon class="st1" points="681.2,601.2 677.1,605.5 661,615.5 644.7,600.9 658.8,591.5 660.7,586.1 666.9,579.5 669.1,580.4 
		670.7,580.5 671.5,581.3 672.2,581.8 672.3,582.8 673.1,584 672.6,584.5 672.6,585.8 674,586.4 674,587 672.4,587.7 673.5,589.2 
		673.5,590 676,591 676.7,593.1 677.8,593.8 677.2,594.8 678.1,596 679.3,596.5 681,598.8 682.6,599 682.8,599.6 	"/>
	<polygon class="st2" points="514.7,608.7 481.7,608.9 481.6,579.9 486.4,580 505,579.7 514.5,579.8 	"/>
	<polygon class="st1" points="481.7,608.9 455.6,609.4 450.9,604.7 449.5,600.6 450,600.4 451.5,600.6 451.5,599.9 451.9,599.8 
		452.3,598.5 452,597.4 452.2,595.9 453.2,595.4 453.8,594.1 454.5,589.5 454.5,580.1 481.6,579.9 	"/>
	<polygon class="st1" points="719.4,603.2 715,602.9 714.8,607.4 713.2,608 710.8,614.9 697.7,624.3 696.9,622.8 695.1,622.7 
		694.7,621.1 691.9,618.4 691.6,616.7 690.3,615.8 686.3,615 686.2,613.3 684.9,611.9 685.4,609.8 684.5,608.8 683.8,606.8 
		682.4,605.4 682.3,604.4 682.9,604.1 682.6,602.3 681.2,601.2 682.8,599.6 682.6,599 684.6,597 685.2,597.2 686.3,596.1 
		690.2,597.4 692.2,597.6 692.4,596.4 692.8,595.9 694.6,595.9 695.3,592.9 696.3,591.9 696,590.3 700.5,590.1 702.7,582.1 
		703.8,582.2 704.4,581.7 706.3,581.6 706.9,581.1 708.9,581 709.7,581.3 710.6,582.8 710.5,583.4 712.3,583.1 711.4,588.1 
		719.7,602.7 	"/>
	<polygon class="st1" points="572.5,620.1 566.2,612.5 561.4,607.5 574.5,589.8 575,590.7 574.8,591.6 575.7,593.3 576.5,592.7 
		588.6,593 587.8,594.3 593.9,601.3 	"/>
	<polygon class="st1" points="613.8,620.8 613.1,620.5 612.8,619.8 610.5,618.9 610.2,618.2 609.6,618.3 608.4,617.7 601.2,623.6 
		592.5,613.3 599.2,607.4 605.1,602.2 617.2,592.8 629.3,607.8 	"/>
	<polygon class="st8" points="660.1,631.4 657,631.4 656.9,628.4 655.3,629.2 654.2,626.9 655.1,630 649.1,629.8 648.5,630.3 
		648.5,624 648.3,630.3 647.6,628.9 645,629.1 644.3,628.6 643.9,626.8 642.6,626.2 642.1,623.8 641.2,623.3 641.9,621.7 
		640.7,619.7 638.2,617.8 637.2,615.8 637.3,614.9 635.9,612.4 631.5,610.4 643.7,600 644.7,600.9 661,615.5 	"/>
	<polygon class="st4" points="543.2,633.1 543.2,608.8 543.2,600.2 561.4,607.5 566.2,612.5 572.5,620.1 576.5,625.2 565.2,634.9 
		565.1,633.2 	"/>
	<polygon class="st5" points="660.1,633.4 660.1,631.4 661,615.5 677.1,605.5 681.2,601.2 682.6,602.3 682.9,604.1 682.3,604.4 
		682.4,605.4 683.8,606.8 684.5,608.8 685.4,609.8 684.9,611.9 686.2,613.3 686.3,615 690.3,615.8 691.6,616.7 691.9,618.4 
		694.7,621.1 695.1,622.7 696.9,622.8 697.7,624.3 690.3,628.4 690.9,627 685.5,627.8 678.4,630.3 677.5,634 689.5,628.8 
		665.7,641.2 675.8,635.4 676.2,632.4 664.2,636.7 664.2,635.4 668,634.6 664.1,633.3 668.3,626.5 665.4,630.5 662,631.9 
		662.7,629.4 	"/>
	<polygon class="st8" points="580.9,630.5 576.5,625.2 572.5,620.1 593.9,601.3 599.2,607.4 592.5,613.3 601.2,623.6 591.4,631.5 
		591,631.2 589.2,631.6 587.1,630.6 585.1,628.9 	"/>
	<polygon class="st1" points="621,638.5 620.8,636.2 620,635.6 620.5,628.4 619.9,628 620.5,627.4 620.6,625.7 619.4,623.8 
		619.2,622.5 617.5,620.9 617,620.9 617.4,621.7 616.6,621.7 616.2,622.2 614.1,622.1 613.8,620.8 629.3,607.8 631.5,610.4 
		635.9,612.4 637.3,614.9 637.2,615.8 638.2,617.8 640.7,619.7 641.9,621.7 641.2,623.3 642.1,623.8 642.6,626.2 643.9,626.8 
		644.3,628.6 644.1,629.2 644.5,630.1 641.3,632 634.9,634 631.8,636.2 632.9,638.1 632.7,639.2 633.1,640.5 632.5,640.9 
		632.5,641.4 632,641.6 630.5,640.6 627.3,640 627.1,639.2 626.1,639.2 625.5,638.3 625.5,638.6 624.7,638.4 624.5,639 623,638 	"/>
	<polygon class="st7" points="514.9,633.2 481.8,633.2 481.7,608.9 514.7,608.7 	"/>
	<polygon class="st5" points="543.2,633.1 515.6,633.2 514.9,633.2 514.7,608.7 543.2,608.8 	"/>
	<polygon class="st1" points="481.9,656.5 477,656.5 476.5,654.4 473,652.3 473.3,650.2 470.5,646.2 469.3,641.7 470.8,640.5 
		467.3,638.2 468.1,635.8 463.6,631.9 459.3,619.4 456.6,617.9 455.6,609.4 481.7,608.9 481.8,633.2 	"/>
	<polygon class="st1" points="610.6,646.9 610.2,646.4 609.8,646.5 609.5,645.7 608.3,645.4 607.5,646.1 605.5,644 604.8,643.8 
		603.9,644.1 603.7,643.5 602.7,643.3 602.2,642.6 602.1,640.2 601.3,639.3 598.1,639.4 596.7,638.8 595.2,638.7 594,635.8 
		593.6,633.8 591.4,631.5 601.2,623.6 608.4,617.7 609.6,618.3 610.2,618.2 610.5,618.9 612.8,619.8 613.1,620.5 613.8,620.8 
		614.1,622.1 616.2,622.2 616.6,621.7 617.4,621.7 617,620.9 617.5,620.9 619.2,622.5 619.4,623.8 620.6,625.7 620.5,627.4 
		619.9,628 620.5,628.4 620,635.6 620.8,636.2 621,638.5 	"/>
	<polygon class="st6" points="570,664.1 565.3,664 565.2,634.9 576.5,625.2 580.9,630.5 576.9,632.2 590,658.2 586.1,661.4 
		586.1,664.2 	"/>
	<polygon class="st1" points="603.3,659 602.1,660.8 590,658.2 576.9,632.2 580.9,630.5 585.1,628.9 587.1,630.6 589.2,631.6 
		591,631.2 591.4,631.5 593.6,633.8 594,635.8 595.2,638.7 596.7,638.8 598.1,639.4 601.3,639.3 602.1,640.2 602.2,642.6 
		602.7,643.3 603.7,643.5 603.9,644.1 604.8,643.8 605.5,644 607.5,646.1 608.3,645.4 609.5,645.7 609.8,646.5 610.2,646.4 
		610.6,646.9 	"/>
	<polygon class="st4" points="543.3,664 515.8,665.4 515.7,656.4 515.6,633.2 543.2,633.1 	"/>
	<polygon class="st3" points="565.3,664 543.3,664 543.2,633.1 565.1,633.2 565.2,634.9 	"/>
	<polygon class="st1" points="515.7,656.4 481.9,656.5 481.8,633.2 514.9,633.2 515.6,633.2 	"/>
	<polygon class="st5" points="616.1,663.8 616,663 615.1,662.5 614.9,661.8 614.4,662.1 613.8,661.6 614,661.1 613.7,660.1 
		613.3,660.1 613.4,661.2 612.7,660.7 612.3,661.2 610.9,660.3 610.3,661 609.7,660.7 609.9,661.3 609.7,661.9 608.5,661.4 
		608.5,660.3 607.4,660.3 607.5,659.6 606.2,659.1 606.2,658.2 605,658.8 604.4,659.6 604,659.1 603.3,659 610.6,646.9 621,638.5 
		623,638 624.5,639 624.7,638.4 625.5,638.6 625.5,638.3 626.1,639.2 627.1,639.2 627.3,640 630.5,640.6 632,641.6 632.5,641.4 
		632.5,640.9 633.1,640.5 635.6,642.4 636.1,643.4 637.1,644.4 638.3,643.5 639.7,645.3 638.9,646.4 635.2,645.7 638.3,648.5 
		638.4,650.6 622.8,652.9 622.5,654.3 623.6,655.5 624.2,655.5 625.5,656.5 627.2,656.6 622.1,660.3 622,658.7 620.4,658.8 
		620.9,661.1 	"/>
	<polygon class="st3" points="536.1,706 518.4,706 516.7,704.1 512.2,706.1 508.6,703.5 511.1,694.4 509.4,693.7 508.3,687.9 
		500.5,685.3 495.8,679 493,678.1 489.8,668 487.4,667.1 482.5,659.1 477,656.5 481.9,656.5 515.7,656.4 515.8,665.4 543.3,664 
		543.2,701.3 543.2,705.9 	"/>
	<polygon class="st6" points="556.1,705.9 556,701.9 554.9,701.9 554.8,701 553.1,701.1 553.2,702 551.2,701.9 551.2,701.1 
		543.2,701.3 543.3,664 565.3,664 570,664.1 570,706.3 	"/>
	<polygon class="st1" points="570,706.3 570,664.1 586.1,664.2 587.3,665.4 588.4,665.5 589.5,665 590.1,665.3 590.6,665.9 
		590.5,667.3 584.1,673.5 583.7,686.4 578.3,686.6 578.3,706.4 	"/>
	<polygon class="st5" points="560.6,731.6 536,731.5 536.1,706 543.2,705.9 543.2,701.3 551.2,701.1 551.2,701.9 553.2,702 
		553.1,701.1 554.8,701 554.9,701.9 556,701.9 556.1,705.9 555.7,706 555.8,706.3 557.4,707.6 557.3,712.4 558.4,712.5 558.5,717 
		560.8,717.1 	"/>
	<polygon class="st1" points="526.3,742.5 520.7,727.9 515.8,723.2 515.7,720.6 512.7,718.9 513.6,709.8 512.2,706.1 516.7,704.1 
		518.4,706 536.1,706 536,731.5 533.6,737.3 	"/>
	<polygon class="st1" points="565.2,731.6 560.6,731.6 560.8,717.1 558.5,717 558.4,712.5 557.3,712.4 557.4,707.6 555.8,706.3 
		555.7,706 556.1,705.9 570,706.3 578.3,706.4 582,706.5 582,709 581.7,731.7 	"/>
	<polygon class="st1" points="553,759.3 549.3,760.3 542.6,753.3 538.5,754.1 537,752.2 529.1,751 529.4,747.4 526.2,744.3 
		526.3,742.5 533.6,737.3 536,731.5 560.6,731.6 565.2,731.6 	"/>
	<polygon class="st8" points="553,759.3 565.2,731.6 581.7,731.7 581.6,740.6 583,740.8 582.4,743.7 582.5,744.8 581.8,744.8 
		581,748.6 587.2,749.5 587.4,754.7 587.5,769.8 579.4,769.9 577.7,771.2 577.3,769.5 571.8,770.1 567.5,767.8 568.5,766.7 
		567.5,766 565.8,767.1 564.9,764.7 563.1,764.8 559.9,761.4 558.2,762.4 	"/>
	<polygon class="st8" points="255.6,522.4 255.6,515.1 256.3,515.1 256.3,506 255.6,505.9 255.3,449.5 258.7,449.6 297.8,449.3 
		293.9,499 	"/>
	<polygon class="st2" points="293.9,499 297.8,449.3 299.6,449.4 300.1,450.7 301.3,450.5 301.6,452.2 302.6,452.9 302.9,454.9 
		303.1,455.3 304.4,455.8 304.2,457 306.9,455.5 307,457 308.4,461.9 309,462 309.2,462.7 310.5,464 313.4,463.4 314.4,464.8 
		316.6,465.9 316.8,466.6 316.1,466.6 316.1,467.2 316.8,468.4 317.4,468.8 319.2,469.6 319.9,469.1 320.5,469.3 320.9,469.9 
		322,470.2 321.8,471 322.3,471.7 321.6,472.7 322.7,475.5 322.1,476.2 323,477.9 323,479.7 324,480.6 324.8,480.9 325.5,480.6 
		326.1,481 327.2,480.6 328,481.5 330.2,481.6 332.7,481.6 333.4,481.1 334.1,483 336.9,484.2 342.2,484.7 343.6,483.5 345,484.1 
		318.2,517.5 	"/>
	<polygon class="st2" points="329.6,468.7 317.4,468.8 316.8,468.4 316.1,467.2 316.1,466.6 316.8,466.6 316.6,465.9 314.4,464.8 
		313.4,463.4 310.5,464 309.2,462.7 309,462 308.4,461.9 307,457 306.9,455.5 304.2,457 304.4,455.8 303.1,455.3 302.9,454.9 
		302.6,452.9 301.6,452.2 301.3,450.5 300.1,450.7 299.6,449.4 311.5,449.4 330.2,449.5 	"/>
	<polygon class="st3" points="252.2,524.6 251.7,522.3 248.8,522.1 241.5,515.3 239.5,516.1 238.1,514.2 236.9,515 233.2,513 
		232.4,510.3 225.5,505.1 223.2,500.2 215.4,495.6 204.6,483.3 206.3,482.5 206.3,478.8 204.5,478.6 204.4,449.7 255.3,449.5 
		255.6,505.9 256.3,506 256.3,515.1 255.6,515.1 255.6,522.4 	"/>
	<polygon class="st5" points="204.6,483.3 194.5,478.6 186.5,464.5 179.2,461.6 175.6,459.9 175.6,458.4 174.2,455.6 174.7,454.5 
		174.8,451.3 173.9,450.8 175.2,449.7 186.7,449.7 204.4,449.7 204.5,478.6 206.3,478.8 206.3,482.5 	"/>
	<polygon class="st6" points="252.2,524.6 255.6,522.4 293.9,499 318.2,517.5 325,523.2 308.5,537.5 303.6,537.5 	"/>
	<polygon class="st3" points="252.2,524.6 303.6,537.5 308.5,537.5 308.7,599.3 296.6,596 291,592.1 289.1,587.6 280.9,584 
		273.5,577 271.5,570 267,564.5 265.9,556.5 266.9,551.5 265.6,546.6 260.4,540.5 260.7,539.1 258.5,538.2 256.8,528.5 	"/>
	<polygon class="st1" points="486.7,193.6 487,193.7 487.2,219.1 461.6,219.1 461.2,193.9 	"/>
	<polygon class="st3" points="385,219.3 385.1,193.9 391.3,193.7 410.8,193.7 410.8,219.3 	"/>
	<polygon class="st2" points="385,219.3 344.7,219.2 344.5,193.8 345.9,193.7 385.1,193.9 	"/>
	<polygon class="st4" points="410.8,219.3 410.8,193.7 435.8,194 436.1,219.2 	"/>
	<polygon class="st2" points="436.1,219.2 435.8,194 442,193.9 461.2,193.9 461.6,219.1 	"/>
	<polygon class="st5" points="435.6,244.3 436.1,219.2 461.6,219.1 461.5,244.2 435.9,244.3 	"/>
	<polygon class="st1" points="487.1,244.6 461.5,244.2 461.6,219.1 487.2,219.1 487.2,229.2 	"/>
	<polygon class="st1" points="435.6,244.3 410.7,244.2 410.8,219.3 436.1,219.2 	"/>
	<polygon class="st1" points="344.8,244.3 344.8,237.4 344.7,219.2 385,219.3 385.3,244.2 	"/>
	<polygon class="st1" points="385.3,244.2 385,219.3 410.8,219.3 410.7,244.2 	"/>
	<polygon class="st6" points="385.8,269.9 385.3,244.2 410.7,244.2 410.5,269.8 	"/>
	<polygon class="st5" points="435.9,244.3 435.9,269.9 410.5,269.8 410.7,244.2 435.6,244.3 	"/>
	<polygon class="st1" points="435.9,269.9 435.9,244.3 461.5,244.2 461.8,269.8 	"/>
	<polygon class="st1" points="461.8,269.8 461.5,244.2 487.1,244.6 487.3,255.8 487.2,269.8 	"/>
	<polygon class="st8" points="344.6,270.1 344.8,244.3 385.3,244.2 385.8,269.9 385.2,269.9 	"/>
	<polygon class="st1" points="393.2,294.5 384.9,294.7 385.2,269.9 385.8,269.9 410.5,269.8 410.4,294.5 	"/>
	<polygon class="st1" points="435.8,294.7 417.8,294.7 410.4,294.5 410.5,269.8 435.9,269.9 	"/>
	<polygon class="st2" points="461.4,294.8 461.8,269.8 487.2,269.8 487.2,278.5 487.1,294.8 467.4,294.9 	"/>
	<polygon class="st3" points="461.4,294.8 442.6,294.8 435.8,294.7 435.9,269.9 461.8,269.8 	"/>
	<polygon class="st4" points="368.5,294.5 344.8,294.9 344.6,282.3 344.6,270.1 385.2,269.9 384.9,294.7 	"/>
	<polygon class="st6" points="344.4,319.9 344.8,294.9 368.5,294.5 368.3,319.9 364.2,319.9 	"/>
	<polygon class="st1" points="368.3,319.9 368.5,294.5 384.9,294.7 393.2,294.5 393.2,319.8 388.8,319.9 	"/>
	<polygon class="st2" points="417.9,319.8 413.5,319.9 393.2,319.8 393.2,294.5 410.4,294.5 417.8,294.7 	"/>
	<polygon class="st1" points="437.7,319.7 417.9,319.8 417.8,294.7 435.8,294.7 442.6,294.8 442.5,319.5 	"/>
	<polygon class="st1" points="487.2,319.7 467.3,319.5 467.4,294.9 487.1,294.8 487.2,305.4 	"/>
	<polygon class="st1" points="467.3,319.5 462.6,319.6 442.5,319.5 442.6,294.8 461.4,294.8 467.4,294.9 	"/>
	<polygon class="st1" points="487.1,324.4 487.2,319.7 487.2,305.4 488.4,305.4 489.7,304.4 490.3,304.4 492.7,306.2 493.6,307.9 
		495.1,308.9 497.5,312.2 501.9,316 505.8,316.5 506.6,315.5 506.9,314.2 508.1,313.8 510.5,314.4 511.6,315.6 511.8,333.2 
		511.1,333.7 510.1,333.1 509.3,333.1 508.4,333.9 507.8,333.9 503.6,332 502.5,332.6 500.3,332 497.8,332.3 	"/>
	<polygon class="st4" points="536.4,346.9 512,347.2 511.8,333.2 511.6,315.6 513.5,316.7 514.8,316.4 515.6,314.9 515.7,313 
		517,311.8 518.9,313.9 521.6,314.8 522.2,316.5 524.5,318.5 524.9,320.1 524.5,322.9 525.2,324.7 525.9,325.3 528.1,326 
		530.5,325.6 532.5,326.1 534.3,325.5 536.4,326.4 	"/>
	<polygon class="st5" points="437.8,346.7 437.7,319.7 442.5,319.5 462.6,319.6 462.3,346.5 	"/>
	<polygon class="st1" points="487.1,324.4 486.5,324.5 485.6,323.9 484.5,324.5 484.2,346.5 462.3,346.5 462.6,319.6 467.3,319.5 
		487.2,319.7 	"/>
	<polygon class="st1" points="413.5,346.8 413.5,319.9 417.9,319.8 437.7,319.7 437.8,346.7 	"/>
	<polygon class="st1" points="389.1,346.9 388.8,319.9 393.2,319.8 413.5,319.9 413.5,346.8 	"/>
	<polygon class="st6" points="364.4,347.1 364.2,319.9 368.3,319.9 388.8,319.9 389.1,346.9 	"/>
	<polygon class="st5" points="344.3,347.3 344.4,319.9 364.2,319.9 364.4,347.1 	"/>
	<polygon class="st3" points="512,347.2 512.1,352.7 511.4,352 510.9,350.6 509.6,350.4 509.5,349.7 508.5,349.7 508.4,349 
		507.4,349.3 506.9,348.7 506.3,349.6 505.8,348.9 503.5,347.8 502.8,348.1 501.5,347.4 501.1,348.9 500.7,348.9 500.4,347.9 
		500,348.8 499.5,348.3 498.8,348.9 498.7,347.6 497.9,348 496.1,347.6 495.4,348 494.7,346.9 487.1,347 487,346.4 484.2,346.5 
		484.5,324.5 485.6,323.9 486.5,324.5 487.1,324.4 497.8,332.3 500.3,332 502.5,332.6 503.6,332 507.8,333.9 508.4,333.9 
		509.3,333.1 510.1,333.1 511.1,333.7 511.8,333.2 	"/>
	<polygon class="st1" points="536.4,346.9 536.4,326.4 539.3,328.3 543,329.1 544.6,329.9 548,330 549.1,328.9 550.1,329.1 
		551.8,328.4 552.7,328.8 554.1,329.4 555,331.5 557.7,333.7 560.1,334.4 561.4,333.7 561.5,346.9 	"/>
	<polygon class="st1" points="708.3,372.4 708.3,343.9 709,343.9 709.5,342.1 710.1,343.2 710.7,342.8 710.7,341 711.5,339.4 
		715.5,340.6 716.5,340.8 716.5,342.1 716.9,342.4 718,341.9 718.6,342.1 718.3,343.3 718.6,343.8 719.5,342.1 719.5,343.3 
		720.5,344 720.8,345 721.9,344.8 723,345.6 724,345 724.4,346.1 725.3,346.5 725.3,347.9 726.4,347.9 726.8,348.6 726.6,349.4 
		728.1,350.2 729.2,351.7 731,351.6 731.8,352.2 732.7,351.4 733.6,351.5 732.8,352.1 732.7,352.5 734.3,352.4 733.7,353.5 
		734.7,353.4 734.1,354 734.7,354.4 734.5,375 733.9,375.4 733.1,375.2 731,372.5 729.3,372.1 728,371.4 726.7,372 722.5,371.6 
		720.9,372.3 719.7,371.8 717,371.8 715.5,372.1 714.5,371.9 713.8,372.5 713,372.1 711,372.6 	"/>
	<polygon class="st6" points="731.3,394.6 728.2,392.7 726.1,390.4 724.8,389.5 720.7,389.4 716.5,391.9 717,371.8 719.7,371.8 
		720.9,372.3 722.5,371.6 726.7,372 728,371.4 729.3,372.1 731,372.5 	"/>
	<polygon class="st1" points="715.5,393.1 714.6,395.8 707.9,395.7 708.3,372.4 708.3,372.4 711,372.6 713,372.1 713.8,372.5 
		714.5,371.9 715.5,372.1 717,371.8 716.5,391.9 	"/>
	<polygon class="st3" points="738.8,400.4 736.5,400.4 735.2,398.8 732.6,396.4 731.3,394.6 731,372.5 733.1,375.2 733.9,375.4 
		734.5,375 735.5,376.1 736.8,375.8 738.5,378 	"/>
	<polygon class="st1" points="735.2,398.8 715.5,398.7 715.5,393.1 716.5,391.9 720.7,389.4 724.8,389.5 726.1,390.4 728.2,392.7 
		731.3,394.6 732.6,396.4 	"/>
	<polygon class="st1" points="715.2,418 715.5,398.7 735.2,398.8 736.5,400.4 736.9,403.6 736.4,404.2 736.4,405.4 736.5,413.1 
		735.7,413.2 734.7,412.7 733.5,413.1 730.6,416.9 722.9,419.9 722.2,420.4 721.4,419.1 721.1,419.6 719.1,419.5 718.4,418.8 
		716.2,419.2 	"/>
	<polygon class="st1" points="767.6,400.5 767.7,411 765.7,411.2 763.6,409.9 762.8,408.8 761.5,409.5 761.2,410.9 760.6,410.8 
		758.9,410.1 758.1,408 756.7,407.7 755.6,408.9 751.3,411.1 745.8,411.1 736.4,405.4 736.4,404.2 736.9,403.6 736.5,400.4 
		738.8,400.4 	"/>
	<polygon class="st1" points="767.7,411 767.9,428.1 753.2,431.5 751.6,430.6 751.1,429.4 749.5,429.3 749,429.7 746.8,428.3 
		746,427.8 745.2,428.2 743.5,427.2 742.6,427.5 741.2,428 739,427.5 736.6,425.9 736.5,413.1 736.4,405.4 745.8,411.1 751.3,411.1 
		755.6,408.9 756.7,407.7 758.1,408 758.9,410.1 760.6,410.8 761.2,410.9 761.5,409.5 762.8,408.8 763.6,409.9 765.7,411.2 	"/>
	<polygon class="st5" points="723.1,458 723,453.4 723.5,452.1 723.2,451 723,441.8 723,429.2 738,429.1 741.4,429.7 742.2,429.5 
		742.6,427.5 743.5,427.2 745.2,428.2 746,427.8 746.8,428.3 745.7,432.2 745,432.9 744.8,433.9 742.5,438.4 742,443.7 741.3,446.1 
		741.6,451.3 745.7,451.3 745.7,454.1 747.3,456 748.1,458.1 	"/>
	<polygon class="st1" points="745.7,451.3 741.6,451.3 741.3,446.1 742,443.7 742.5,438.4 744.8,433.9 745,432.9 745.7,432.2 
		746.8,428.3 749,429.7 749.5,429.3 751.1,429.4 751.6,430.6 753.2,431.5 767.9,428.1 768,438.6 768,450 769.1,450.3 769.4,451 	"/>
	<polygon class="st5" points="777.5,472.4 773.6,471.3 770.2,473.6 765.1,470.4 751,468.8 750.3,467.1 750.2,464.5 748.9,459.5 
		748.1,458.1 747.3,456 745.7,454.1 745.7,451.3 769.4,451 770.7,452.7 771,454 772.6,454.8 773.5,454.8 773.2,455.7 774.3,455.6 
		774.7,457 775.2,456.9 775.4,458 776,459.9 777.4,460.7 778,462.2 777.5,463.4 778.5,464.7 778.3,465.7 778.6,466 779.4,465.7 
		778.5,467.8 778.7,468.9 778.3,469.2 778.1,470.9 777.3,471.1 	"/>
	<polygon class="st1" points="754.1,492.7 753.3,492.2 750.9,488.8 748.9,487.5 746.8,483.9 744.7,482.8 743.9,481.4 740.8,480.5 
		740,480.6 737.6,479.5 735.4,479.6 733.9,479.1 731.9,477.8 731,477.9 728.5,475.7 727.6,474.8 727.5,473.2 726.7,473.4 
		726.5,473.1 725.1,468.9 724.2,464.2 724.5,463.5 725.4,463.2 725.5,462.8 723.5,461.5 723.1,458 748.1,458.1 748.9,459.5 
		750.2,464.5 750.3,467.1 751,468.8 753.4,471.5 754.7,472.5 755.4,474 755.3,476.9 754.5,480.2 754.9,481.8 754.5,482.6 754.6,487 
		753.8,490.3 	"/>
	<polygon class="st1" points="773.5,496.2 767.7,497.4 767,497 767.6,495.1 767.9,491.4 767.3,487 768.1,484.3 767.3,482.8 
		770.1,479.1 770.2,473.6 773.6,471.3 777.5,472.4 778.2,473.2 778.5,474.2 780,475.6 780.7,475.7 781.5,475.3 782.2,476.2 
		783.5,476.3 782.8,477.7 781.3,478 781.3,478.2 782.5,479.7 783.8,479.5 783.6,480.4 784.3,480.8 783.9,481.4 784,482.1 
		784.3,482.6 785.4,483 785.6,484.5 786.8,484.4 784.8,486.9 784.6,487.8 785.8,489.2 786.3,489 787,489.9 787.7,489.8 787.9,490.1 
		787.9,491.6 788.9,492.3 788.3,494 788.7,495.1 	"/>
	<polygon class="st1" points="742.4,501.5 739.3,499.8 737.8,500.1 736.4,499.3 733.3,498.7 731.1,497.6 730.4,496.8 730.7,495.3 
		730.2,494.7 729.8,492.9 728.8,491.4 727.6,490.7 728.2,488.9 727.5,488.5 726.8,486.4 724.6,486 724.3,483.8 724.4,483.3 
		722.7,481.5 722.5,480.8 728.5,475.7 731,477.9 731.9,477.8 733.9,479.1 735.4,479.6 737.6,479.5 740,480.6 740.8,480.5 
		743.9,481.4 744.7,482.8 746.8,483.9 748.9,487.5 750.9,488.8 753.3,492.2 754.1,492.7 755.5,493.4 757.3,495 759,495.6 761,498.2 
		763,499.6 748.7,502.9 746.9,503.2 746.3,502.5 744.7,501.8 	"/>
	<polygon class="st1" points="774.4,546.4 776.2,508.1 773.5,496.2 788.7,495.1 789.5,495.5 790.8,494.5 791.8,494.8 791.9,495.2 
		791.4,495.3 791.8,496 791.1,496.2 791.4,497.7 791.8,498 791.5,498.6 790.5,499 790.3,499.4 791.1,499.8 791.1,500.4 792.3,500.9 
		791.9,501.8 792.8,502.8 790.9,504.2 790.1,504 790,504.2 789.8,505.1 790.3,505.4 789.7,506.3 790.8,506.6 791.4,507.3 
		791.6,507.1 791.9,508.5 791.7,509 790.8,509.1 791,510.2 790.1,510.4 789.9,511.2 790.3,512 790.7,512.6 790,513.5 790.5,513.6 
		790.8,514.4 789.3,515.8 789.1,517.5 787.6,518.9 788.1,519.7 787.6,519.6 787.8,520.8 787.6,522.1 785.6,522.9 784.8,524.7 
		784.1,524.7 784.5,525.6 784.1,526 785.1,527 784,527 782.9,527.6 782.9,528.6 782.1,529.9 783.5,531.1 783,532.1 783.4,532.6 
		783,533 783.8,534 783.6,534.4 783.9,535.5 782.7,536 781.7,537.3 781.1,538.8 781.5,539.6 780.9,540.3 780.9,541 782.3,543 
		783.8,543.4 783.4,546.6 	"/>
	<polygon class="st1" points="774.4,546.4 764.8,546.4 765,545.8 764.4,544.4 764.4,543.6 765.7,540.8 764.2,536.5 766.6,531.1 
		766.4,530.1 765.7,529.1 765.7,528.2 766.1,526.4 767.2,525.3 767.2,524.5 766.6,523.7 765.9,523.8 765.3,522.4 764.2,522.4 
		763.5,521.2 763.8,519.1 763.5,517.6 761.6,516 760.5,513.9 760.1,510.9 759.6,510.3 760.3,509.1 760,508.5 759.1,508.3 
		758.2,507.2 758.4,506.5 758.2,505.9 758.8,505.4 758.4,504.7 757.1,503.8 756.8,504 755.8,502.8 754.7,503.7 753.6,503 751,503.7 
		750.3,503.5 749.7,504.3 748.9,504.6 748.6,504.2 748.7,502.9 763,499.6 767.3,498.6 767.7,497.4 773.5,496.2 776.2,508.1 	"/>
	<polygon class="st1" points="729.7,532.9 729,532.2 728.9,531.5 730,530.5 730,529.8 727.2,528.8 726,528.9 724.1,528.2 
		720.9,527.7 721.8,526.4 721.9,525.4 721.4,524.1 722,523.8 720.7,523 720.6,522.4 720,522.6 719.8,522.2 717.2,523.1 717.1,521.3 
		716.3,521.2 715.5,519.8 716.1,516.7 713.2,514.3 730.4,496.8 731.1,497.6 733.3,498.7 736.4,499.3 737.8,500.1 739.3,499.8 
		742.4,501.5 738.7,504.2 743.8,531 744.2,532.8 735.1,532.9 	"/>
	<polygon class="st4" points="766.6,531.1 743.8,531 738.7,504.2 742.4,501.5 744.7,501.8 746.3,502.5 746.9,503.2 748.7,502.9 
		748.6,504.2 748.9,504.6 749.7,504.3 750.3,503.5 751,503.7 753.6,503 754.7,503.7 755.8,502.8 756.8,504 757.1,503.8 758.4,504.7 
		758.8,505.4 758.2,505.9 758.4,506.5 758.2,507.2 759.1,508.3 760,508.5 760.3,509.1 759.6,510.3 760.1,510.9 760.5,513.9 
		761.6,516 763.5,517.6 763.8,519.1 763.5,521.2 764.2,522.4 765.3,522.4 765.9,523.8 766.6,523.7 767.2,524.5 767.2,525.3 
		766.1,526.4 765.7,528.2 765.7,529.1 766.4,530.1 	"/>
	<polygon class="st1" points="714.9,540.4 712.1,541.9 712.7,540.2 710.9,538.7 707.7,537 705.6,531.3 707,512 707.5,511.8 
		707.9,510.5 710.3,510.2 711.1,511 711.3,513.3 713.2,514.3 716.1,516.7 715.5,519.8 716.3,521.2 717.1,521.3 717.2,523.1 
		719.8,522.2 720,522.6 720.6,522.4 720.7,523 722,523.8 721.4,524.1 721.9,525.4 721.8,526.4 720.9,527.7 724.1,528.2 726,528.9 
		727.2,528.8 730,529.8 730,530.5 728.9,531.5 729,532.2 729.7,532.9 	"/>
	<polygon class="st5" points="764.8,550.8 762.1,550.1 761.7,549.6 760,549.4 758.2,550.5 756.8,550.3 755.9,551.4 755.5,552.8 
		753.5,553.8 750.9,553.8 749.7,554.3 748.3,553.6 747.2,553.3 741,553.3 735.1,532.9 744.2,532.8 743.8,531 766.6,531.1 
		764.2,536.5 765.7,540.8 764.4,543.6 764.4,544.4 765,545.8 764.8,546.4 764.7,548.3 765.5,548.5 765.6,549 764.9,549.9 	"/>
	<polygon class="st2" points="748.4,565.3 723.3,565.8 722.4,564.1 723.1,561.5 722,559.9 720.4,559.6 719.6,558.8 720.1,556.8 
		718,550.4 714.9,540.4 729.7,532.9 735.1,532.9 741,553.3 747.2,553.3 748.3,553.6 	"/>
	<polygon class="st1" points="780.9,559.3 776.3,560.1 776.4,561.5 773.8,559.8 772.8,559.9 771.8,559.1 769.5,558.9 767.8,557.7 
		767.8,556.4 766.6,555.6 765.3,555.6 765,554.1 765.7,553.3 765.5,552.8 764.4,552.5 764.2,551.4 764.8,550.8 764.9,549.9 
		765.6,549 765.5,548.5 764.7,548.3 764.8,546.4 774.4,546.4 783.4,546.6 783,547.6 783.5,549.8 783.9,550 783.7,551.4 784.5,551.5 
		784.4,551.9 783.8,551.9 783.9,553.2 783.3,553.4 783,554.4 783.1,556.3 	"/>
	<polygon class="st6" points="752.8,583.5 752.3,565.2 748.4,565.3 748.3,553.6 749.7,554.3 750.9,553.8 753.5,553.8 755.5,552.8 
		755.9,551.4 756.8,550.3 758.2,550.5 760,549.4 761.7,549.6 762.1,550.1 764.8,550.8 764.2,551.4 764.4,552.5 765.5,552.8 
		765.7,553.3 765,554.1 765.3,555.6 766.6,555.6 767.8,556.4 767.8,557.7 769.5,558.9 771.8,559.1 772.8,559.9 773.8,559.8 
		776.4,561.5 771.9,569.5 777.4,577.3 766.5,577.3 	"/>
	<polygon class="st1" points="751.8,583.9 751.5,581.3 750.3,581.3 749.1,583 747.9,583.1 745.5,584.2 744.5,583.8 743,582.5 
		732.5,584.6 736.3,578.2 736.6,572.9 735,570.9 730.5,572.7 727.8,577.6 725.7,576.9 726.3,575.9 725.8,574.9 725.2,574.5 
		726.3,572.4 726.1,570.1 726.5,568.5 725.3,568.4 724.6,567.2 723.5,566.5 723.3,565.8 748.4,565.3 752.3,565.2 752.8,583.5 	"/>
	<polygon class="st1" points="723,429.2 722.9,419.9 730.6,416.9 733.5,413.1 734.7,412.7 735.7,413.2 736.5,413.1 736.6,425.9 
		739,427.5 741.2,428 742.6,427.5 742.2,429.5 741.4,429.7 738,429.1 	"/>
	<polygon class="st2" points="767.7,497.4 767.3,498.6 763,499.6 761,498.2 759,495.6 757.3,495 755.5,493.4 754.1,492.7 
		753.8,490.3 754.6,487 754.5,482.6 754.9,481.8 754.5,480.2 755.3,476.9 755.4,474 754.7,472.5 753.4,471.5 751,468.8 765.1,470.4 
		770.2,473.6 770.1,479.1 767.3,482.8 768.1,484.3 767.3,487 767.9,491.4 767.6,495.1 767,497 	"/>
	<polygon class="st3" points="734.5,375 734.7,354.4 737.1,355 738.1,354.6 738.7,354.9 739.3,355.7 738.1,356.1 738.1,356.4 
		738.6,356.5 739.5,356.1 739.8,355.4 741.3,356.4 742,355.6 742.4,356.1 743.2,356 743,356.5 742,356.6 741.9,357 742.5,357.2 
		743.9,356.6 744.1,357.4 743.1,357.7 743.1,358.1 743.7,358.3 745.2,357.7 744.9,358.9 745.6,358.4 746,358.8 747.2,358.3 
		749.1,358 749,359.1 748.3,359.9 748.7,360.3 749.4,360.3 750.5,361.6 751.1,361.5 751.8,360.5 752.2,360.7 752.1,361.6 751,362.4 
		752.1,363.1 754.1,361.6 755.4,362.5 755.5,361.2 756.5,360.7 756.8,361 756.7,362.3 758.4,360.5 759.1,360.9 758.5,362.3 
		759.7,362.5 759.9,361 762.1,360.5 762.3,362 765,361.6 765.5,361 766.7,361.4 767.9,362.6 767.9,378.7 766.4,377.1 765.8,377.3 
		765.1,376.8 763.7,377.2 762,376.5 759.5,377.4 758.8,378.4 758.8,379.5 757.5,380 755.4,379.3 752,379.6 750.2,379 749.5,377.9 
		748.3,378 747.1,377.5 742.8,379.1 742.1,379.8 740.5,379.9 739.4,379.3 738.5,378 736.8,375.8 735.5,376.1 	"/>
	<polygon class="st6" points="767.8,392.6 767.6,400.5 738.8,400.4 738.5,378 739.4,379.3 740.5,379.9 742.1,379.8 742.8,379.1 
		747.1,377.5 748.3,378 749.5,377.9 750.2,379 752,379.6 755.4,379.3 757.5,380 758.8,379.5 758.8,378.4 759.5,377.4 762,376.5 
		763.7,377.2 765.1,376.8 765.8,377.3 766.4,377.1 767.9,378.7 	"/>
	<path class="st1" d="M618.5,759.8l1.4,9.4l0.3-0.3l-1.1-9.5l-1.8-8.3l-0.9-0.1l1.2,3.7L618.5,759.8z M618.3,772.5l-3,0.3l1.1-3.5
		l-4.7-6l-0.7-9.3l-2.5-1.4l-1.2,1l-0.7,1.9l-1.8-0.5l-2.1,0.7l0.1,1.3l-15.4-2.4l0.1,15.1l10.3,1.9l1.7,3.2l1.8,0.4l-0.7,1.1
		l7.3,4.6h2.3l0.2-3.8l3.6-1.1l-0.1-1.4l6.3,0.5L618.3,772.5z"/>
	<path class="st1" d="M608.3,745.8l-1.2-4.3l-19.5,0.2l-4.6-0.8l-0.6,2.9l0.1,1.1h-0.7l-0.7,3.8l6.2,0.9l0.2,5.2l15.4,2.4l-0.1-1.3
		l2.1-0.7l1.8,0.5l0.7-1.9l1.2-1L606,748L608.3,745.8z M614.4,741.4h-0.2l1.1,3.2l0.5,3.2l0.8,3.1l0.9,0.1L614.4,741.4z"/>
	<path class="st8" d="M602.5,708.2l-11.1-3l-1.7,0.6l-0.3,1l-0.7,0.3l-2.2,0.5l-2.1-0.1l-1.3,0.4l-0.5,1.1L582,709l-0.3,22.6l0,8.9
		l1.3,0.2l4.6,0.8l19.5-0.2l-2.1-10.1l-2.9-2.8l-0.5-7l4.2-1l-1.2-4.5l3.6-9.7L602.5,708.2z M610.6,705.3l-0.2,3.9l1-3.9
		L610.6,705.3z M611.5,730.8l-1.1-7.7l-0.3-7.8l0.4-5.7l-0.5,0.2l-0.6,4.8l0.3,10l0.7,5.4l1.1,6l2.7,5.6h0.2L611.5,730.8z"/>
	<path class="st1" d="M588.9,690.9l-1.8-1.9l-0.2-1.3l-3.2-1.2l-5.4,0.2v19.8l3.7,0.1v2.5l0.8-0.2l0.5-1.1l1.3-0.4l2.1,0.1l2.2-0.5
		l0.7-0.3l0.3-1l1.7-0.6l4.9-0.3l-3.3-6.6l7.1,6.3l3.4-2.3l1-5l0.3,6.3l4.2-0.1l3.8-12.8L588.9,690.9z M616.6,689.6l-4.1,7.4
		l-1.9,8.3h0.8l6.4-15.3L616.6,689.6z"/>
	<path class="st8" d="M613.8,682.8l-1.8,4.1l-2.4-0.1l2.2-0.4l1.6-2.7l-1.4-1.3l1.5,0.2l-3.7-3.1l0.4-3.2l-4.3,0.6l-0.9-1.2
		l-0.5,0.2l-1.6-0.9l-2.3-0.5l-1-1.1l-1.4-0.5l-0.5-1.2l-0.7-0.5l-2.2,0.2l-2-0.9l-0.5,0.5l-0.2-0.6l-0.6-0.3l-0.5,0.1l-0.5,0.8
		l-0.7-1.2l0.1-1.2l0.6-0.4l0.1-0.9l-6.3,6.2l-0.4,13l3.2,1.2l0.2,1.3l1.8,1.9l23.9-0.3l3.8-6.7L613.8,682.8z M623,676.9l1.8,0.4
		l-4.5,5.5l-1.6,5.1l-2.6-2.1l0.5,3.8l1.2,0.4l8-13.6L623,676.9z"/>
	<polygon class="st1" points="621.9,672.8 617.2,665.1 615.6,665.9 617,664.7 616.1,663.8 616,663 615.1,662.5 614.9,661.8 
		614.4,662.1 613.8,661.6 614,661.1 613.7,660.1 613.3,660.1 613.4,661.2 612.7,660.7 612.3,661.2 610.9,660.3 610.3,661 
		609.7,660.7 609.9,661.3 609.7,661.9 608.5,661.4 608.5,660.3 607.4,660.3 607.5,659.6 606.3,659.1 606.2,658.2 605,658.8 
		604.4,659.6 604,659.1 603.3,659 602.1,660.8 590,658.2 586.1,661.4 586.1,664.2 587.3,665.4 588.4,665.5 589.5,665 590.1,665.3 
		590.6,665.9 590.5,667.3 590.4,668.1 589.8,668.6 589.6,669.8 590.4,671 590.9,670.2 591.4,670.1 592,670.4 592.2,671 592.7,670.5 
		594.6,671.4 596.9,671.2 597.6,671.7 598,672.9 599.4,673.4 600.4,674.5 602.7,675 604.4,675.8 604.8,675.7 603.8,674.6 605,673.9 
		605.8,675.1 612.1,674 611.3,675.8 615,674.2 618.3,676.3 616.7,676.8 619.1,677.3 622.9,671.8 	"/>
	<path class="st1" d="M622.8,652.9l-0.4,1.4l1.2,1.2h0.5l1.4,1l1.7,0.1l-0.5,3.3l2.8,1.2l1.6-3.8l-1.6-1.3l2.9-2.5l-1.8,7.6l6.9-5.2
		l0.5-3.2l0.3-2.2L622.8,652.9z M631.2,664.8l-1.6,2.4l1.1,0.9l-3.5,3.7l-1.2,3.9l9.2-11.1l0.8-2.8l-1.7-1.6L631.2,664.8z
		 M627.1,661.5l-4.5,2.9l-5.3,0.7l4.7,7.6l1-1l4.3-5.6L627.1,661.5z"/>
	<path class="st1" d="M651,642.7l-2.1-0.5l3.6-2l-3.8-3.6l-2.1,0.8l0.2-3.5l-2.5-3l0.6-1.9l-0.6-0.5l-0.2,0.6l0.4,0.9l-3.2,1.9
		l-6.4,2l-3.1,2.2l1.1,1.9l-0.2,1.1l0.4,1.3l2.6,1.9l0.4,1l1,1l1.2-0.9l-1.7-0.2l1.7-1.5l2.2,4l1.7,0.4l0.1,3l1.9,1.8l12.7-6.9
		l-4-3.5L651,642.7z M656.4,628.8l-1.4,1.2l-6-0.2l-0.5,0.5v3l2.8-0.7v2.2l1.3,0.5l1.4-3.1l0.8,3.2l-2.5,2.1l5.5-2.8l-2-1.5
		L656.4,628.8z M657,631.4l1.3,2.8l1.8-0.9l0.1-2L657,631.4z M653.6,649.9l-3.3,0.4l-9.7,7.2l-3.1,0.6l-1.5,5.7l20.6-14.9l-1.2-2.4
		L653.6,649.9z M637.6,656l1.2-1l-0.7-2.2L637.6,656z"/>
	<path class="st1" d="M751.5,581.3h-1.2l-1.2,1.7l-1.1,0.1l-2.5,1l-1-0.3l1.1,0.5l1.9-0.6l-1.5,2.1l-3.4-0.8l-5.1,3.1l-4.9,5l0.9,1
		l4-3.7l14.4-6.4L751.5,581.3z M719.4,603.2l5.4-7l2.5,0.9l0.3-4.6l3.6,1.2l-3.6-1.5l-1.2-2.6l0.2,1.5l-1.8-0.2l0.4-2.2l-1.8,0.2
		l3.4-2.2l-4.8-3.2l-2.4-0.3l-1,1.1l-1,0.5l-0.3,0.8l-2.2,0.7l-0.6-0.2l-0.9-1.3L713,583l-0.6,0.1l-0.9,5l8.3,14.6L719.4,603.2z
		 M726.6,599.8l-9,8.7l16.8-12l-0.9-1.2L726.6,599.8z"/>
</g>
<path class="st9" d="M265.1,449.1h38.6c-45.3-48.3-91.7-97.2-195.8-138.4l-1.1,43.8c76.2,24.6,119,58.6,155.9,94.8
	C263.4,449.1,264.2,449.1,265.1,449.1z"/>
<path class="st9" d="M631.1,389.6c-22.2-75.2-66.2-94.8-106.6-78.9l5.5,11.8c45.3-10.8,70.9,56.1,81.2,92.8
	C631.6,487.3,566.7,599,464.2,569c-20.8,0.6-41.7,0.1-62.5-0.5c1.7,1,3.4,1.9,5.1,2.9C545.2,646,663.1,497.8,631.1,389.6z"/>
<path class="st9" d="M525.5,436c-27.1-43.2-30.7-101.9,4.5-113.5l-5.5-11.8c-27.5,8.7-42.8,31.3-45.2,60.1
	c-3.2,38.6,15.5,72.4,32.5,97.7c9.7,14.4,19.5,25.1,26.6,32.2c-3.3-5.8-3.3-5.8-9.8-17.5c6.6,11.7,6.6,11.7,9.8,17.5
	C609.2,576,699,595.6,777,595.6l6.3-32.2C627.5,557.9,574.2,513.5,525.5,436z"/>
<polygon class="st9" points="791.2,567.1 786.5,592.8 813.2,581.5 "/>
</svg>
