<?xml version="1.0" encoding="utf-8"?>
<!-- Generator: Adobe Illustrator 24.1.3, SVG Export Plug-In . SVG Version: 6.00 Build 0)  -->
<svg version="1.1" id="Layer_1" xmlns="http://www.w3.org/2000/svg" xmlns:xlink="http://www.w3.org/1999/xlink" x="0px" y="0px"
	 viewBox="0 0 805.3 709.1" style="enable-background:new 0 0 805.3 709.1;" xml:space="preserve">
<style type="text/css">
	.st0{fill-rule:evenodd;clip-rule:evenodd;fill:#8FC7C6;stroke:#282828;stroke-width:0.25;stroke-miterlimit:10;}
	
		.st1{opacity:0.4;fill-rule:evenodd;clip-rule:evenodd;fill:#8FC7C6;stroke:#282828;stroke-width:0.25;stroke-miterlimit:10;enable-background:new    ;}
	
		.st2{opacity:0.8;fill-rule:evenodd;clip-rule:evenodd;fill:#8FC7C6;stroke:#282828;stroke-width:0.25;stroke-miterlimit:10;enable-background:new    ;}
	
		.st3{opacity:0.2;fill-rule:evenodd;clip-rule:evenodd;fill:#8FC7C6;stroke:#282828;stroke-width:0.25;stroke-miterlimit:10;enable-background:new    ;}
	
		.st4{opacity:0.5;fill-rule:evenodd;clip-rule:evenodd;fill:#8FC7C6;stroke:#282828;stroke-width:0.25;stroke-miterlimit:10;enable-background:new    ;}
	
		.st5{opacity:0.3;fill-rule:evenodd;clip-rule:evenodd;fill:#8FC7C6;stroke:#282828;stroke-width:0.25;stroke-miterlimit:10;enable-background:new    ;}
	
		.st6{opacity:0.89;fill-rule:evenodd;clip-rule:evenodd;fill:#8FC7C6;stroke:#282828;stroke-width:0.25;stroke-miterlimit:10;enable-background:new    ;}
	
		.st7{opacity:0.7;fill-rule:evenodd;clip-rule:evenodd;fill:#8FC7C6;stroke:#282828;stroke-width:0.25;stroke-miterlimit:10;enable-background:new    ;}
	.st8{fill:#AD2833;}
</style>
<g>
	<polygon class="st0" points="504.3,234.6 504.1,214.1 504,200.9 504.7,200 505.4,199.7 505.8,198.1 507.3,196.6 508.8,196.7 
		510.8,197.7 515.7,198.1 517.4,196.8 518.4,196.2 519.4,197 518.6,200.7 519.8,204.3 521.2,205.2 522.7,205.4 524.7,204.6 
		526.2,206.3 526.3,206.9 525.6,207.6 526.2,208.5 525,209.6 525,210.2 524.8,234.7 	"/>
	<polygon class="st0" points="524.8,234.7 525,210.2 526,211.3 528.1,211.8 530,212.9 530.8,212.7 533.7,210.9 535.3,208.5 
		536.6,208.1 537.8,206.3 539.3,205.3 542.7,206.4 543,209.3 543.8,210.2 544.8,210.1 546.5,209.4 548.4,209.9 548.4,236.7 
		527.6,236.5 524.9,236.4 	"/>
	<polygon class="st1" points="600.3,238.3 578.9,238.8 578.9,237.4 573.9,237.2 573.9,207.6 574.3,206.8 575.7,207.5 576.4,208.9 
		576.6,211.2 577.5,212.5 578.3,212.7 579.7,211.9 580.5,212 582.8,214.2 584.5,214.1 585.4,213.3 586.1,210.1 586.6,209.6 
		590.5,210.5 589.1,212.4 589.7,213.6 591.6,214.6 594,215.1 594.4,216.7 595.1,217.2 598.3,216.7 600.6,219.4 	"/>
	<polygon class="st0" points="573.9,237.2 553,236.7 548.4,236.7 548.4,209.9 549.1,210.2 549.4,210.9 549.6,213.9 551.6,214.8 
		553.8,214.2 554.8,212.5 556.1,212 556.1,210.6 558.1,211.9 558.5,212.7 559.1,211.8 559.4,210.6 561,210 562.1,210.4 563.2,212.4 
		563,213.3 561.8,213.9 561.1,214.9 562,218.7 563.8,220 565.5,220.2 566.7,219.9 567,219.2 566.8,215.6 568.6,214.7 567.3,213.8 
		567.1,213.1 567.6,212.8 569.7,213.7 570.7,213.1 571.5,211.7 571.5,207.8 572.4,208.2 573.9,207.6 	"/>
	<polygon class="st0" points="650.9,239.6 648.7,239 646.2,237.2 636.2,233.8 633,234 631.1,233.3 629,233.3 625,234.8 625.3,213.7 
		626.2,213.6 627.6,212.3 628.9,213.1 629.1,211.5 629.3,210.7 629.9,210.1 632.2,210.6 635.3,209.2 636.2,209.2 636.2,208.2 
		636.6,207.8 638.6,208.3 639.4,210.1 640.6,209.9 640.3,210.4 639.3,210.7 639.5,211.1 641,210.4 641.6,211.3 643.1,211.1 
		643.8,212.3 649.6,212 649.3,210.5 650.9,211.1 	"/>
	<polygon class="st2" points="600.3,238.3 600.6,219.4 601.6,221.3 603.1,221.6 603.9,220.8 604.4,218.1 604.9,217.5 608,218.4 
		609.2,218.3 610.1,217.7 610.4,216.1 611.4,214.8 610.7,214.6 609.5,215.5 609.4,215.1 610.1,214.3 611,214 612.9,214.3 
		613.7,213.5 615.8,213.7 616.8,212.8 617.4,213.5 617.9,212.8 617.9,211.8 618.3,211.7 619.1,212.7 620,212.3 620.7,210.9 
		621.2,210.8 625.3,213.7 625,234.8 624.9,238 604.5,241.2 600.4,242 	"/>
	<polygon class="st0" points="405.2,239.2 404.9,213.7 426.8,213.7 429.6,213.6 429.7,214.2 430.2,238.9 	"/>
	<polygon class="st3" points="405.2,239.2 393.6,238.8 380.5,239.1 380.4,213.9 404.9,213.7 	"/>
	<polygon class="st0" points="356.1,239.2 356.1,214 380.4,213.9 380.5,239.1 	"/>
	<polygon class="st4" points="332.1,239.2 331.7,214.1 356.1,214 356.1,239.2 	"/>
	<polygon class="st0" points="504.2,238.7 479,238.7 479,214.1 504.1,214.1 504.3,234.6 	"/>
	<polygon class="st0" points="332.1,239.2 307.8,239.6 307,214.3 331.7,214.1 	"/>
	<polygon class="st0" points="430.2,238.9 429.7,214.2 437.3,214.1 438,215.2 438.7,214.8 440.5,215.2 441.3,214.8 441.4,216.1 
		442.1,215.5 442.6,216 443,215.1 443.3,216.1 443.7,216.1 444.1,214.6 445.4,215.3 446.1,215 448.4,216.1 448.9,216.8 449.5,215.9 
		450,216.5 451,216.2 451.1,216.9 452.1,216.9 452.2,217.6 453.5,217.8 454,219.2 454.7,219.9 454.7,238.7 	"/>
	<polygon class="st1" points="479,238.7 454.7,238.7 454.7,219.9 454.6,214.4 479,214.1 	"/>
	<polygon class="st0" points="307.6,239.6 286.4,239.9 286.6,229.2 286.9,214.5 307,214.3 307.8,239.6 	"/>
	<polygon class="st0" points="624.8,248.4 624.9,238 625,234.8 629,233.3 631.1,233.3 633,234 636.2,233.8 646.2,237.2 648.7,239 
		650.9,239.6 650.9,239.6 650.3,240.3 648.8,240.8 645.7,240.2 643.4,241.2 641.1,241.6 637.1,241.1 634.3,243.5 633.3,244 
		631.7,243.8 629.7,244.6 627.8,247.2 	"/>
	<polygon class="st0" points="504.1,260.7 504.2,238.7 504.3,234.6 524.8,234.7 524.9,236.4 527.6,236.5 527.8,261 521.4,261 	"/>
	<polygon class="st2" points="527.8,261 527.6,236.5 548.4,236.7 553,236.7 552.6,261.3 545.5,261.2 	"/>
	<polygon class="st3" points="578.5,261.4 569.5,261.4 569.6,261.7 552.6,261.3 553,236.7 573.9,237.2 578.9,237.4 578.9,238.8 	"/>
	<polygon class="st0" points="624.4,261.9 621,261.9 619.3,267 619.6,268.2 620.8,269.5 614.3,269.7 604.2,269.4 604.4,261.9 
		604.5,241.2 624.9,238 624.8,248.4 	"/>
	<polygon class="st0" points="578.5,261.4 578.9,238.8 600.3,238.3 600.4,242 604.5,241.2 604.4,261.9 593.6,261.7 	"/>
	<polygon class="st4" points="430.2,263.4 430.2,238.9 454.7,238.7 454.8,263.3 448.2,263.4 	"/>
	<polygon class="st0" points="472.2,263.6 454.8,263.3 454.7,238.7 479,238.7 479,263.6 	"/>
	<polygon class="st0" points="497.2,263.8 479,263.6 479,238.7 504.2,238.7 504.1,260.7 504.1,263.7 	"/>
	<polygon class="st1" points="380.6,263.6 380.5,239.1 393.6,238.8 405.2,239.2 405.1,263.5 398.6,263.5 	"/>
	<polygon class="st0" points="405.1,263.5 405.2,239.2 430.2,238.9 430.2,263.4 422.7,263.4 	"/>
	<polygon class="st2" points="374.4,263.8 356.2,263.6 356.1,239.2 380.5,239.1 380.6,263.6 	"/>
	<polygon class="st0" points="350.3,263.6 332.1,263.6 332.1,239.2 356.1,239.2 356.2,263.6 	"/>
	<polygon class="st0" points="326.3,263.7 307.8,263.8 307.6,239.6 307.8,239.6 332.1,239.2 332.1,263.6 	"/>
	<polygon class="st4" points="307.8,263.8 286.1,263.7 286.4,239.9 307.6,239.6 	"/>
	<polygon class="st0" points="650.5,262.9 634,262.8 633.9,262 624.4,261.9 624.8,248.4 627.8,247.2 629.7,244.6 631.7,243.8 
		633.3,244 634.3,243.5 637.1,241.1 641.1,241.6 643.4,241.2 645.7,240.2 648.8,240.8 650.3,240.3 650.9,239.6 	"/>
	<polygon class="st5" points="637.3,278.4 636.5,277.3 635.6,276.8 634,262.8 650.5,262.9 657.2,263 658.1,260.3 658.1,265.9 
		657.8,285.2 656.1,286.6 655,285.5 651.8,285.1 651.2,284.2 649.8,283.5 646.7,283.6 641.3,282.5 640.4,280.8 	"/>
	<polygon class="st0" points="496.8,287.9 497.2,263.8 504.1,263.7 504.1,260.7 521.4,261 521,285.8 520.9,288 501.7,287.9 	"/>
	<polygon class="st0" points="521,285.8 521.4,261 527.8,261 545.5,261.2 545.2,285.8 541.9,286 	"/>
	<polygon class="st3" points="569.5,285.9 566.7,285.9 545.2,285.8 545.5,261.2 552.6,261.3 569.6,261.7 	"/>
	<polygon class="st6" points="569.5,285.9 569.6,261.7 569.5,261.4 578.5,261.4 593.6,261.7 593.6,271.1 593.6,286.1 592.8,286.2 	
		"/>
	<polygon class="st0" points="604.2,269.4 604.2,270.9 593.6,271.1 593.6,261.7 604.4,261.9 	"/>
	<polygon class="st0" points="635.6,276.8 633.8,276.7 631.5,275.1 629.3,274.4 628.3,273.4 624.7,273.5 622.1,271.8 620.8,269.5 
		619.6,268.2 619.3,267 621,261.9 624.4,261.9 633.9,262 634,262.8 	"/>
	<polygon class="st2" points="472.1,287.8 471.4,287.8 447.7,288.1 448.2,263.4 454.8,263.3 472.2,263.6 	"/>
	<polygon class="st0" points="447.2,288.1 447.1,287.8 422.6,288 422.7,263.4 430.2,263.4 448.2,263.4 447.7,288.1 	"/>
	<polygon class="st3" points="422.6,288 398.4,287.9 398.6,263.5 405.1,263.5 422.7,263.4 	"/>
	<polygon class="st7" points="398.4,287.9 374.2,287.8 374.4,263.8 380.6,263.6 398.6,263.5 	"/>
	<polygon class="st5" points="374.2,287.8 350.1,287.8 350.3,263.6 356.2,263.6 374.4,263.8 	"/>
	<polygon class="st6" points="350.1,287.8 325.8,287.8 326.3,263.7 332.1,263.6 350.3,263.6 	"/>
	<polygon class="st2" points="496.8,287.9 472.1,287.8 472.2,263.6 479,263.6 497.2,263.8 	"/>
	<polygon class="st0" points="285.6,288.2 286.1,263.7 307.8,263.8 326.3,263.7 325.8,287.8 	"/>
	<polygon class="st0" points="596.9,296.7 597.3,294 596.6,292.9 594.8,291.3 594.3,290.2 594.2,287.1 593.3,286.9 592.8,286.2 
		593.6,286.1 593.6,271.1 604.2,270.9 604.2,269.4 614.3,269.7 614.6,296.9 	"/>
	<polygon class="st0" points="614.6,296.9 614.3,269.7 620.8,269.5 622.1,271.8 624.7,273.5 628.3,273.4 629.3,274.4 631.5,275.1 
		633.8,276.7 635.6,276.8 636.5,277.3 637.3,278.4 637.4,290.1 638.9,292.1 641.1,293.7 642.2,295.4 644,297 	"/>
	<polygon class="st0" points="665.6,309 643.3,309.2 642.7,308.5 643.3,305.8 642.5,304 643.9,301.2 644,297 642.2,295.4 
		641.1,293.7 638.9,292.1 637.4,290.1 637.3,278.4 640.4,280.8 641.3,282.5 646.7,283.6 649.8,283.5 651.2,284.2 651.8,285.1 
		655,285.5 656.1,286.6 657.8,285.2 658.8,286.4 661,286 661.7,286.7 663.7,286.8 664,286.3 664.8,287.6 665.5,287.1 665.6,296.4 	
		"/>
	<polygon class="st0" points="542,305.3 542,299 541.9,286 545.2,285.8 566.7,285.9 566.9,301.6 549.1,306.4 549,306.8 547.3,307.5 
		547.3,308.7 546.3,308.9 544.5,308.4 544.1,306.6 542.9,306.7 543.5,305.7 543.3,305.4 	"/>
	<polygon class="st0" points="526.5,303.6 520.9,288 521,285.8 541.9,286 542,299 534.1,299 	"/>
	<polygon class="st6" points="566.9,301.6 566.7,285.9 569.5,285.9 592.8,286.2 593.3,286.9 594.2,287.1 594.3,290.2 594.8,291.3 
		596.6,292.9 597.3,294 596.9,296.7 597.7,298 598.6,298 599.3,298.6 575.7,312.2 573.8,313.2 	"/>
	<polygon class="st7" points="447.2,312.3 443.3,312.2 422.3,312.3 422.6,288 447.1,287.8 447.2,288.1 	"/>
	<polygon class="st0" points="370,311.9 349.9,311.9 350.1,287.8 374.2,287.8 374.5,311.8 	"/>
	<polygon class="st3" points="398.1,312.1 391.3,312.2 374.5,311.8 374.2,287.8 398.4,287.9 	"/>
	<polygon class="st0" points="471,312.3 471.4,287.8 472.1,287.8 496.8,287.9 501.7,287.9 501.8,300.1 497.8,302.5 489.4,307.3 
		488.2,307.5 487.8,308.1 480.3,312.4 	"/>
	<polygon class="st0" points="467.6,312.3 447.2,312.3 447.2,288.1 447.7,288.1 471.4,287.8 471,312.3 	"/>
	<polygon class="st1" points="346.1,312 325.5,312.1 325.8,287.8 350.1,287.8 349.9,311.9 	"/>
	<polygon class="st2" points="285.6,288.2 325.8,287.8 325.5,312.1 321.8,312.2 298.1,312.2 285.8,312.2 	"/>
	<polygon class="st5" points="422.3,312.3 418.6,312.3 398.1,312.1 398.4,287.9 422.6,288 	"/>
	<polygon class="st2" points="523.6,315.7 514.2,321.5 512,317.9 508.5,320 497.8,302.5 501.8,300.1 501.7,287.9 520.9,288 
		526.5,303.6 526.5,304.1 530.2,311.7 	"/>
	<polygon class="st5" points="644.8,312.3 615.7,316.1 615.1,315.1 615.3,313.6 615.1,312.1 613.3,312 612.7,311.3 613.1,308.1 
		612.6,307.6 611.7,308.1 611.2,307.9 610.1,307 611.1,304.7 609.2,305.3 609.1,304.4 608.4,304.6 606.5,302.7 605.7,303 
		604.6,302.2 604.6,300.7 604.1,300 602.6,300 599.9,298.4 599.3,298.6 598.6,298 597.7,298 596.9,296.7 614.6,296.9 644,297 
		643.9,301.2 642.5,304 643.3,305.8 642.7,308.5 643.3,309.2 643.4,310.5 	"/>
	<polygon class="st0" points="594.4,327.7 584,326.7 575.7,312.2 599.3,298.6 599.9,298.4 602.6,300 604.1,300 604.6,300.7 
		604.6,302.2 605.7,303 606.5,302.7 608.4,304.6 609.1,304.4 609.2,305.3 611.1,304.7 610.1,307 611.2,307.9 611.7,308.1 
		612.6,307.6 613.1,308.1 612.7,311.3 613.3,312 615.1,312.1 615.3,313.6 615.1,315.1 615.7,316.1 	"/>
	<polygon class="st0" points="530.2,311.7 526.5,304.1 526.5,303.6 534.1,299 542,299 542,305.3 541.4,305 	"/>
	<polygon class="st0" points="557.9,330.6 556.2,329.8 555.9,328.7 557.6,326.7 557.7,325.8 555.3,325.6 554.7,324.8 553.2,324.1 
		553.4,322.7 550.9,320.6 551.3,319.7 552.8,318.2 551.4,317 550.4,315.6 548.7,315.9 548,315.1 547.6,314 548.4,311.5 547.8,309.6 
		549.4,308 549,306.8 549.1,306.4 566.9,301.6 573.8,313.2 575.7,312.2 584,326.7 574.1,332.4 569.1,324.4 	"/>
	<polygon class="st3" points="502.1,334.1 500.5,332.1 492.2,333.3 480.3,312.4 487.8,308.1 488.2,307.5 489.4,307.3 497.8,302.5 
		508.5,320 512,317.9 514.2,321.5 516.4,325.6 	"/>
	<polygon class="st3" points="535.2,334.7 523.6,315.7 530.2,311.7 541.4,305 542,305.3 543.3,305.4 543.5,305.7 542.9,306.7 
		544.1,306.6 544.5,308.4 546.3,308.9 547.3,308.7 547.3,307.5 549,306.8 549.4,308 547.8,309.6 548.4,311.5 547.6,314 548,315.1 
		548.7,315.9 550.4,315.6 551.4,317 552.8,318.2 551.3,319.7 550.9,320.6 553.4,322.7 553.2,324.1 554.7,324.8 555.3,325.6 
		557.7,325.8 557.6,326.7 555.9,328.7 556.2,329.8 557.9,330.6 542.6,339.5 538.4,333 	"/>
	<polygon class="st0" points="671.1,342.9 665.1,348 663.1,347.5 662.4,346.4 660.3,345.8 660.1,345.3 660.5,344 658.5,341.7 
		658.4,340.7 656.8,339.9 654.9,340.4 653.6,340.3 652.7,339.6 652.5,339.1 652.6,337.8 651.7,337 651.6,334.7 649.7,332.6 
		649.1,332.7 649.2,331.8 648.2,331.9 648.1,330.8 646.9,330.3 646.5,328.1 645.7,326.4 644.4,325.6 644.6,324.2 644.4,322.8 
		645.1,320.9 643.9,319.6 643.9,317.8 645.1,316.2 644.7,315.5 645.1,314.5 644.8,312.3 643.4,310.5 643.3,309.2 665.6,309 
		665.8,318.2 666.1,319.3 665.6,320.6 665.7,325.2 666.1,328.7 668.1,330 668,330.4 667.1,330.7 666.8,331.4 667.7,336.1 
		669.1,340.3 669.3,340.6 670.1,340.4 670.2,342 	"/>
	<polygon class="st0" points="369.9,336.1 370,311.9 374.5,311.8 391.3,312.2 390.8,333.4 389.1,333.5 388.9,340.8 369.8,341 	"/>
	<polygon class="st0" points="369.9,336.1 346.2,336.2 346.1,312 349.9,311.9 370,311.9 	"/>
	<polygon class="st0" points="346.2,336.2 321.8,336.2 321.8,312.2 325.5,312.1 346.1,312 	"/>
	<polygon class="st0" points="418.7,333.7 390.8,333.4 391.3,312.2 398.1,312.1 418.6,312.3 	"/>
	<polygon class="st0" points="297.8,336.2 272.2,335.9 272.8,316.7 285.7,316.8 285.8,312.2 298.1,312.2 	"/>
	<polygon class="st5" points="297.8,336.2 298.1,312.2 321.8,312.2 321.8,336.2 321.2,336 299.4,336.2 	"/>
	<polygon class="st0" points="424.3,339.9 418.8,339.8 418.7,333.7 418.6,312.3 422.3,312.3 443.3,312.2 443.1,340.3 442.7,340.3 	
		"/>
	<polygon class="st0" points="467.1,346.2 466.8,346.3 465.9,345.4 465.1,345.7 463.6,347.3 463.1,347.3 463.2,348.3 462.4,348.2 
		462.3,349 461.9,349.4 460.4,348.8 460.5,347.7 459.5,348 458.7,347.5 457.8,347.6 457.4,347 457.6,346.3 455.9,345.8 455.4,346.5 
		455.8,347.3 455,347.6 454.6,348.6 453.3,347.6 452.8,348.6 452.4,348.2 451.4,345.7 449.8,345.1 448.5,345.1 447.3,344.6 
		447.1,345 447.9,345.9 447.1,346.2 446,344.8 445.1,344.6 445.2,343.6 445.8,343.4 446,342.7 445.6,342.4 444.3,342.7 444.5,342.1 
		445.2,341.7 444.3,341.6 443.8,340.5 443.2,341.2 442.7,340.3 443.1,340.3 443.3,312.2 447.2,312.3 467.6,312.3 	"/>
	<polygon class="st0" points="467.1,346.2 467.6,312.3 471,312.3 480.3,312.4 492.2,333.3 488,334.1 486.9,338.5 477.4,345.3 
		475.9,346.2 475.1,345.3 474.4,345.2 473.9,346.3 473.4,346.1 473.1,346.7 472.3,346.9 472.3,347.3 471.5,346.3 471,346.9 
		468.9,346.2 468.3,346.7 467.8,345.9 	"/>
	<polygon class="st0" points="630.5,343.7 629.4,342.4 629.7,341.5 631.2,341 630.8,339.9 631.6,339 631.6,337.3 630.9,336.3 
		630.2,336.2 629.5,336.4 629.4,338.6 628.8,338.7 627.9,337.7 627.8,335.8 628.3,334 627.8,333.8 627.4,334.6 626.3,333.7 
		624.3,333.7 624.2,331.9 623.7,331.3 624.2,330.7 623.1,330.3 623.1,329.7 621.7,329.7 619.2,328.4 619.2,326.7 618.6,325.3 
		619.7,323.7 619,323.5 618.4,323.9 617,323.5 616.8,323 618,321.8 618.1,321.2 617.3,319.5 615.6,319.4 615.5,318.9 616,318.7 
		615.5,317.7 615.7,316.1 644.8,312.3 645.1,314.5 644.7,315.5 645.1,316.2 643.9,317.8 643.9,319.6 645.1,320.9 644.4,322.8 
		644.6,324.2 644.4,325.6 645.7,326.4 646.5,328.1 646.9,330.3 648.1,330.8 648.2,331.9 649.2,331.8 649.1,332.7 649.7,332.6 
		651.6,334.7 651.7,337 652.6,337.8 652.5,339.1 634.2,342.2 634.2,343 	"/>
	<polygon class="st0" points="515.4,346.6 511.6,348.8 502.1,334.1 516.4,325.6 514.2,321.5 523.6,315.7 535.2,334.7 	"/>
	<polygon class="st0" points="607,349 594.4,327.7 615.7,316.1 615.5,317.7 616,318.7 615.5,318.9 615.6,319.4 617.3,319.5 
		618.1,321.2 618,321.8 616.8,323 617,323.5 618.4,323.9 619,323.5 619.7,323.7 618.6,325.3 619.2,326.7 619.2,328.4 621.7,329.7 
		623.1,329.7 623.1,330.3 624.2,330.7 623.7,331.3 624.2,331.9 624.3,333.7 626.3,333.7 627.4,334.6 627.8,333.8 628.3,334 
		627.8,335.8 627.9,337.7 	"/>
	<polygon class="st4" points="551.1,354 542.6,339.5 557.9,330.6 569.1,324.4 574.1,332.4 580.3,343.1 558,356.6 554.9,358.3 	"/>
	<polygon class="st0" points="603,352 589.9,359.5 580.3,343.1 574.1,332.4 584,326.7 594.4,327.7 607,349 602.9,351.4 	"/>
	<polygon class="st0" points="497.2,359.2 496.5,357.7 495.5,357.9 494.2,356.8 495.6,356.4 495.9,354.1 494.4,354.9 494,354.5 
		494.4,354.3 494.1,353.9 493.3,354.7 493.1,354.2 493.5,353.9 493.3,353.3 493.7,352.5 493.1,352.3 492.9,351.8 490.6,353.3 
		490.3,352.8 491,350.4 490.6,349.7 489.6,349.6 489.7,349 489.3,348.4 488.3,349.6 488.2,350.8 487.1,351.1 487.1,349.7 
		485.6,349.7 485.3,349.2 483.9,349.2 482.5,347.8 480.2,348.1 480,347.4 479.3,347 478.2,347.8 478.2,347.1 477.2,346.4 
		477.4,345.3 486.9,338.5 488,334.1 492.2,333.3 500.5,332.1 502.1,334.1 511.6,348.8 511.6,349.2 	"/>
	<polygon class="st3" points="528.2,368.1 515.4,346.6 535.2,334.7 538.4,333 542.6,339.5 551.1,354 	"/>
	<polygon class="st0" points="424.3,367.3 397.4,367.4 397.1,342.8 369.8,343.1 369.8,341 388.9,340.8 389.1,333.5 390.8,333.4 
		418.7,333.7 418.8,339.8 424.3,339.9 	"/>
	<polygon class="st0" points="287.6,351.3 286.2,350.7 284.8,351.9 279.5,351.4 276.7,350.2 276,348.3 275.3,348.8 272.8,348.8 
		270.6,348.7 269.8,347.8 268.7,348.2 268.1,347.8 267.4,348.1 266.6,347.8 265.6,346.9 265.6,345.1 264.7,343.4 265.3,342.7 
		264.2,339.9 264.9,338.9 264.4,338.2 264.6,337.4 263.5,337.1 263.1,336.5 262.5,336.3 261.8,336.8 260,336 272.2,335.9 
		297.8,336.2 299.4,336.2 299.3,355.8 296.6,357.5 295.8,356.3 294.6,355.7 294.1,354.5 291.7,353.1 288.8,352.4 	"/>
	<polygon class="st0" points="321.2,367.4 317.2,367.4 315.5,365.5 315.5,362.4 315,360.8 311.7,358.1 309.5,357.5 307.7,357.6 
		307.2,356.4 305.9,356.1 305.8,355.4 304.7,354.9 304.5,354.2 303.5,354.3 301.6,355.6 301.3,356.5 300.8,356.7 300.4,356.8 
		300,356 299.3,355.8 299.4,336.2 321.2,336 	"/>
	<polygon class="st0" points="346.2,367.3 321.2,367.4 321.2,336 321.8,336.2 346.2,336.2 	"/>
	<polygon class="st5" points="346.2,367.3 346.2,336.2 369.9,336.1 369.8,341 369.8,343.1 369.6,367.4 	"/>
	<polygon class="st1" points="629,366.5 619.1,366.9 617.4,367.9 615.1,368.4 609.7,372.2 606.6,373.2 606.6,372.4 605.8,371.2 
		606.2,369.1 605,367.4 604.9,365.6 604.4,365.1 602.7,357.6 603.4,356.9 602.9,356.2 602.9,354.6 603.3,353.6 603,352 602.9,351.4 
		607,349 627.9,337.7 628.8,338.7 629.4,338.6 629.5,336.4 630.2,336.2 630.9,336.3 631.6,337.3 631.6,339 630.8,339.9 631.2,341 
		629.7,341.5 629.4,342.4 630.5,343.7 630.1,344.8 631,345.5 630.9,345.9 630.3,345.9 630.1,346.5 630.4,346.8 630.8,346.4 
		631.3,346.6 632.3,350.8 632.7,351.6 633.9,352.1 633.2,352.9 634.1,353.2 634.3,354.1 633.4,354.5 633.3,355.9 632.1,355.7 
		631.1,357.1 631,358.9 630.2,360 630,361.2 630.6,363.3 629.6,363.6 628.4,364.8 	"/>
	<polygon class="st2" points="644.4,368.9 635.6,375.8 634.8,375.6 633.3,372.7 634,371.3 633.9,370.4 634.7,369.9 635.6,370 
		635.4,369.1 634.6,368.8 634.3,367.6 633.2,367.9 630.9,367.5 629.4,367.1 629,366.5 628.4,364.8 629.6,363.6 630.6,363.3 
		630,361.2 630.2,360 631,358.9 631.1,357.1 632.1,355.7 633.3,355.9 633.4,354.5 634.3,354.1 634.1,353.2 633.2,352.9 633.9,352.1 
		632.7,351.6 632.3,350.8 631.3,346.6 630.8,346.4 630.4,346.8 630.1,346.5 630.3,345.9 630.9,345.9 631,345.5 630.1,344.8 
		630.5,343.7 634.2,343 634.2,342.2 652.5,339.1 652.7,339.6 653.6,340.3 654.9,340.4 656.8,339.9 658.4,340.7 658.5,341.7 
		660.5,344 660.1,345.3 660.3,345.8 662.4,346.4 663.1,347.5 665.1,348 665.3,348.7 667,350.5 666.9,351 	"/>
	<polygon class="st2" points="448.5,367.3 424.3,367.3 424.3,339.9 442.7,340.3 443.2,341.2 443.8,340.5 444.3,341.6 445.2,341.7 
		444.5,342.1 444.3,342.7 445.6,342.4 446,342.7 445.8,343.4 445.2,343.6 445.1,344.6 446,344.8 447.1,346.2 447.9,345.9 447.1,345 
		447.3,344.6 448.5,345.1 	"/>
	<polygon class="st4" points="397.4,367.4 384.4,367.5 369.6,367.4 369.8,343.1 397.1,342.8 	"/>
	<polygon class="st0" points="567.2,372.3 558,356.6 580.3,343.1 589.9,359.5 579,366 578.7,365.6 	"/>
	<polygon class="st1" points="454.2,375.4 448.5,375.3 448.5,367.3 448.5,345.1 449.8,345.1 451.4,345.7 452.4,348.2 452.8,348.6 
		453.3,347.6 454.6,348.6 455,347.6 455.8,347.3 455.4,346.5 455.9,345.8 457.6,346.3 457.4,347 457.8,347.6 458.7,347.5 459.5,348 
		460.5,347.7 460.4,348.8 461.9,349.4 462.3,349 462.4,348.2 463.2,348.3 463.1,347.3 463.6,347.3 465.1,345.7 465.9,345.4 
		466.8,346.3 467.1,346.2 467.8,345.9 468.3,346.7 468.9,346.2 471,346.9 471.5,346.3 472.3,347.3 472.6,375.4 	"/>
	<polygon class="st5" points="478.7,376.4 472.5,376.3 472.6,375.4 472.3,347.3 472.3,346.9 473.1,346.7 473.4,346.1 473.9,346.3 
		474.4,345.2 475.1,345.3 475.9,346.2 477.4,345.3 477.2,346.4 478.2,347.1 478.2,347.8 479.3,347 480,347.4 480.2,348.1 
		482.5,347.8 483.9,349.2 485.3,349.2 485.6,349.7 487.1,349.7 487.1,351.1 488.2,350.8 488.3,349.6 489.3,348.4 489.7,349 
		489.6,349.6 490.6,349.7 491,350.4 490.3,352.8 490.6,353.3 492.9,351.8 493.1,352.3 493.7,352.5 493.3,353.3 493.5,353.9 
		493.1,354.2 493.3,354.7 494.1,353.9 494.4,354.3 494,354.5 494.4,354.9 495.9,354.1 495.6,356.4 494.2,356.8 495.5,357.9 
		496.5,357.7 497.2,359.2 497.1,361.2 498.5,361.6 498.6,362.5 499.8,362.9 499.9,363.3 498.9,363.8 498.9,364.8 498.1,365.1 
		498.1,365.3 499.1,366.5 499.5,366.6 500.7,365.7 501.5,365.7 501.6,366.1 502.3,366.2 501.7,366.8 502.4,367.7 501.4,368 
		501.3,368.8 503.3,370.4 502.3,371.2 503,373 502.7,374.7 504.4,375.4 504.4,375.9 503,376.5 	"/>
	<polygon class="st0" points="528,369.8 503.3,370.4 501.3,368.8 501.4,368 502.4,367.7 501.7,366.8 502.3,366.2 501.6,366.1 
		501.5,365.7 500.7,365.7 499.5,366.6 499.1,366.5 498.1,365.3 498.1,365.1 498.9,364.8 498.9,363.8 499.9,363.3 499.8,362.9 
		498.6,362.5 498.5,361.6 497.1,361.2 497.2,359.2 511.6,349.2 511.6,348.8 515.4,346.6 528.2,368.1 	"/>
	<polygon class="st0" points="655.8,381.5 653.9,380.5 653.7,378.2 652.9,377.4 650.5,377.7 650.1,379 649.6,379.2 648.8,378.9 
		648.4,379.5 647.5,379.8 646,379.3 646.2,378.2 646.7,378 645.4,377.2 645.3,375.9 644.4,375.2 644.4,368.9 666.9,351 667.2,353.2 
		669.4,353.6 670.1,355.7 670.8,356.1 670.2,357.9 671.4,358.6 672.4,360.1 672.8,361.9 673.3,362.5 673,364 	"/>
	<polygon class="st0" points="346.9,390.6 328.7,390.7 328.6,393.9 317.9,393.9 318.1,411.3 308.5,411.7 308.3,423.5 267.6,390.4 
		260.8,384.7 287.6,351.3 288.8,352.4 291.7,353.1 294.1,354.5 294.6,355.7 295.8,356.3 296.6,357.5 299.3,355.8 300,356 
		300.4,356.8 300.8,356.7 301.3,356.5 301.6,355.6 303.5,354.3 304.5,354.2 304.7,354.9 305.8,355.4 305.9,356.1 307.2,356.4 
		307.7,357.6 309.5,357.5 311.7,358.1 315,360.8 315.5,362.4 315.5,365.5 317.2,367.4 320.3,368.6 320.6,369.3 321.3,369.4 
		321.6,370 323.8,369.8 326,370.5 326.6,372 327.1,371.4 327.6,371.9 329.8,372.1 330.3,372.6 331.8,372.7 332.8,372.1 336.8,373.2 
		338.2,374.5 338.9,374.7 340.3,376.3 341.6,376.7 341.4,378.8 342.6,379.6 343.2,381 343.8,385.2 344.6,386.6 344.8,388.4 	"/>
	<polygon class="st2" points="588.5,386.6 588.4,385.8 589.1,385 588.9,384.4 588.5,383.8 587.5,383.7 587.8,382 585.5,379.9 
		585.4,376.9 584.1,377.2 582.6,375.9 581.8,373.8 582.6,372.1 581.8,371.8 581.6,369.8 580.8,368.8 579.8,368.6 579,366 
		589.9,359.5 603,352 603.3,353.6 602.9,354.6 602.9,356.2 603.4,356.9 602.7,357.6 604.4,365.1 604.9,365.6 605,367.4 606.2,369.1 
		605.8,371.2 606.6,372.4 606.6,373.2 601.1,376.9 598.6,380.5 596.6,385.8 591.1,388.4 590.1,387.1 	"/>
	<polygon class="st0" points="531.7,376.7 528,369.8 528.2,368.1 551.1,354 554.9,358.3 558,356.6 567.2,372.3 558.5,377.5 
		556,385.3 540.8,378.8 	"/>
	<polygon class="st0" points="572.4,395.9 563.6,401.1 558,386.1 556,385.3 558.5,377.5 567.2,372.3 578.7,365.6 579,366 
		579.8,368.6 580.8,368.8 581.6,369.8 581.8,371.8 582.6,372.1 581.8,373.8 582.6,375.9 584.1,377.2 585.4,376.9 585.5,379.9 
		587.8,382 587.5,383.7 588.5,383.8 588.9,384.4 589.1,385 588.4,385.8 588.5,386.6 	"/>
	<polygon class="st0" points="624.5,379.4 622.3,379.4 616.4,380.5 609.9,381.3 608.4,377.5 608.4,375.2 606.9,374.2 606.6,373.2 
		609.7,372.2 615.1,368.4 617.4,367.9 619.1,366.9 629,366.5 629.4,367.1 630.9,367.5 633.2,367.9 634.3,367.6 634.6,368.8 
		635.4,369.1 635.6,370 634.7,369.9 633.9,370.4 634,371.3 633.3,372.7 634.8,375.6 635.6,375.8 635.9,376.7 635,377.4 630.6,376.9 
		627.2,379 	"/>
	<polygon class="st1" points="384.6,388.7 384.4,367.5 397.4,367.4 424.3,367.3 424.1,388 424.2,388.9 	"/>
	<polygon class="st0" points="454,387.7 424.1,388 424.3,367.3 448.5,367.3 448.5,375.3 454.2,375.4 	"/>
	<polygon class="st7" points="384.8,411.2 347.2,411.2 347.9,409.5 349.4,408.1 351.9,407.8 351.8,407.4 350,406.1 350,404.9 
		348,403.9 349,402.5 348.4,401.6 348.8,401.3 349.9,401.8 350.3,400.2 351.1,399.4 350.9,398.4 352,397.3 352.4,396.1 351.8,394.7 
		352,392.7 350.2,391.4 347.5,391.2 346.9,390.6 344.8,388.4 344.6,386.6 343.8,385.2 343.2,381 342.6,379.6 341.4,378.8 
		341.6,376.7 340.3,376.3 338.9,374.7 338.2,374.5 336.8,373.2 332.8,372.1 331.8,372.7 330.3,372.6 329.8,372.1 327.6,371.9 
		327.1,371.4 326.6,372 326,370.5 323.8,369.8 321.6,370 321.3,369.4 320.6,369.3 320.3,368.6 317.2,367.4 321.2,367.4 346.2,367.3 
		369.6,367.4 384.4,367.5 384.6,388.7 	"/>
	<polygon class="st0" points="626.2,392.2 624.5,379.4 627.2,379 630.6,376.9 635,377.4 635.9,376.7 635.6,375.8 644.4,368.9 
		644.4,375.2 645.3,375.9 645.4,377.2 646.7,378 646.2,378.2 646,379.3 647.5,379.8 648.4,379.5 648.8,378.9 649.6,379.2 
		648.2,398.5 637,398.4 	"/>
	<polygon class="st6" points="507.4,399.7 507.4,396 506.9,395.5 505.9,395.8 504.9,395.4 504.3,391.7 503.4,390.6 503.7,389.9 
		504.9,389.6 504.7,387.7 505.7,387.4 506.4,386.2 504,385.4 503.6,384.8 503.9,383.1 506,381.4 505.9,381.1 504.2,380.8 504,379.6 
		502.2,378.8 503,376.5 504.4,375.9 504.4,375.4 502.7,374.7 503,373 502.3,371.2 503.3,370.4 528,369.8 531.7,376.7 525.3,384.1 
		521.7,392.1 518,399.6 518.7,399.7 519.2,400.3 517.9,402.9 	"/>
	<polygon class="st0" points="611.3,408.5 611,406.1 609.5,404.9 609,404.9 608.7,405.5 607.5,406.2 605.8,406.6 604,405.6 
		604.4,404.4 605.1,404.1 604.7,402.4 603,401.7 602.3,400.8 602.3,400.2 603.1,400.6 601.1,398.6 601.4,397.4 600.9,396.9 
		600.5,396.8 600.5,397.3 599.9,397 599.5,397.3 598.5,396.4 598,394.4 597.5,395.2 596.3,393.7 595.3,393.4 595.3,392.6 594.6,393 
		593.7,392.2 590,391.7 591.1,388.4 596.6,385.8 598.6,380.5 601.1,376.9 606.6,373.2 606.9,374.2 608.4,375.2 608.4,377.5 
		609.9,381.3 609.7,383.1 610.4,386.5 609.8,393.2 612.4,402 614.3,402.7 614.4,403.4 613.3,403.7 612.7,405.3 611.5,405.6 
		611.7,408 	"/>
	<polygon class="st6" points="478.6,399 462.3,399.2 453.9,399.1 454,387.7 454.2,375.4 472.6,375.4 472.5,376.3 478.7,376.4 	"/>
	<polygon class="st0" points="507.4,399.7 505.5,399.2 496.3,399.2 478.6,399 478.7,376.4 503,376.5 502.2,378.8 504,379.6 
		504.2,380.8 505.9,381.1 506,381.4 503.9,383.1 503.6,384.8 504,385.4 506.4,386.2 505.7,387.4 504.7,387.7 504.9,389.6 
		503.7,389.9 503.4,390.6 504.3,391.7 504.9,395.4 505.9,395.8 506.9,395.5 507.4,396 	"/>
	<polygon class="st0" points="553.3,403.6 552.2,402.6 551.1,402.5 547.3,400.4 545.6,400.9 544.3,399.6 543.3,399.3 538.9,400.5 
		537.8,401.5 535.7,402.2 534.9,403 534.1,402.9 531.1,401 530,397 528.5,395.5 527.5,395.3 527.2,393.4 525.5,392.5 524.2,393.2 
		523.4,392.5 522.7,393.1 521.7,392.1 525.3,384.1 531.7,376.7 540.8,378.8 556,385.3 558,386.1 563.6,401.1 563.6,401.7 
		555.2,404.5 	"/>
	<polygon class="st1" points="627.2,413.4 613.3,414.6 612.8,413.9 613.9,413.6 614.1,410.9 613.6,410.5 613.5,409.7 612.1,409.8 
		611.3,408.5 611.7,408 611.5,405.6 612.7,405.3 613.3,403.7 614.4,403.4 614.3,402.7 612.4,402 609.8,393.2 610.4,386.5 
		609.7,383.1 609.9,381.3 616.4,380.5 622.3,379.4 624.5,379.4 626.2,392.2 627.4,407.7 	"/>
	<polygon class="st3" points="604,405.6 602.2,406.3 601.7,406.1 599.4,407.4 598.7,407.1 598.1,407.9 596.8,407.8 587.5,410.4 
		584.7,409 582.7,408.8 581.7,406.2 580.5,404.8 577.8,403.2 576.5,401.7 575.6,401.4 575.8,400 574.8,397.7 572.4,395.9 
		588.5,386.6 590.1,387.1 591.1,388.4 590,391.7 593.7,392.2 594.6,393 595.3,392.6 595.3,393.4 596.3,393.7 597.5,395.2 598,394.4 
		598.5,396.4 599.5,397.3 599.9,397 600.5,397.3 600.5,396.8 600.9,396.9 601.4,397.4 601.1,398.6 603.1,400.6 602.3,400.2 
		602.3,400.8 603,401.7 604.7,402.4 605.1,404.1 604.4,404.4 	"/>
	<polygon class="st5" points="441,411.2 424,411.1 424.2,388.9 424.1,388 454,387.7 453.9,399.1 462.3,399.2 462.1,411.3 	"/>
	<polygon class="st3" points="397.1,411.2 384.8,411.2 384.6,388.7 424.2,388.9 424,411.1 	"/>
	<polygon class="st4" points="251.3,466.5 251.1,404.7 267.6,390.4 308.3,423.5 317.1,431.1 320.2,433.3 318.2,435.2 317.4,439.4 
		311.8,438.5 309.5,440.4 308.3,438.9 305.5,441.4 303.6,440.7 297.6,452.3 296.8,458.7 293.9,461.9 292.7,466.4 294.7,468.6 
		289,470.6 281.2,482.1 275.8,480.5 275.2,481.7 272.6,478.2 270.7,479.2 266.1,477 263.6,473 254.5,470.6 253.6,468.5 251.6,468.5 
		252.2,465.7 	"/>
	<polygon class="st3" points="346.8,438.4 344.7,438.8 344,436.9 339.1,438.3 336.7,436.7 332.5,438.5 320.2,433.3 317.1,431.1 
		308.3,423.5 308.5,411.7 318.1,411.3 317.9,393.9 328.6,393.9 328.7,390.7 346.9,390.6 347.5,391.2 350.2,391.4 352,392.7 
		351.8,394.7 352.4,396.1 352,397.3 350.9,398.4 351.1,399.4 350.3,400.2 349.9,401.8 348.8,401.3 348.4,401.6 349,402.5 348,403.9 
		350,404.9 350,406.1 351.8,407.4 351.9,407.8 349.4,408.1 347.9,409.5 347.2,411.2 346.9,411.4 	"/>
	<polygon class="st7" points="539.9,422.8 536.7,425.6 515.8,407.8 517.9,402.9 519.2,400.3 518.7,399.7 518,399.6 521.7,392.1 
		522.7,393.1 523.4,392.5 524.2,393.2 525.5,392.5 527.2,393.4 527.5,395.3 528.5,395.5 530,397 531.1,401 534.1,402.9 534.9,403 
		535.7,402.2 537.8,401.5 538.9,400.5 543.3,399.3 544.3,399.6 545.6,400.9 547.3,400.4 551.1,402.5 552.2,402.6 553.3,403.6 
		547.7,415.4 	"/>
	<polygon class="st1" points="660.6,417.6 653,424.5 651.7,424.6 651.5,425.2 650.5,425 649.6,423.6 648.5,422.7 646.4,422 
		644.9,420.6 642.9,421.1 642,420.9 641.1,419 639.5,417.9 638.3,418.2 637.6,419.1 633.4,421.3 631.4,421.2 628.7,422.1 626.9,422 
		627.2,413.4 627.4,407.7 626.2,392.2 637,398.4 648.2,398.5 650.3,404.2 653.5,405.9 655.3,407.4 654.7,409.1 657.5,407.6 	"/>
	<polygon class="st0" points="580.4,417.9 577.8,420.1 569.4,424.7 569.2,423.7 566.7,412.8 562.1,408.6 555.2,404.5 563.6,401.7 
		563.6,401.1 572.4,395.9 574.8,397.7 575.8,400 575.6,401.4 576.5,401.7 577.8,403.2 580.5,404.8 581.7,406.2 582.7,408.8 
		584.7,409 587.5,410.4 586.4,412.1 584.5,413.4 583.1,413.8 582.3,416.3 	"/>
	<polygon class="st0" points="495.9,419.2 480.4,419.3 462.2,419 462.1,411.3 462.3,399.2 478.6,399 496.3,399.2 	"/>
	<polygon class="st5" points="509.6,424.7 504.1,429.7 495.9,419.2 496.3,399.2 505.5,399.2 507.4,399.7 517.9,402.9 515.8,407.8 
		514.1,410.9 	"/>
	<polygon class="st5" points="555.6,438.6 539.9,422.8 547.7,415.4 553.3,403.6 555.2,404.5 562.1,408.6 566.7,412.8 569.2,423.7 
		561.5,432.7 	"/>
	<polygon class="st0" points="610.6,423.2 609.6,423.7 606.5,422.8 605.7,423 605.1,422.6 605,421.5 604.3,421.7 603.9,421.4 
		591.1,423.6 590.6,423.6 589.7,422.9 588.5,423.9 587.6,422.9 588,420.8 586.9,420 587,418.7 585.7,418.9 585.2,417.5 584.5,418.4 
		581.4,419 581.3,418.4 580.4,417.9 582.3,416.3 583.1,413.8 584.5,413.4 586.4,412.1 587.5,410.4 596.8,407.8 598.1,407.9 
		598.7,407.1 599.4,407.4 601.7,406.1 602.2,406.3 604,405.6 605.8,406.6 607.5,406.2 608.7,405.5 609,404.9 609.5,404.9 611,406.1 
		611.3,408.5 612.1,409.8 613.5,409.7 613.6,410.5 614.1,410.9 613.9,413.6 612.8,413.9 613.3,414.6 612.6,415.3 612.3,414.8 
		611.4,415.4 610.6,415.2 609.9,416.3 610.7,419 610.3,419.2 609.6,418.6 609.4,419.3 608.6,419.5 609.1,420.4 608.7,421 610,421.2 
		610.3,421.5 610.1,422.3 610.6,422.2 611.3,422.8 	"/>
	<polygon class="st0" points="523.5,440 522.1,435.3 509.6,424.7 514.1,410.9 515.8,407.8 536.7,425.6 533.3,429.6 531.7,430.3 
		528.5,433 528.2,434.1 527.4,434.5 528.8,434.6 525.9,437 	"/>
	<polygon class="st6" points="429,447.2 424.2,447.1 397.1,447.3 397.1,411.2 424,411.1 441,411.2 440.9,422.5 433.4,422.4 
		433.4,422.1 431,422 430.5,425.5 430.1,425.7 429.5,432.1 428.8,432.6 428.7,433.9 428,434.9 428.5,435.7 428.8,437.9 427.9,439 
		428.2,440.7 427.7,442.2 428.5,444 428.3,445.2 428.9,446.2 	"/>
	<polygon class="st6" points="397.1,447.3 397.1,456.7 396.4,461.3 395.8,462.6 394.8,463.1 394.6,464.6 394.9,465.7 394.5,467 
		394.1,467.1 394.1,467.8 392.6,467.6 392.1,467.8 382.1,460.8 379.4,455.4 370.3,452.5 370.6,447 368,449.5 368.2,445.7 
		365.2,445.4 363,440.6 363.7,439.3 361.5,439.8 360.4,438.3 357.2,439.7 357,437.1 355.2,439.6 352.5,440 346.8,438.4 346.9,411.4 
		347.2,411.2 384.8,411.2 397.1,411.2 	"/>
	<polygon class="st5" points="447.5,431.2 444.3,431.2 444.1,422.6 440.9,422.5 441,411.2 462.1,411.3 462.2,419 480.4,419.3 
		480.1,438.2 468.3,431.7 461.7,431 	"/>
	<polygon class="st0" points="625.8,437.9 620.3,440.8 619.2,440.8 619.2,441.2 615.9,441.2 615.6,437.8 615.3,437.6 614.8,437.9 
		614.3,437.4 613.4,437.2 613.3,436.5 612.6,436.4 612.1,435.6 613.3,434.6 612.6,433.7 613.5,433.4 612.1,432.5 612.3,431.4 
		611.7,430.4 612,429.9 612.8,429.8 612.1,429 613.5,429 613.1,428.4 613.1,427.1 613.7,426.5 613.3,425.7 612.6,425.5 612.5,424.7 
		612,424.1 611,423.8 610.6,423.2 611.3,422.8 610.6,422.2 610.1,422.3 610.3,421.5 610,421.2 608.7,421 609.1,420.4 608.6,419.5 
		609.4,419.3 609.6,418.6 610.3,419.2 610.7,419 609.9,416.3 610.6,415.2 611.4,415.4 612.3,414.8 612.6,415.3 613.3,414.6 
		627.2,413.4 626.9,422 626.2,422.5 625.3,422.2 623.9,420.4 622.6,420.4 621.9,419.5 619.7,418.2 	"/>
	<polygon class="st1" points="576.6,446.5 563.8,446.7 564.4,446.2 555.6,438.6 561.5,432.7 569.2,423.7 569.4,424.7 577.8,420.1 
		580.4,417.9 581.3,418.4 581.4,419 584.5,418.4 585.2,417.5 585.7,418.9 587,418.7 586.9,420 588,420.8 587.6,422.9 588.5,423.9 
		590.9,428.9 577.5,445 	"/>
	<polygon class="st0" points="654.9,450.3 653.1,450.6 653.2,450 652.3,448.5 651.5,448.2 649.5,448.3 648.9,448.8 647,448.9 
		646.4,449.4 645.3,449.3 642.1,447.7 642.3,448.9 641.5,449.5 641.6,447.3 636.5,444.8 625.8,437.9 619.7,418.2 621.9,419.5 
		622.6,420.4 623.9,420.4 625.3,422.2 626.2,422.5 626.9,422 628.7,422.1 631.4,421.2 633.4,421.3 637.6,419.1 638.3,418.2 
		639.5,417.9 641.1,419 642,420.9 642.9,421.1 644.9,420.6 646.4,422 648.5,422.7 649.6,423.6 650.5,425 651.5,425.2 651.7,424.6 
		653,424.5 660.6,417.6 662.7,424 662.2,426 663,426.8 664.6,427.1 665.7,428.7 665,431.3 665.9,433 666.1,433.7 667.2,434.4 
		667.9,435.6 669.1,435.7 668.7,437.3 668.9,439.6 667.8,441.7 668.4,442.1 668.9,443.1 668.3,444.1 660.9,437.5 663.2,442.5 
		665.6,444.2 664.4,450.7 662.1,450.4 661.1,451.6 660.1,452.1 659.7,452.9 657.5,453.6 656.9,453.4 656,452.1 655.6,450.2 	"/>
	<polygon class="st5" points="493.1,440.3 492.7,440.1 490.3,441.1 490.1,441.5 489.1,441.2 488.8,441.9 486.7,442.1 480.1,438.2 
		480.4,419.3 495.9,419.2 504.1,429.7 	"/>
	<polygon class="st0" points="609.5,446.7 607.7,445.4 605.5,444.5 604.9,443.4 604.8,442.3 603.9,441.5 601.7,436.2 601.5,436 
		600.9,436.7 598.1,436.2 597,434.6 595.3,434.2 592.5,431.9 590.9,428.9 588.5,423.9 589.7,422.9 590.6,423.6 591.1,423.6 
		603.9,421.4 604.3,421.7 605,421.5 605.1,422.6 605.7,423 606.5,422.8 609.6,423.7 610.6,423.2 611,423.8 612,424.1 612.5,424.7 
		612.6,425.5 613.3,425.7 613.7,426.5 613.1,427.1 613.1,428.4 613.5,429 612.1,429 612.8,429.8 612,429.9 611.7,430.4 612.3,431.4 
		612.1,432.5 613.5,433.4 612.6,433.7 613.3,434.6 612.1,435.6 612.6,436.4 613.3,436.5 613.4,437.2 614.3,437.4 614.8,437.9 
		615.3,437.6 615.6,437.8 615.9,441.2 616.1,441.9 616.7,441.9 617.1,442.5 616.8,442.8 617,443.8 615.3,444 615.6,444.9 
		616.3,444.5 616.9,445.1 616.6,445.6 617,446.8 616.7,448.5 614.1,448.5 613.3,447.7 611.7,447.6 	"/>
	<polygon class="st0" points="447.6,446.9 429,447.2 428.9,446.2 428.3,445.2 428.5,444 427.7,442.2 428.2,440.7 427.9,439 
		428.8,437.9 428.5,435.7 428,434.9 428.7,433.9 428.8,432.6 429.5,432.1 430.1,425.7 430.5,425.5 431,422 433.4,422.1 433.4,422.4 
		440.9,422.5 444.1,422.6 444.3,431.2 447.5,431.2 	"/>
	<polygon class="st0" points="540.7,445.8 540.3,445.2 535.9,443.4 535.9,442.5 535.3,442 534.4,442.1 534.7,441.4 534.3,440.5 
		533.7,439.9 532.8,440.1 532,438.2 531.2,438.6 530.6,435.6 528.8,434.6 527.4,434.5 528.2,434.1 528.5,433 531.7,430.3 
		533.3,429.6 536.7,425.6 539.9,422.8 555.6,438.6 542.4,446.3 	"/>
	<polygon class="st0" points="508.4,448.8 507.4,447.4 507.3,445.4 506.6,444.7 505.7,444.5 505.8,442.5 507.2,442.2 506.9,441.2 
		505.8,441.7 505.5,441.1 504.2,440.2 503.9,441.3 503.3,441.4 503.1,441.9 501.8,440.7 500.5,440.9 497.5,439.7 496.4,440.4 
		495.4,440.2 494.9,440.8 494.2,440.4 493.5,440.6 493.1,440.3 504.1,429.7 509.6,424.7 522.1,435.3 523.5,440 519.8,443.6 	"/>
	<polygon class="st0" points="587.3,468.1 586.3,467.2 590.9,462.2 580.6,449.7 578.6,449.8 578.2,447.9 576.6,446.5 577.5,445 
		590.9,428.9 592.5,431.9 595.3,434.2 597,434.6 598.1,436.2 600.9,436.7 601.5,436 601.7,436.2 603.9,441.5 604.8,442.3 
		604.9,443.4 605.5,444.5 607.7,445.4 609.5,446.7 603.3,453.3 601.4,458.7 	"/>
	<polygon class="st0" points="447.6,446.9 447.5,431.2 461.7,431 468.3,431.7 480.1,438.2 486.7,442.1 485.8,443.3 480.5,449.8 
		478.4,450.6 477.6,450.4 477.4,447.3 457.1,447 	"/>
	<polygon class="st5" points="517.1,457 517.1,456.6 517.6,456.2 517.7,454.5 516.9,454.2 515.7,454.6 515.5,453.7 514.6,454 
		514.1,452.4 513.2,452.1 512.5,451.1 512.8,450.4 511.7,449.8 511.5,450.7 510.4,450.7 508.4,448.8 519.8,443.6 523.5,440 
		525.9,437 528.8,434.6 530.6,435.6 531.2,438.6 532,438.2 532.8,440.1 533.7,439.9 534.3,440.5 534.7,441.4 534.4,442.1 535.3,442 
		535.9,442.5 535.9,443.4 540.3,445.2 540.7,445.8 531.2,460.2 519.1,459.9 518.3,460.5 517.4,458.8 517.6,457.9 	"/>
	<polygon class="st0" points="625.2,466.2 623.6,466 621.9,463.7 620.7,463.2 619.8,462 620.4,461 619.3,460.3 618.6,458.2 
		616.1,457.2 616.1,456.4 615,454.9 616.6,454.2 616.6,453.6 615.2,453 615.2,451.7 615.7,451.2 614.9,450 614.8,449 614.1,448.5 
		616.7,448.5 617,446.8 616.6,445.6 616.9,445.1 616.3,444.5 615.6,444.9 615.3,444 617,443.8 616.8,442.8 617.1,442.5 616.7,441.9 
		616.1,441.9 615.9,441.2 619.2,441.2 619.2,440.8 620.3,440.8 625.8,437.9 636.5,444.8 641.6,447.3 641.5,449.5 642.3,448.9 
		642.1,447.7 645.3,449.3 643.1,457.3 638.6,457.5 638.9,459.1 637.9,460.1 637.2,463.1 635.4,463.1 635,463.6 634.8,464.8 
		632.8,464.6 628.9,463.3 627.8,464.4 627.2,464.2 	"/>
	<polygon class="st0" points="536.5,468.5 530.4,461.5 531.2,460.2 540.7,445.8 542.4,446.3 555.6,438.6 564.4,446.2 563.8,446.7 
		561.1,449.2 561,453.5 559.8,460 547.7,469.4 541.8,474.6 	"/>
	<polygon class="st0" points="485.8,467.4 485.8,443.3 486.7,442.1 488.8,441.9 489.1,441.2 490.1,441.5 490.3,441.1 492.7,440.1 
		493.1,440.3 493.5,440.6 494.2,440.4 494.9,440.8 495.4,440.2 496.4,440.4 497.5,439.7 500.5,440.9 501.8,440.7 503.1,441.9 
		503.3,441.4 503.9,441.3 504.2,440.2 505.5,441.1 505.8,441.7 506.9,441.2 507.2,442.2 505.8,442.5 505.7,444.5 506.6,444.7 
		507.3,445.4 507.4,447.4 508.4,448.8 510.4,450.7 511.5,450.7 511.7,449.8 512.8,450.4 512.5,451.1 513.2,452.1 514.1,452.4 
		514.6,454 515.5,453.7 515.7,454.6 516.9,454.2 517.7,454.5 517.6,456.2 517.1,456.6 517.1,457 504,474.7 	"/>
	<polygon class="st0" points="485.8,476 457.3,475.9 457.1,447 477.4,447.3 477.6,450.4 478.4,450.6 480.5,449.8 485.8,443.3 
		485.8,467.4 	"/>
	<polygon class="st7" points="571.9,475 559.8,460 561,453.5 561.1,449.2 563.8,446.7 576.6,446.5 578.2,447.9 578.6,449.8 
		580.6,449.7 590.9,462.2 586.3,467.2 574.1,477.6 	"/>
	<polygon class="st0" points="623.8,468.4 619.7,472.7 603.6,482.7 587.3,468.1 601.4,458.7 603.3,453.3 609.5,446.7 611.7,447.6 
		613.3,447.7 614.1,448.5 614.8,449 614.9,450 615.7,451.2 615.2,451.7 615.2,453 616.6,453.6 616.6,454.2 615,454.9 616.1,456.4 
		616.1,457.2 618.6,458.2 619.3,460.3 620.4,461 619.8,462 620.7,463.2 621.9,463.7 623.6,466 625.2,466.2 625.4,466.8 	"/>
	<polygon class="st1" points="457.3,475.9 424.3,476.1 424.2,447.1 429,447.2 447.6,446.9 457.1,447 	"/>
	<polygon class="st0" points="424.3,476.1 398.2,476.6 393.5,471.9 392.1,467.8 392.6,467.6 394.1,467.8 394.1,467.1 394.5,467 
		394.9,465.7 394.6,464.6 394.8,463.1 395.8,462.6 396.4,461.3 397.1,456.7 397.1,447.3 424.2,447.1 	"/>
	<polygon class="st0" points="662,470.4 657.6,470.1 657.4,474.6 655.8,475.2 653.4,482.1 640.3,491.5 639.5,490 637.7,489.9 
		637.3,488.3 634.5,485.6 634.2,483.9 632.9,483 628.9,482.2 628.8,480.5 627.5,479.1 628,477 627.1,476 626.4,474 625,472.6 
		624.9,471.6 625.5,471.3 625.2,469.5 623.8,468.4 625.4,466.8 625.2,466.2 627.2,464.2 627.8,464.4 628.9,463.3 632.8,464.6 
		634.8,464.8 635,463.6 635.4,463.1 637.2,463.1 637.9,460.1 638.9,459.1 638.6,457.5 643.1,457.3 645.3,449.3 646.4,449.4 
		647,448.9 648.9,448.8 649.5,448.3 651.5,448.2 652.3,448.5 653.2,450 653.1,450.6 654.9,450.3 654,455.3 662.3,469.9 	"/>
	<polygon class="st0" points="515.1,487.3 508.8,479.7 504,474.7 517.1,457 517.6,457.9 517.4,458.8 518.3,460.5 519.1,459.9 
		531.2,460.2 530.4,461.5 536.5,468.5 	"/>
	<polygon class="st0" points="556.4,488 555.7,487.7 555.4,487 553.1,486.1 552.8,485.4 552.2,485.5 551,484.9 543.8,490.8 
		535.1,480.5 541.8,474.6 547.7,469.4 559.8,460 571.9,475 	"/>
	<polygon class="st7" points="602.7,498.6 599.6,498.6 599.5,495.6 597.9,496.4 596.8,494.1 597.7,497.2 591.7,497 591.1,497.5 
		591.1,491.2 590.9,497.5 590.2,496.1 587.6,496.3 586.9,495.8 586.5,494 585.2,493.4 584.7,491 583.8,490.5 584.5,488.9 
		583.3,486.9 580.8,485 579.8,483 579.9,482.1 578.5,479.6 574.1,477.6 586.3,467.2 587.3,468.1 603.6,482.7 	"/>
	<polygon class="st3" points="485.8,500.3 485.8,476 485.8,467.4 504,474.7 508.8,479.7 515.1,487.3 519.1,492.4 507.8,502.1 
		507.7,500.4 	"/>
	<polygon class="st4" points="602.7,500.6 602.7,498.6 603.6,482.7 619.7,472.7 623.8,468.4 625.2,469.5 625.5,471.3 624.9,471.6 
		625,472.6 626.4,474 627.1,476 628,477 627.5,479.1 628.8,480.5 628.9,482.2 632.9,483 634.2,483.9 634.5,485.6 637.3,488.3 
		637.7,489.9 639.5,490 640.3,491.5 632.9,495.6 633.5,494.2 628.1,495 621,497.5 620.1,501.2 632.1,496 608.3,508.4 618.4,502.6 
		618.8,499.6 606.8,503.9 606.8,502.6 610.6,501.8 606.7,500.5 610.9,493.7 608,497.7 604.6,499.1 605.3,496.6 	"/>
	<polygon class="st7" points="523.5,497.7 519.1,492.4 515.1,487.3 536.5,468.5 541.8,474.6 535.1,480.5 543.8,490.8 534,498.7 
		533.6,498.4 531.8,498.8 529.7,497.8 527.7,496.1 	"/>
	<polygon class="st0" points="563.6,505.7 563.4,503.4 562.6,502.8 563.1,495.6 562.5,495.2 563.1,494.6 563.2,492.9 562,491 
		561.8,489.7 560.1,488.1 559.6,488.1 560,488.9 559.2,488.9 558.8,489.4 556.7,489.3 556.4,488 571.9,475 574.1,477.6 578.5,479.6 
		579.9,482.1 579.8,483 580.8,485 583.3,486.9 584.5,488.9 583.8,490.5 584.7,491 585.2,493.4 586.5,494 586.9,495.8 586.7,496.4 
		587.1,497.3 583.9,499.2 577.5,501.2 574.4,503.4 575.5,505.3 575.3,506.4 575.7,507.7 575.1,508.1 575.1,508.6 574.6,508.8 
		573.1,507.8 569.9,507.2 569.7,506.4 568.7,506.4 568.1,505.5 568.1,505.8 567.3,505.6 567.1,506.2 565.6,505.2 	"/>
	<polygon class="st6" points="457.5,500.4 424.4,500.4 424.3,476.1 457.3,475.9 	"/>
	<polygon class="st4" points="485.8,500.3 458.2,500.4 457.5,500.4 457.3,475.9 485.8,476 	"/>
	<polygon class="st0" points="424.5,523.7 419.6,523.7 419.1,521.6 415.6,519.5 415.9,517.4 413.1,513.4 411.9,508.9 413.4,507.7 
		409.9,505.4 410.7,503 406.2,499.1 401.9,486.6 399.2,485.1 398.2,476.6 424.3,476.1 424.4,500.4 	"/>
	<polygon class="st0" points="553.2,514.1 552.8,513.6 552.4,513.7 552.1,512.9 550.9,512.6 550.1,513.3 548.1,511.2 547.4,511 
		546.5,511.3 546.3,510.7 545.3,510.5 544.8,509.8 544.7,507.4 543.9,506.5 540.7,506.6 539.3,506 537.8,505.9 536.6,503 536.2,501 
		534,498.7 543.8,490.8 551,484.9 552.2,485.5 552.8,485.4 553.1,486.1 555.4,487 555.7,487.7 556.4,488 556.7,489.3 558.8,489.4 
		559.2,488.9 560,488.9 559.6,488.1 560.1,488.1 561.8,489.7 562,491 563.2,492.9 563.1,494.6 562.5,495.2 563.1,495.6 562.6,502.8 
		563.4,503.4 563.6,505.7 	"/>
	<polygon class="st5" points="512.6,531.3 507.9,531.2 507.8,502.1 519.1,492.4 523.5,497.7 519.5,499.4 532.6,525.4 528.7,528.6 
		528.7,531.4 	"/>
	<polygon class="st0" points="545.9,526.2 544.7,528 532.6,525.4 519.5,499.4 523.5,497.7 527.7,496.1 529.7,497.8 531.8,498.8 
		533.6,498.4 534,498.7 536.2,501 536.6,503 537.8,505.9 539.3,506 540.7,506.6 543.9,506.5 544.7,507.4 544.8,509.8 545.3,510.5 
		546.3,510.7 546.5,511.3 547.4,511 548.1,511.2 550.1,513.3 550.9,512.6 552.1,512.9 552.4,513.7 552.8,513.6 553.2,514.1 	"/>
	<polygon class="st3" points="485.9,531.2 458.4,532.6 458.3,523.6 458.2,500.4 485.8,500.3 	"/>
	<polygon class="st2" points="507.9,531.2 485.9,531.2 485.8,500.3 507.7,500.4 507.8,502.1 	"/>
	<polygon class="st0" points="458.3,523.6 424.5,523.7 424.4,500.4 457.5,500.4 458.2,500.4 	"/>
	<polygon class="st4" points="558.7,531 558.6,530.2 557.7,529.7 557.5,529 557,529.3 556.4,528.8 556.6,528.3 556.3,527.3 
		555.9,527.3 556,528.4 555.3,527.9 554.9,528.4 553.5,527.5 552.9,528.2 552.3,527.9 552.5,528.5 552.3,529.1 551.1,528.6 
		551.1,527.5 550,527.5 550.1,526.8 548.8,526.3 548.8,525.4 547.6,526 547,526.8 546.6,526.3 545.9,526.2 553.2,514.1 563.6,505.7 
		565.6,505.2 567.1,506.2 567.3,505.6 568.1,505.8 568.1,505.5 568.7,506.4 569.7,506.4 569.9,507.2 573.1,507.8 574.6,508.8 
		575.1,508.6 575.1,508.1 575.7,507.7 578.2,509.6 578.7,510.6 579.7,511.6 580.9,510.7 582.3,512.5 581.5,513.6 577.8,512.9 
		580.9,515.7 581,517.8 565.4,520.1 565.1,521.5 566.2,522.7 566.8,522.7 568.1,523.7 569.8,523.8 564.7,527.5 564.6,525.9 563,526 
		563.5,528.3 	"/>
	<polygon class="st2" points="478.7,573.2 461,573.2 459.3,571.3 454.8,573.3 451.2,570.7 453.7,561.6 452,560.9 450.9,555.1 
		443.1,552.5 438.4,546.2 435.6,545.3 432.4,535.2 430,534.3 425.1,526.3 419.6,523.7 424.5,523.7 458.3,523.6 458.4,532.6 
		485.9,531.2 485.8,568.5 485.8,573.1 	"/>
	<polygon class="st5" points="498.7,573.1 498.6,569.1 497.5,569.1 497.4,568.2 495.7,568.3 495.8,569.2 493.8,569.1 493.8,568.3 
		485.8,568.5 485.9,531.2 507.9,531.2 512.6,531.3 512.6,573.5 	"/>
	<polygon class="st0" points="512.6,573.5 512.6,531.3 528.7,531.4 529.9,532.6 531,532.7 532.1,532.2 532.7,532.5 533.2,533.1 
		533.1,534.5 526.7,540.7 526.3,553.6 520.9,553.8 520.9,573.6 	"/>
	<polygon class="st4" points="503.2,598.8 478.6,598.7 478.7,573.2 485.8,573.1 485.8,568.5 493.8,568.3 493.8,569.1 495.8,569.2 
		495.7,568.3 497.4,568.2 497.5,569.1 498.6,569.1 498.7,573.1 498.3,573.2 498.4,573.5 500,574.8 499.9,579.6 501,579.7 
		501.1,584.2 503.4,584.3 	"/>
	<polygon class="st0" points="468.9,609.7 463.3,595.1 458.4,590.4 458.3,587.8 455.3,586.1 456.2,577 454.8,573.3 459.3,571.3 
		461,573.2 478.7,573.2 478.6,598.7 476.2,604.5 	"/>
	<polygon class="st0" points="507.8,598.8 503.2,598.8 503.4,584.3 501.1,584.2 501,579.7 499.9,579.6 500,574.8 498.4,573.5 
		498.3,573.2 498.7,573.1 512.6,573.5 520.9,573.6 524.6,573.7 524.6,576.2 524.3,598.9 	"/>
	<polygon class="st0" points="495.6,626.5 491.9,627.5 485.2,620.5 481.1,621.3 479.6,619.4 471.7,618.2 472,614.6 468.8,611.5 
		468.9,609.7 476.2,604.5 478.6,598.7 503.2,598.8 507.8,598.8 	"/>
	<polygon class="st7" points="495.6,626.5 507.8,598.8 524.3,598.9 524.2,607.8 525.6,608 525,610.9 525.1,612 524.4,612 
		523.6,615.8 529.8,616.7 530,621.9 530.1,637 522,637.1 520.3,638.4 519.9,636.7 514.4,637.3 510.1,635 511.1,633.9 510.1,633.2 
		508.4,634.3 507.5,631.9 505.7,632 502.5,628.6 500.8,629.6 	"/>
	<polygon class="st7" points="198.2,389.6 198.2,382.3 198.9,382.3 198.9,373.2 198.2,373.1 197.9,316.7 201.3,316.8 240.4,316.5 
		236.5,366.2 	"/>
	<polygon class="st1" points="236.5,366.2 240.4,316.5 242.2,316.6 242.7,317.9 243.9,317.7 244.2,319.4 245.2,320.1 245.5,322.1 
		245.7,322.5 247,323 246.8,324.2 249.5,322.7 249.6,324.2 251,329.1 251.6,329.2 251.8,329.9 253.1,331.2 256,330.6 257,332 
		259.2,333.1 259.4,333.8 258.7,333.8 258.7,334.4 259.4,335.6 260,336 261.8,336.8 262.5,336.3 263.1,336.5 263.5,337.1 
		264.6,337.4 264.4,338.2 264.9,338.9 264.2,339.9 265.3,342.7 264.7,343.4 265.6,345.1 265.6,346.9 266.6,347.8 267.4,348.1 
		268.1,347.8 268.7,348.2 269.8,347.8 270.6,348.7 272.8,348.8 275.3,348.8 276,348.3 276.7,350.2 279.5,351.4 284.8,351.9 
		286.2,350.7 287.6,351.3 260.8,384.7 	"/>
	<polygon class="st1" points="272.2,335.9 260,336 259.4,335.6 258.7,334.4 258.7,333.8 259.4,333.8 259.2,333.1 257,332 256,330.6 
		253.1,331.2 251.8,329.9 251.6,329.2 251,329.1 249.6,324.2 249.5,322.7 246.8,324.2 247,323 245.7,322.5 245.5,322.1 245.2,320.1 
		244.2,319.4 243.9,317.7 242.7,317.9 242.2,316.6 254.1,316.6 272.8,316.7 	"/>
	<polygon class="st2" points="194.8,391.8 194.3,389.5 191.4,389.3 184.1,382.5 182.1,383.3 180.7,381.4 179.5,382.2 175.8,380.2 
		175,377.5 168.1,372.3 165.8,367.4 158,362.8 147.2,350.5 148.9,349.7 148.9,346 147.1,345.8 147,316.9 197.9,316.7 198.2,373.1 
		198.9,373.2 198.9,382.3 198.2,382.3 198.2,389.6 	"/>
	<polygon class="st4" points="147.2,350.5 137.1,345.8 129.1,331.7 121.8,328.8 118.2,327.1 118.2,325.6 116.8,322.8 117.3,321.7 
		117.4,318.5 116.5,318 117.8,316.9 129.3,316.9 147,316.9 147.1,345.8 148.9,346 148.9,349.7 	"/>
	<polygon class="st5" points="194.8,391.8 198.2,389.6 236.5,366.2 260.8,384.7 267.6,390.4 251.1,404.7 246.2,404.7 	"/>
	<polygon class="st2" points="194.8,391.8 246.2,404.7 251.1,404.7 251.3,466.5 239.2,463.2 233.6,459.3 231.7,454.8 223.5,451.2 
		216.1,444.2 214.1,437.2 209.6,431.7 208.5,423.7 209.5,418.7 208.2,413.8 203,407.7 203.3,406.3 201.1,405.4 199.4,395.7 	"/>
	<polygon class="st0" points="429.3,60.8 429.6,60.9 429.8,86.3 404.2,86.3 403.8,61.1 	"/>
	<polygon class="st2" points="327.6,86.5 327.7,61.1 333.9,60.9 353.4,60.9 353.4,86.5 	"/>
	<polygon class="st1" points="327.6,86.5 287.3,86.4 287.1,61 288.5,60.9 327.7,61.1 	"/>
	<polygon class="st3" points="353.4,86.5 353.4,60.9 378.4,61.2 378.7,86.4 	"/>
	<polygon class="st1" points="378.7,86.4 378.4,61.2 384.6,61.1 403.8,61.1 404.2,86.3 	"/>
	<polygon class="st4" points="378.2,111.5 378.7,86.4 404.2,86.3 404.1,111.4 378.5,111.5 	"/>
	<polygon class="st0" points="429.7,111.8 404.1,111.4 404.2,86.3 429.8,86.3 429.8,96.4 	"/>
	<polygon class="st0" points="378.2,111.5 353.3,111.4 353.4,86.5 378.7,86.4 	"/>
	<polygon class="st0" points="287.4,111.5 287.4,104.6 287.3,86.4 327.6,86.5 327.9,111.4 	"/>
	<polygon class="st0" points="327.9,111.4 327.6,86.5 353.4,86.5 353.3,111.4 	"/>
	<polygon class="st5" points="328.4,137.1 327.9,111.4 353.3,111.4 353.1,137 	"/>
	<polygon class="st4" points="378.5,111.5 378.5,137.1 353.1,137 353.3,111.4 378.2,111.5 	"/>
	<polygon class="st0" points="378.5,137.1 378.5,111.5 404.1,111.4 404.4,137 	"/>
	<polygon class="st0" points="404.4,137 404.1,111.4 429.7,111.8 429.9,123 429.8,137 	"/>
	<polygon class="st7" points="287.2,137.3 287.4,111.5 327.9,111.4 328.4,137.1 327.8,137.1 	"/>
	<polygon class="st0" points="335.8,161.7 327.5,161.9 327.8,137.1 328.4,137.1 353.1,137 353,161.7 	"/>
	<polygon class="st0" points="378.4,161.9 360.4,161.9 353,161.7 353.1,137 378.5,137.1 	"/>
	<polygon class="st1" points="404,162 404.4,137 429.8,137 429.8,145.7 429.7,162 410,162.1 	"/>
	<polygon class="st2" points="404,162 385.2,162 378.4,161.9 378.5,137.1 404.4,137 	"/>
	<polygon class="st3" points="311.1,161.7 287.4,162.1 287.2,149.5 287.2,137.3 327.8,137.1 327.5,161.9 	"/>
	<polygon class="st5" points="287,187.1 287.4,162.1 311.1,161.7 310.9,187.1 306.8,187.1 	"/>
	<polygon class="st0" points="310.9,187.1 311.1,161.7 327.5,161.9 335.8,161.7 335.8,187 331.4,187.1 	"/>
	<polygon class="st1" points="360.5,187 356.1,187.1 335.8,187 335.8,161.7 353,161.7 360.4,161.9 	"/>
	<polygon class="st0" points="380.3,186.9 360.5,187 360.4,161.9 378.4,161.9 385.2,162 385.1,186.7 	"/>
	<polygon class="st0" points="429.8,186.9 409.9,186.7 410,162.1 429.7,162 429.8,172.6 	"/>
	<polygon class="st0" points="409.9,186.7 405.2,186.8 385.1,186.7 385.2,162 404,162 410,162.1 	"/>
	<polygon class="st0" points="429.7,191.6 429.8,186.9 429.8,172.6 431,172.6 432.3,171.6 432.9,171.6 435.3,173.4 436.2,175.1 
		437.7,176.1 440.1,179.4 444.5,183.2 448.4,183.7 449.2,182.7 449.5,181.4 450.7,181 453.1,181.6 454.2,182.8 454.4,200.4 
		453.7,200.9 452.7,200.3 451.9,200.3 451,201.1 450.4,201.1 446.2,199.2 445.1,199.8 442.9,199.2 440.4,199.5 	"/>
	<polygon class="st3" points="479,214.1 454.6,214.4 454.4,200.4 454.2,182.8 456.1,183.9 457.4,183.6 458.2,182.1 458.3,180.2 
		459.6,179 461.5,181.1 464.2,182 464.8,183.7 467.1,185.7 467.5,187.3 467.1,190.1 467.8,191.9 468.5,192.5 470.7,193.2 
		473.1,192.8 475.1,193.3 476.9,192.7 479,193.6 	"/>
	<polygon class="st4" points="380.4,213.9 380.3,186.9 385.1,186.7 405.2,186.8 404.9,213.7 	"/>
	<polygon class="st0" points="429.7,191.6 429.1,191.7 428.2,191.1 427.1,191.7 426.8,213.7 404.9,213.7 405.2,186.8 409.9,186.7 
		429.8,186.9 	"/>
	<polygon class="st0" points="356.1,214 356.1,187.1 360.5,187 380.3,186.9 380.4,213.9 	"/>
	<polygon class="st0" points="331.7,214.1 331.4,187.1 335.8,187 356.1,187.1 356.1,214 	"/>
	<polygon class="st5" points="307,214.3 306.8,187.1 310.9,187.1 331.4,187.1 331.7,214.1 	"/>
	<polygon class="st4" points="286.9,214.5 287,187.1 306.8,187.1 307,214.3 	"/>
	<polygon class="st2" points="454.6,214.4 454.7,219.9 454,219.2 453.5,217.8 452.2,217.6 452.1,216.9 451.1,216.9 451,216.2 
		450,216.5 449.5,215.9 448.9,216.8 448.4,216.1 446.1,215 445.4,215.3 444.1,214.6 443.7,216.1 443.3,216.1 443,215.1 442.6,216 
		442.1,215.5 441.4,216.1 441.3,214.8 440.5,215.2 438.7,214.8 438,215.2 437.3,214.1 429.7,214.2 429.6,213.6 426.8,213.7 
		427.1,191.7 428.2,191.1 429.1,191.7 429.7,191.6 440.4,199.5 442.9,199.2 445.1,199.8 446.2,199.2 450.4,201.1 451,201.1 
		451.9,200.3 452.7,200.3 453.7,200.9 454.4,200.4 	"/>
	<polygon class="st0" points="479,214.1 479,193.6 481.9,195.5 485.6,196.3 487.2,197.1 490.6,197.2 491.7,196.1 492.7,196.3 
		494.4,195.6 495.3,196 496.7,196.6 497.6,198.7 500.3,200.9 502.7,201.6 504,200.9 504.1,214.1 	"/>
	<polygon class="st0" points="650.9,239.6 650.9,211.1 651.6,211.1 652.1,209.3 652.7,210.4 653.3,210 653.3,208.2 654.1,206.6 
		658.1,207.8 659.1,208 659.1,209.3 659.5,209.6 660.6,209.1 661.2,209.3 660.9,210.5 661.2,211 662.1,209.3 662.1,210.5 
		663.1,211.2 663.4,212.2 664.5,212 665.6,212.8 666.6,212.2 667,213.3 667.9,213.7 667.9,215.1 669,215.1 669.4,215.8 669.2,216.6 
		670.7,217.4 671.8,218.9 673.6,218.8 674.4,219.4 675.3,218.6 676.2,218.7 675.4,219.3 675.3,219.7 676.9,219.6 676.3,220.7 
		677.3,220.6 676.7,221.2 677.3,221.6 677.1,242.2 676.5,242.6 675.7,242.4 673.6,239.7 671.9,239.3 670.6,238.6 669.3,239.2 
		665.1,238.8 663.5,239.5 662.3,239 659.6,239 658.1,239.3 657.1,239.1 656.4,239.7 655.6,239.3 653.6,239.8 	"/>
	<polygon class="st5" points="673.9,261.8 670.8,259.9 668.7,257.6 667.4,256.7 663.3,256.6 659.1,259.1 659.6,239 662.3,239 
		663.5,239.5 665.1,238.8 669.3,239.2 670.6,238.6 671.9,239.3 673.6,239.7 	"/>
	<polygon class="st0" points="658.1,260.3 657.2,263 650.5,262.9 650.9,239.6 650.9,239.6 653.6,239.8 655.6,239.3 656.4,239.7 
		657.1,239.1 658.1,239.3 659.6,239 659.1,259.1 	"/>
	<polygon class="st2" points="681.4,267.6 679.1,267.6 677.8,266 675.2,263.6 673.9,261.8 673.6,239.7 675.7,242.4 676.5,242.6 
		677.1,242.2 678.1,243.3 679.4,243 681.1,245.2 	"/>
	<polygon class="st0" points="677.8,266 658.1,265.9 658.1,260.3 659.1,259.1 663.3,256.6 667.4,256.7 668.7,257.6 670.8,259.9 
		673.9,261.8 675.2,263.6 	"/>
	<polygon class="st0" points="657.8,285.2 658.1,265.9 677.8,266 679.1,267.6 679.5,270.8 679,271.4 679,272.6 679.1,280.3 
		678.3,280.4 677.3,279.9 676.1,280.3 673.2,284.1 665.5,287.1 664.8,287.6 664,286.3 663.7,286.8 661.7,286.7 661,286 658.8,286.4 
			"/>
	<polygon class="st0" points="710.2,267.7 710.3,278.2 708.3,278.4 706.2,277.1 705.4,276 704.1,276.7 703.8,278.1 703.2,278 
		701.5,277.3 700.7,275.2 699.3,274.9 698.2,276.1 693.9,278.3 688.4,278.3 679,272.6 679,271.4 679.5,270.8 679.1,267.6 
		681.4,267.6 	"/>
	<polygon class="st0" points="710.3,278.2 710.5,295.3 695.8,298.7 694.2,297.8 693.7,296.6 692.1,296.5 691.6,296.9 689.4,295.5 
		688.6,295 687.8,295.4 686.1,294.4 685.2,294.7 683.8,295.2 681.6,294.7 679.2,293.1 679.1,280.3 679,272.6 688.4,278.3 
		693.9,278.3 698.2,276.1 699.3,274.9 700.7,275.2 701.5,277.3 703.2,278 703.8,278.1 704.1,276.7 705.4,276 706.2,277.1 
		708.3,278.4 	"/>
	<polygon class="st4" points="665.7,325.2 665.6,320.6 666.1,319.3 665.8,318.2 665.6,309 665.6,296.4 680.6,296.3 684,296.9 
		684.8,296.7 685.2,294.7 686.1,294.4 687.8,295.4 688.6,295 689.4,295.5 688.3,299.4 687.6,300.1 687.4,301.1 685.1,305.6 
		684.6,310.9 683.9,313.3 684.2,318.5 688.3,318.5 688.3,321.3 689.9,323.2 690.7,325.3 	"/>
	<polygon class="st0" points="688.3,318.5 684.2,318.5 683.9,313.3 684.6,310.9 685.1,305.6 687.4,301.1 687.6,300.1 688.3,299.4 
		689.4,295.5 691.6,296.9 692.1,296.5 693.7,296.6 694.2,297.8 695.8,298.7 710.5,295.3 710.6,305.8 710.6,317.2 711.7,317.5 
		712,318.2 	"/>
	<polygon class="st4" points="720.1,339.6 716.2,338.5 712.8,340.8 707.7,337.6 693.6,336 692.9,334.3 692.8,331.7 691.5,326.7 
		690.7,325.3 689.9,323.2 688.3,321.3 688.3,318.5 712,318.2 713.3,319.9 713.6,321.2 715.2,322 716.1,322 715.8,322.9 716.9,322.8 
		717.3,324.2 717.8,324.1 718,325.2 718.6,327.1 720,327.9 720.6,329.4 720.1,330.6 721.1,331.9 720.9,332.9 721.2,333.2 722,332.9 
		721.1,335 721.3,336.1 720.9,336.4 720.7,338.1 719.9,338.3 	"/>
	<polygon class="st0" points="696.7,359.9 695.9,359.4 693.5,356 691.5,354.7 689.4,351.1 687.3,350 686.5,348.6 683.4,347.7 
		682.6,347.8 680.2,346.7 678,346.8 676.5,346.3 674.5,345 673.6,345.1 671.1,342.9 670.2,342 670.1,340.4 669.3,340.6 669.1,340.3 
		667.7,336.1 666.8,331.4 667.1,330.7 668,330.4 668.1,330 666.1,328.7 665.7,325.2 690.7,325.3 691.5,326.7 692.8,331.7 
		692.9,334.3 693.6,336 696,338.7 697.3,339.7 698,341.2 697.9,344.1 697.1,347.4 697.5,349 697.1,349.8 697.2,354.2 696.4,357.5 	
		"/>
	<polygon class="st0" points="716.1,363.4 710.3,364.6 709.6,364.2 710.2,362.3 710.5,358.6 709.9,354.2 710.7,351.5 709.9,350 
		712.7,346.3 712.8,340.8 716.2,338.5 720.1,339.6 720.8,340.4 721.1,341.4 722.6,342.8 723.3,342.9 724.1,342.5 724.8,343.4 
		726.1,343.5 725.4,344.9 723.9,345.2 723.9,345.4 725.1,346.9 726.4,346.7 726.2,347.6 726.9,348 726.5,348.6 726.6,349.3 
		726.9,349.8 728,350.2 728.2,351.7 729.4,351.6 727.4,354.1 727.2,355 728.4,356.4 728.9,356.2 729.6,357.1 730.3,357 730.5,357.3 
		730.5,358.8 731.5,359.5 730.9,361.2 731.3,362.3 	"/>
	<polygon class="st0" points="685,368.7 681.9,367 680.4,367.3 679,366.5 675.9,365.9 673.7,364.8 673,364 673.3,362.5 672.8,361.9 
		672.4,360.1 671.4,358.6 670.2,357.9 670.8,356.1 670.1,355.7 669.4,353.6 667.2,353.2 666.9,351 667,350.5 665.3,348.7 665.1,348 
		671.1,342.9 673.6,345.1 674.5,345 676.5,346.3 678,346.8 680.2,346.7 682.6,347.8 683.4,347.7 686.5,348.6 687.3,350 689.4,351.1 
		691.5,354.7 693.5,356 695.9,359.4 696.7,359.9 698.1,360.6 699.9,362.2 701.6,362.8 703.6,365.4 705.6,366.8 691.3,370.1 
		689.5,370.4 688.9,369.7 687.3,369 	"/>
	<polygon class="st0" points="717,413.6 718.8,375.3 716.1,363.4 731.3,362.3 732.1,362.7 733.4,361.7 734.4,362 734.5,362.4 
		734,362.5 734.4,363.2 733.7,363.4 734,364.9 734.4,365.2 734.1,365.8 733.1,366.2 732.9,366.6 733.7,367 733.7,367.6 734.9,368.1 
		734.5,369 735.4,370 733.5,371.4 732.7,371.2 732.6,371.4 732.4,372.3 732.9,372.6 732.3,373.5 733.4,373.8 734,374.5 734.2,374.3 
		734.5,375.7 734.3,376.2 733.4,376.3 733.6,377.4 732.7,377.6 732.5,378.4 732.9,379.2 733.3,379.8 732.6,380.7 733.1,380.8 
		733.4,381.6 731.9,383 731.7,384.7 730.2,386.1 730.7,386.9 730.2,386.8 730.4,388 730.2,389.3 728.2,390.1 727.4,391.9 
		726.7,391.9 727.1,392.8 726.7,393.2 727.7,394.2 726.6,394.2 725.5,394.8 725.5,395.8 724.7,397.1 726.1,398.3 725.6,399.3 
		726,399.8 725.6,400.2 726.4,401.2 726.2,401.6 726.5,402.7 725.3,403.2 724.3,404.5 723.7,406 724.1,406.8 723.5,407.5 
		723.5,408.2 724.9,410.2 726.4,410.6 726,413.8 	"/>
	<polygon class="st0" points="717,413.6 707.4,413.6 707.6,413 707,411.6 707,410.8 708.3,408 706.8,403.7 709.2,398.3 709,397.3 
		708.3,396.3 708.3,395.4 708.7,393.6 709.8,392.5 709.8,391.7 709.2,390.9 708.5,391 707.9,389.6 706.8,389.6 706.1,388.4 
		706.4,386.3 706.1,384.8 704.2,383.2 703.1,381.1 702.7,378.1 702.2,377.5 702.9,376.3 702.6,375.7 701.7,375.5 700.8,374.4 
		701,373.7 700.8,373.1 701.4,372.6 701,371.9 699.7,371 699.4,371.2 698.4,370 697.3,370.9 696.2,370.2 693.6,370.9 692.9,370.7 
		692.3,371.5 691.5,371.8 691.2,371.4 691.3,370.1 705.6,366.8 709.9,365.8 710.3,364.6 716.1,363.4 718.8,375.3 	"/>
	<polygon class="st0" points="672.3,400.1 671.6,399.4 671.5,398.7 672.6,397.7 672.6,397 669.8,396 668.6,396.1 666.7,395.4 
		663.5,394.9 664.4,393.6 664.5,392.6 664,391.3 664.6,391 663.3,390.2 663.2,389.6 662.6,389.8 662.4,389.4 659.8,390.3 
		659.7,388.5 658.9,388.4 658.1,387 658.7,383.9 655.8,381.5 673,364 673.7,364.8 675.9,365.9 679,366.5 680.4,367.3 681.9,367 
		685,368.7 681.3,371.4 686.4,398.2 686.8,400 677.7,400.1 	"/>
	<polygon class="st3" points="709.2,398.3 686.4,398.2 681.3,371.4 685,368.7 687.3,369 688.9,369.7 689.5,370.4 691.3,370.1 
		691.2,371.4 691.5,371.8 692.3,371.5 692.9,370.7 693.6,370.9 696.2,370.2 697.3,370.9 698.4,370 699.4,371.2 699.7,371 701,371.9 
		701.4,372.6 700.8,373.1 701,373.7 700.8,374.4 701.7,375.5 702.6,375.7 702.9,376.3 702.2,377.5 702.7,378.1 703.1,381.1 
		704.2,383.2 706.1,384.8 706.4,386.3 706.1,388.4 706.8,389.6 707.9,389.6 708.5,391 709.2,390.9 709.8,391.7 709.8,392.5 
		708.7,393.6 708.3,395.4 708.3,396.3 709,397.3 	"/>
	<polygon class="st0" points="657.5,407.6 654.7,409.1 655.3,407.4 653.5,405.9 650.3,404.2 648.2,398.5 649.6,379.2 650.1,379 
		650.5,377.7 652.9,377.4 653.7,378.2 653.9,380.5 655.8,381.5 658.7,383.9 658.1,387 658.9,388.4 659.7,388.5 659.8,390.3 
		662.4,389.4 662.6,389.8 663.2,389.6 663.3,390.2 664.6,391 664,391.3 664.5,392.6 664.4,393.6 663.5,394.9 666.7,395.4 
		668.6,396.1 669.8,396 672.6,397 672.6,397.7 671.5,398.7 671.6,399.4 672.3,400.1 	"/>
	<polygon class="st4" points="707.4,418 704.7,417.3 704.3,416.8 702.6,416.6 700.8,417.7 699.4,417.5 698.5,418.6 698.1,420 
		696.1,421 693.5,421 692.3,421.5 690.9,420.8 689.8,420.5 683.6,420.5 677.7,400.1 686.8,400 686.4,398.2 709.2,398.3 706.8,403.7 
		708.3,408 707,410.8 707,411.6 707.6,413 707.4,413.6 707.3,415.5 708.1,415.7 708.2,416.2 707.5,417.1 	"/>
	<polygon class="st1" points="691,432.5 665.9,433 665,431.3 665.7,428.7 664.6,427.1 663,426.8 662.2,426 662.7,424 660.6,417.6 
		657.5,407.6 672.3,400.1 677.7,400.1 683.6,420.5 689.8,420.5 690.9,420.8 	"/>
	<polygon class="st0" points="723.5,426.5 718.9,427.3 719,428.7 716.4,427 715.4,427.1 714.4,426.3 712.1,426.1 710.4,424.9 
		710.4,423.6 709.2,422.8 707.9,422.8 707.6,421.3 708.3,420.5 708.1,420 707,419.7 706.8,418.6 707.4,418 707.5,417.1 708.2,416.2 
		708.1,415.7 707.3,415.5 707.4,413.6 717,413.6 726,413.8 725.6,414.8 726.1,417 726.5,417.2 726.3,418.6 727.1,418.7 727,419.1 
		726.4,419.1 726.5,420.4 725.9,420.6 725.6,421.6 725.7,423.5 	"/>
	<polygon class="st5" points="695.4,450.7 694.9,432.4 691,432.5 690.9,420.8 692.3,421.5 693.5,421 696.1,421 698.1,420 
		698.5,418.6 699.4,417.5 700.8,417.7 702.6,416.6 704.3,416.8 704.7,417.3 707.4,418 706.8,418.6 707,419.7 708.1,420 708.3,420.5 
		707.6,421.3 707.9,422.8 709.2,422.8 710.4,423.6 710.4,424.9 712.1,426.1 714.4,426.3 715.4,427.1 716.4,427 719,428.7 
		714.5,436.7 720,444.5 709.1,444.5 	"/>
	<polygon class="st0" points="694.4,451.1 694.1,448.5 692.9,448.5 691.7,450.2 690.5,450.3 688.1,451.4 687.1,451 685.6,449.7 
		675.1,451.8 678.9,445.4 679.2,440.1 677.6,438.1 673.1,439.9 670.4,444.8 668.3,444.1 668.9,443.1 668.4,442.1 667.8,441.7 
		668.9,439.6 668.7,437.3 669.1,435.7 667.9,435.6 667.2,434.4 666.1,433.7 665.9,433 691,432.5 694.9,432.4 695.4,450.7 	"/>
	<polygon class="st0" points="665.6,296.4 665.5,287.1 673.2,284.1 676.1,280.3 677.3,279.9 678.3,280.4 679.1,280.3 679.2,293.1 
		681.6,294.7 683.8,295.2 685.2,294.7 684.8,296.7 684,296.9 680.6,296.3 	"/>
	<polygon class="st1" points="710.3,364.6 709.9,365.8 705.6,366.8 703.6,365.4 701.6,362.8 699.9,362.2 698.1,360.6 696.7,359.9 
		696.4,357.5 697.2,354.2 697.1,349.8 697.5,349 697.1,347.4 697.9,344.1 698,341.2 697.3,339.7 696,338.7 693.6,336 707.7,337.6 
		712.8,340.8 712.7,346.3 709.9,350 710.7,351.5 709.9,354.2 710.5,358.6 710.2,362.3 709.6,364.2 	"/>
	<polygon class="st2" points="677.1,242.2 677.3,221.6 679.7,222.2 680.7,221.8 681.3,222.1 681.9,222.9 680.7,223.3 680.7,223.6 
		681.2,223.7 682.1,223.3 682.4,222.6 683.9,223.6 684.6,222.8 685,223.3 685.8,223.2 685.6,223.7 684.6,223.8 684.5,224.2 
		685.1,224.4 686.5,223.8 686.7,224.6 685.7,224.9 685.7,225.3 686.3,225.5 687.8,224.9 687.5,226.1 688.2,225.6 688.6,226 
		689.8,225.5 691.7,225.2 691.6,226.3 690.9,227.1 691.3,227.5 692,227.5 693.1,228.8 693.7,228.7 694.4,227.7 694.8,227.9 
		694.7,228.8 693.6,229.6 694.7,230.3 696.7,228.8 698,229.7 698.1,228.4 699.1,227.9 699.4,228.2 699.3,229.5 701,227.7 
		701.7,228.1 701.1,229.5 702.3,229.7 702.5,228.2 704.7,227.7 704.9,229.2 707.6,228.8 708.1,228.2 709.3,228.6 710.5,229.8 
		710.5,245.9 709,244.3 708.4,244.5 707.7,244 706.3,244.4 704.6,243.7 702.1,244.6 701.4,245.6 701.4,246.7 700.1,247.2 698,246.5 
		694.6,246.8 692.8,246.2 692.1,245.1 690.9,245.2 689.7,244.7 685.4,246.3 684.7,247 683.1,247.1 682,246.5 681.1,245.2 679.4,243 
		678.1,243.3 	"/>
	<polygon class="st5" points="710.4,259.8 710.2,267.7 681.4,267.6 681.1,245.2 682,246.5 683.1,247.1 684.7,247 685.4,246.3 
		689.7,244.7 690.9,245.2 692.1,245.1 692.8,246.2 694.6,246.8 698,246.5 700.1,247.2 701.4,246.7 701.4,245.6 702.1,244.6 
		704.6,243.7 706.3,244.4 707.7,244 708.4,244.5 709,244.3 710.5,245.9 	"/>
	<path class="st0" d="M561.1,627l1.4,9.4l0.3-0.3l-1.1-9.5l-1.8-8.3l-0.9-0.1l1.2,3.7L561.1,627z M560.9,639.7l-3,0.3l1.1-3.5
		l-4.7-6l-0.7-9.3l-2.5-1.4l-1.2,1l-0.7,1.9l-1.8-0.5l-2.1,0.7l0.1,1.3l-15.4-2.4l0.1,15.1l10.3,1.9l1.7,3.2l1.8,0.4l-0.7,1.1
		l7.3,4.6h2.3l0.2-3.8l3.6-1.1l-0.1-1.4l6.3,0.5L560.9,639.7z"/>
	<path class="st0" d="M550.9,613l-1.2-4.3l-19.5,0.2l-4.6-0.8L525,611l0.1,1.1h-0.7l-0.7,3.8l6.2,0.9l0.2,5.2l15.4,2.4l-0.1-1.3
		l2.1-0.7l1.8,0.5l0.7-1.9l1.2-1l-2.6-4.8L550.9,613z M557,608.6h-0.2l1.1,3.2l0.5,3.2l0.8,3.1l0.9,0.1L557,608.6z"/>
	<path class="st7" d="M545.1,575.4l-11.1-3l-1.7,0.6l-0.3,1l-0.7,0.3l-2.2,0.5l-2.1-0.1l-1.3,0.4l-0.5,1.1h-0.6l-0.3,22.6v8.9
		l1.3,0.2l4.6,0.8l19.5-0.2l-2.1-10.1l-2.9-2.8l-0.5-7l4.2-1l-1.2-4.5l3.6-9.7L545.1,575.4z M553.2,572.5l-0.2,3.9l1-3.9H553.2z
		 M554.1,598l-1.1-7.7l-0.3-7.8l0.4-5.7l-0.5,0.2l-0.6,4.8l0.3,10l0.7,5.4l1.1,6l2.7,5.6h0.2L554.1,598z"/>
	<path class="st0" d="M531.5,558.1l-1.8-1.9l-0.2-1.3l-3.2-1.2l-5.4,0.2v19.8l3.7,0.1v2.5l0.8-0.2l0.5-1.1l1.3-0.4l2.1,0.1l2.2-0.5
		l0.7-0.3l0.3-1l1.7-0.6l4.9-0.3l-3.3-6.6l7.1,6.3l3.4-2.3l1-5l0.3,6.3l4.2-0.1l3.8-12.8L531.5,558.1z M559.2,556.8l-4.1,7.4
		l-1.9,8.3h0.8l6.4-15.3L559.2,556.8z"/>
	<path class="st7" d="M556.4,550l-1.8,4.1l-2.4-0.1l2.2-0.4l1.6-2.7l-1.4-1.3l1.5,0.2l-3.7-3.1l0.4-3.2l-4.3,0.6l-0.9-1.2l-0.5,0.2
		l-1.6-0.9l-2.3-0.5l-1-1.1l-1.4-0.5l-0.5-1.2l-0.7-0.5l-2.2,0.2l-2-0.9l-0.5,0.5l-0.2-0.6l-0.6-0.3l-0.5,0.1l-0.5,0.8l-0.7-1.2
		l0.1-1.2l0.6-0.4l0.1-0.9l-6.3,6.2l-0.4,13l3.2,1.2l0.2,1.3l1.8,1.9l23.9-0.3l3.8-6.7L556.4,550z M565.6,544.1l1.8,0.4l-4.5,5.5
		l-1.6,5.1l-2.6-2.1l0.5,3.8l1.2,0.4l8-13.6L565.6,544.1z"/>
	<polygon class="st0" points="564.5,540 559.8,532.3 558.2,533.1 559.6,531.9 558.7,531 558.6,530.2 557.7,529.7 557.5,529 
		557,529.3 556.4,528.8 556.6,528.3 556.3,527.3 555.9,527.3 556,528.4 555.3,527.9 554.9,528.4 553.5,527.5 552.9,528.2 
		552.3,527.9 552.5,528.5 552.3,529.1 551.1,528.6 551.1,527.5 550,527.5 550.1,526.8 548.9,526.3 548.8,525.4 547.6,526 547,526.8 
		546.6,526.3 545.9,526.2 544.7,528 532.6,525.4 528.7,528.6 528.7,531.4 529.9,532.6 531,532.7 532.1,532.2 532.7,532.5 
		533.2,533.1 533.1,534.5 533,535.3 532.4,535.8 532.2,537 533,538.2 533.5,537.4 534,537.3 534.6,537.6 534.8,538.2 535.3,537.7 
		537.2,538.6 539.5,538.4 540.2,538.9 540.6,540.1 542,540.6 543,541.7 545.3,542.2 547,543 547.4,542.9 546.4,541.8 547.6,541.1 
		548.4,542.3 554.7,541.2 553.9,543 557.6,541.4 560.9,543.5 559.3,544 561.7,544.5 565.5,539 	"/>
	<path class="st0" d="M565.4,520.1l-0.4,1.4l1.2,1.2h0.5l1.4,1l1.7,0.1l-0.5,3.3l2.8,1.2l1.6-3.8l-1.6-1.3l2.9-2.5l-1.8,7.6l6.9-5.2
		l0.5-3.2l0.3-2.2L565.4,520.1z M573.8,532l-1.6,2.4l1.1,0.9l-3.5,3.7l-1.2,3.9l9.2-11.1l0.8-2.8l-1.7-1.6L573.8,532z M569.7,528.7
		l-4.5,2.9l-5.3,0.7l4.7,7.6l1-1l4.3-5.6L569.7,528.7z"/>
	<path class="st0" d="M593.6,509.9l-2.1-0.5l3.6-2l-3.8-3.6l-2.1,0.8l0.2-3.5l-2.5-3l0.6-1.9l-0.6-0.5l-0.2,0.6l0.4,0.9l-3.2,1.9
		l-6.4,2l-3.1,2.2l1.1,1.9l-0.2,1.1l0.4,1.3l2.6,1.9l0.4,1l1,1l1.2-0.9l-1.7-0.2l1.7-1.5l2.2,4l1.7,0.4l0.1,3l1.9,1.8l12.7-6.9
		l-4-3.5L593.6,509.9z M599,496l-1.4,1.2l-6-0.2l-0.5,0.5v3l2.8-0.7v2.2l1.3,0.5l1.4-3.1l0.8,3.2l-2.5,2.1l5.5-2.8l-2-1.5L599,496z
		 M599.6,498.6l1.3,2.8l1.8-0.9l0.1-2L599.6,498.6z M596.2,517.1l-3.3,0.4l-9.7,7.2l-3.1,0.6l-1.5,5.7l20.6-14.9l-1.2-2.4
		L596.2,517.1z M580.2,523.2l1.2-1l-0.7-2.2L580.2,523.2z"/>
	<path class="st0" d="M694.1,448.5h-1.2l-1.2,1.7l-1.1,0.1l-2.5,1l-1-0.3l1.1,0.5l1.9-0.6l-1.5,2.1l-3.4-0.8l-5.1,3.1l-4.9,5l0.9,1
		l4-3.7l14.4-6.4L694.1,448.5z M662,470.4l5.4-7l2.5,0.9l0.3-4.6l3.6,1.2l-3.6-1.5l-1.2-2.6l0.2,1.5l-1.8-0.2l0.4-2.2l-1.8,0.2
		l3.4-2.2l-4.8-3.2l-2.4-0.3l-1,1.1l-1,0.5l-0.3,0.8l-2.2,0.7l-0.6-0.2l-0.9-1.3l-0.6-1.8l-0.6,0.1l-0.9,5l8.3,14.6L662,470.4z
		 M669.2,467l-9,8.7l16.8-12l-0.9-1.2L669.2,467z"/>
</g>
<path class="st8" d="M207.7,316.3h38.6C201,268,154.6,219.1,50.5,177.9l-1.1,43.8c76.2,24.6,119,58.6,155.9,94.8
	C206,316.3,206.8,316.3,207.7,316.3z"/>
<path class="st8" d="M573.7,256.8c-22.2-75.2-66.2-94.8-106.6-78.9l5.5,11.8c45.3-10.8,70.9,56.1,81.2,92.8
	c20.4,72-44.5,183.7-147,153.7c-20.8,0.6-41.7,0.1-62.5-0.5c1.7,1,3.4,1.9,5.1,2.9C487.8,513.2,605.7,365,573.7,256.8z"/>
<path class="st8" d="M468.1,303.2c-27.1-43.2-30.7-101.9,4.5-113.5l-5.5-11.8c-27.5,8.7-42.8,31.3-45.2,60.1
	c-3.2,38.6,15.5,72.4,32.5,97.7c9.7,14.4,19.5,25.1,26.6,32.2c-3.3-5.8-3.3-5.8-9.8-17.5c6.6,11.7,6.6,11.7,9.8,17.5
	c70.8,75.3,160.6,94.9,238.6,94.9l6.3-32.2C570.1,425.1,516.8,380.7,468.1,303.2z"/>
<polygon class="st8" points="733.8,434.3 729.1,460 755.8,448.7 "/>
</svg>
