<?xml version="1.0" encoding="utf-8"?>
<!-- Generator: Adobe Illustrator 24.1.3, SVG Export Plug-In . SVG Version: 6.00 Build 0)  -->
<svg version="1.1" id="Layer_1" xmlns="http://www.w3.org/2000/svg" xmlns:xlink="http://www.w3.org/1999/xlink" x="0px" y="0px"
	 viewBox="0 0 742.1 625.5" style="enable-background:new 0 0 742.1 625.5;" xml:space="preserve">
<style type="text/css">
	.st0{opacity:0.78;}
	.st1{fill-rule:evenodd;clip-rule:evenodd;fill:#8FC7C6;stroke:#282828;stroke-width:0.25;stroke-miterlimit:10;}
	
		.st2{opacity:0.4;fill-rule:evenodd;clip-rule:evenodd;fill:#8FC7C6;stroke:#282828;stroke-width:0.25;stroke-miterlimit:10;enable-background:new    ;}
	
		.st3{opacity:0.8;fill-rule:evenodd;clip-rule:evenodd;fill:#8FC7C6;stroke:#282828;stroke-width:0.25;stroke-miterlimit:10;enable-background:new    ;}
	
		.st4{opacity:0.2;fill-rule:evenodd;clip-rule:evenodd;fill:#8FC7C6;stroke:#282828;stroke-width:0.25;stroke-miterlimit:10;enable-background:new    ;}
	
		.st5{opacity:0.5;fill-rule:evenodd;clip-rule:evenodd;fill:#8FC7C6;stroke:#282828;stroke-width:0.25;stroke-miterlimit:10;enable-background:new    ;}
	
		.st6{opacity:0.3;fill-rule:evenodd;clip-rule:evenodd;fill:#8FC7C6;stroke:#282828;stroke-width:0.25;stroke-miterlimit:10;enable-background:new    ;}
	
		.st7{opacity:0.89;fill-rule:evenodd;clip-rule:evenodd;fill:#8FC7C6;stroke:#282828;stroke-width:0.25;stroke-miterlimit:10;enable-background:new    ;}
	
		.st8{opacity:0.7;fill-rule:evenodd;clip-rule:evenodd;fill:#8FC7C6;stroke:#282828;stroke-width:0.25;stroke-miterlimit:10;enable-background:new    ;}
	.st9{fill:#CD4328;}
</style>
<g class="st0">
	<polygon class="st1" points="469,196.5 468.9,175.9 468.7,162.8 469.4,161.8 470.1,161.6 470.5,159.9 472.1,158.4 473.5,158.6 
		475.5,159.5 480.4,160 482.1,158.6 483.1,158 484.1,158.9 483.3,162.5 484.5,166.2 485.9,167.1 487.5,167.3 489.4,166.4 
		490.9,168.2 491,168.8 490.3,169.4 490.9,170.3 489.7,171.5 489.7,172.1 489.5,196.6 	"/>
	<polygon class="st1" points="489.5,196.6 489.7,172.1 490.7,173.1 492.8,173.7 494.7,174.7 495.5,174.6 498.4,172.7 500,170.4 
		501.3,170 502.5,168.1 504,167.2 507.4,168.3 507.8,171.2 508.5,172 509.5,172 511.2,171.2 513.2,171.8 513.1,198.5 492.4,198.4 
		489.6,198.3 	"/>
	<polygon class="st2" points="565,200.1 543.6,200.6 543.6,199.3 538.6,199.1 538.7,169.5 539,168.7 540.4,169.4 541.2,170.8 
		541.3,173.1 542.2,174.4 543,174.6 544.4,173.8 545.2,173.9 547.5,176.1 549.2,175.9 550.1,175.1 550.8,171.9 551.4,171.4 
		555.2,172.4 553.8,174.3 554.4,175.4 556.3,176.4 558.7,177 559.2,178.5 559.8,179.1 563,178.5 565.3,181.2 	"/>
	<polygon class="st1" points="538.6,199.1 517.8,198.5 513.1,198.5 513.2,171.8 513.9,172.1 514.1,172.7 514.3,175.8 516.3,176.7 
		518.5,176.1 519.6,174.4 520.8,173.9 520.9,172.4 522.8,173.7 523.2,174.5 523.8,173.7 524.1,172.5 525.7,171.9 526.8,172.2 
		527.9,174.3 527.7,175.2 526.5,175.8 525.8,176.7 526.7,180.5 528.5,181.9 530.2,182.1 531.4,181.7 531.7,181.1 531.5,177.4 
		533.3,176.5 532,175.7 531.8,175 532.3,174.6 534.4,175.6 535.4,175 536.2,173.5 536.2,169.7 537.1,170.1 538.7,169.5 	"/>
	<polygon class="st1" points="615.6,201.4 613.4,200.9 611,199.1 600.9,195.6 597.7,195.8 595.9,195.2 593.7,195.2 589.7,196.7 
		590,175.5 590.9,175.4 592.4,174.2 593.6,174.9 593.8,173.4 594,172.6 594.7,172 596.9,172.5 600,171.1 601,171 600.9,170.1 
		601.3,169.7 603.3,170.1 604.1,172 605.4,171.8 605,172.3 604,172.6 604.2,173 605.7,172.3 606.3,173.2 607.8,173 608.6,174.1 
		614.3,173.8 614,172.4 615.6,173 	"/>
	<polygon class="st3" points="565,200.1 565.3,181.2 566.4,183.2 567.8,183.4 568.6,182.7 569.1,180 569.6,179.4 572.7,180.3 
		573.9,180.2 574.8,179.6 575.1,178 576.1,176.7 575.5,176.5 574.2,177.4 574.1,177 574.8,176.2 575.7,175.8 577.6,176.2 
		578.4,175.3 580.5,175.5 581.5,174.7 582.1,175.4 582.7,174.6 582.6,173.7 583,173.6 583.8,174.6 584.7,174.2 585.4,172.8 
		585.9,172.7 590,175.5 589.7,196.7 589.7,199.9 569.2,203.1 565.1,203.8 	"/>
	<polygon class="st1" points="369.9,201 369.6,175.6 391.6,175.5 394.3,175.5 394.4,176 394.9,200.7 	"/>
	<polygon class="st4" points="369.9,201 358.3,200.7 345.2,200.9 345.1,175.8 369.6,175.6 	"/>
	<polygon class="st1" points="320.8,201 320.8,175.9 345.1,175.8 345.2,200.9 	"/>
	<polygon class="st5" points="296.8,201.1 296.4,176 320.8,175.9 320.8,201 	"/>
	<polygon class="st1" points="468.9,200.6 443.7,200.6 443.7,176 468.9,175.9 469,196.5 	"/>
	<polygon class="st1" points="296.8,201.1 272.5,201.4 271.7,176.1 296.4,176 	"/>
	<polygon class="st1" points="394.9,200.7 394.4,176 402,176 402.7,177 403.4,176.7 405.3,177 406,176.7 406.1,177.9 406.8,177.4 
		407.3,177.9 407.7,177 408,178 408.4,178 408.8,176.5 410.2,177.2 410.9,176.9 413.1,178 413.6,178.7 414.2,177.8 414.7,178.4 
		415.7,178.1 415.8,178.8 416.8,178.7 417,179.5 418.2,179.7 418.7,181.1 419.4,181.7 419.4,200.5 	"/>
	<polygon class="st2" points="443.7,200.6 419.4,200.5 419.4,181.7 419.3,176.3 443.7,176 	"/>
	<polygon class="st1" points="272.3,201.4 251.1,201.7 251.3,191.1 251.6,176.4 271.7,176.1 272.5,201.4 	"/>
	<polygon class="st1" points="589.5,210.2 589.7,199.9 589.7,196.7 593.7,195.2 595.9,195.2 597.7,195.8 600.9,195.6 611,199.1 
		613.4,200.9 615.6,201.4 615.6,201.5 615.1,202.2 613.5,202.7 610.5,202.1 608.1,203.1 605.8,203.5 601.9,203 599.1,205.4 
		598,205.8 596.4,205.7 594.4,206.5 592.5,209 	"/>
	<polygon class="st1" points="468.8,222.6 468.9,200.6 469,196.5 489.5,196.6 489.6,198.3 492.4,198.4 492.5,222.9 486.1,222.8 	"/>
	<polygon class="st3" points="492.5,222.9 492.4,198.4 513.1,198.5 517.8,198.5 517.3,223.2 510.2,223.1 	"/>
	<polygon class="st4" points="543.2,223.3 534.3,223.2 534.3,223.5 517.3,223.2 517.8,198.5 538.6,199.1 543.6,199.3 543.6,200.6 	
		"/>
	<polygon class="st1" points="589.1,223.7 585.7,223.8 584,228.9 584.3,230.1 585.5,231.3 579,231.6 568.9,231.3 569.1,223.8 
		569.2,203.1 589.7,199.9 589.5,210.2 	"/>
	<polygon class="st1" points="543.2,223.3 543.6,200.6 565,200.1 565.1,203.8 569.2,203.1 569.1,223.8 558.4,223.6 	"/>
	<polygon class="st5" points="394.9,225.3 394.9,200.7 419.4,200.5 419.6,225.2 413,225.2 	"/>
	<polygon class="st1" points="437,225.5 419.6,225.2 419.4,200.5 443.7,200.6 443.7,225.5 	"/>
	<polygon class="st1" points="461.9,225.7 443.7,225.5 443.7,200.6 468.9,200.6 468.8,222.6 468.8,225.6 	"/>
	<polygon class="st2" points="345.3,225.5 345.2,200.9 358.3,200.7 369.9,201 369.8,225.4 363.4,225.4 	"/>
	<polygon class="st1" points="369.8,225.4 369.9,201 394.9,200.7 394.9,225.3 387.4,225.3 	"/>
	<polygon class="st3" points="339.1,225.7 320.9,225.4 320.8,201 345.2,200.9 345.3,225.5 	"/>
	<polygon class="st1" points="315,225.5 296.9,225.4 296.8,201.1 320.8,201 320.9,225.4 	"/>
	<polygon class="st1" points="291,225.6 272.5,225.7 272.3,201.4 272.5,201.4 296.8,201.1 296.9,225.4 	"/>
	<polygon class="st5" points="272.5,225.7 250.8,225.6 251.1,201.7 272.3,201.4 	"/>
	<polygon class="st1" points="615.3,224.8 598.7,224.7 598.6,223.8 589.1,223.7 589.5,210.2 592.5,209 594.4,206.5 596.4,205.7 
		598,205.8 599.1,205.4 601.9,203 605.8,203.5 608.1,203.1 610.5,202.1 613.5,202.7 615.1,202.2 615.6,201.5 	"/>
	<polygon class="st6" points="602,240.3 601.2,239.2 600.3,238.6 598.7,224.7 615.3,224.8 621.9,224.8 622.8,222.2 622.8,227.8 
		622.6,247 620.8,248.5 619.7,247.4 616.5,247 615.9,246 614.6,245.3 611.4,245.4 606,244.4 605.1,242.7 	"/>
	<polygon class="st1" points="461.5,249.8 461.9,225.7 468.8,225.6 468.8,222.6 486.1,222.8 485.7,247.7 485.6,249.9 466.5,249.8 	
		"/>
	<polygon class="st1" points="485.7,247.7 486.1,222.8 492.5,222.9 510.2,223.1 509.9,247.6 506.6,247.9 	"/>
	<polygon class="st4" points="534.2,247.8 531.4,247.8 509.9,247.6 510.2,223.1 517.3,223.2 534.3,223.5 	"/>
	<polygon class="st7" points="534.2,247.8 534.3,223.5 534.3,223.2 543.2,223.3 558.4,223.6 558.3,232.9 558.3,248 557.5,248 	"/>
	<polygon class="st1" points="568.9,231.3 568.9,232.8 558.3,232.9 558.4,223.6 569.1,223.8 	"/>
	<polygon class="st1" points="600.3,238.6 598.5,238.6 596.2,236.9 594,236.3 593.1,235.3 589.4,235.4 586.8,233.7 585.5,231.3 
		584.3,230.1 584,228.9 585.7,223.8 589.1,223.7 598.6,223.8 598.7,224.7 	"/>
	<polygon class="st3" points="436.8,249.7 436.1,249.7 412.5,249.9 413,225.2 419.6,225.2 437,225.5 	"/>
	<polygon class="st1" points="412,249.9 411.9,249.6 387.3,249.8 387.4,225.3 394.9,225.3 413,225.2 412.5,249.9 	"/>
	<polygon class="st4" points="387.3,249.8 363.1,249.8 363.4,225.4 369.8,225.4 387.4,225.3 	"/>
	<polygon class="st8" points="363.1,249.8 338.9,249.7 339.1,225.7 345.3,225.5 363.4,225.4 	"/>
	<polygon class="st6" points="338.9,249.7 314.8,249.7 315,225.5 320.9,225.4 339.1,225.7 	"/>
	<polygon class="st7" points="314.8,249.7 290.5,249.7 291,225.6 296.9,225.4 315,225.5 	"/>
	<polygon class="st3" points="461.5,249.8 436.8,249.7 437,225.5 443.7,225.5 461.9,225.7 	"/>
	<polygon class="st1" points="250.3,250.1 250.8,225.6 272.5,225.7 291,225.6 290.5,249.7 	"/>
	<polygon class="st1" points="561.6,258.6 562,255.9 561.3,254.8 559.5,253.1 559,252.1 558.9,249 558,248.8 557.5,248 558.3,248 
		558.3,232.9 568.9,232.8 568.9,231.3 579,231.6 579.3,258.8 	"/>
	<polygon class="st1" points="579.3,258.8 579,231.6 585.5,231.3 586.8,233.7 589.4,235.4 593.1,235.3 594,236.3 596.2,236.9 
		598.5,238.6 600.3,238.6 601.2,239.2 602,240.3 602.1,251.9 603.6,253.9 605.8,255.6 606.9,257.3 608.7,258.9 	"/>
	<polygon class="st1" points="630.3,270.9 608,271.1 607.4,270.4 608,267.6 607.2,265.9 608.6,263 608.7,258.9 606.9,257.3 
		605.8,255.6 603.6,253.9 602.1,251.9 602,240.3 605.1,242.7 606,244.4 611.4,245.4 614.6,245.3 615.9,246 616.5,247 619.7,247.4 
		620.8,248.5 622.6,247 623.5,248.3 625.7,247.9 626.4,248.6 628.4,248.7 628.8,248.2 629.6,249.5 630.3,249 630.3,258.2 	"/>
	<polygon class="st1" points="506.8,267.1 506.7,260.8 506.6,247.9 509.9,247.6 531.4,247.8 531.6,263.5 513.8,268.3 513.8,268.7 
		512,269.4 512,270.6 511.1,270.8 509.2,270.2 508.8,268.5 507.6,268.6 508.3,267.6 508,267.3 	"/>
	<polygon class="st1" points="491.3,265.5 485.6,249.9 485.7,247.7 506.6,247.9 506.7,260.8 498.8,260.8 	"/>
	<polygon class="st7" points="531.6,263.5 531.4,247.8 534.2,247.8 557.5,248 558,248.8 558.9,249 559,252.1 559.5,253.1 
		561.3,254.8 562,255.9 561.6,258.6 562.5,259.8 563.3,259.9 564,260.5 540.4,274 538.5,275.1 	"/>
	<polygon class="st8" points="411.9,274.1 408,274.1 387,274.1 387.3,249.8 411.9,249.6 412,249.9 	"/>
	<polygon class="st1" points="334.7,273.8 314.6,273.8 314.8,249.7 338.9,249.7 339.2,273.7 	"/>
	<polygon class="st4" points="362.9,273.9 356,274.1 339.2,273.7 338.9,249.7 363.1,249.8 	"/>
	<polygon class="st1" points="435.8,274.2 436.1,249.7 436.8,249.7 461.5,249.8 466.5,249.8 466.5,262 462.6,264.3 454.1,269.1 
		452.9,269.4 452.5,270 445.1,274.3 	"/>
	<polygon class="st1" points="432.3,274.2 411.9,274.1 412,249.9 412.5,249.9 436.1,249.7 435.8,274.2 	"/>
	<polygon class="st2" points="310.8,273.9 290.3,274 290.5,249.7 314.8,249.7 314.6,273.8 	"/>
	<polygon class="st3" points="250.3,250.1 290.5,249.7 290.3,274 286.5,274.1 262.8,274 250.5,274.1 	"/>
	<polygon class="st6" points="387,274.1 383.3,274.1 362.9,273.9 363.1,249.8 387.3,249.8 	"/>
	<polygon class="st3" points="488.3,277.6 478.9,283.4 476.7,279.7 473.2,281.9 462.6,264.3 466.5,262 466.5,249.8 485.6,249.9 
		491.3,265.5 491.2,266 494.9,273.5 	"/>
	<polygon class="st6" points="609.5,274.2 580.4,277.9 579.8,277 580.1,275.4 579.8,274 578,273.9 577.4,273.1 577.8,269.9 
		577.3,269.5 576.4,269.9 575.9,269.8 574.8,268.9 575.9,266.6 573.9,267.2 573.8,266.2 573.2,266.5 571.2,264.6 570.4,264.9 
		569.3,264.1 569.3,262.6 568.8,261.9 567.3,261.8 564.6,260.3 564,260.5 563.3,259.9 562.5,259.8 561.6,258.6 579.3,258.8 
		608.7,258.9 608.6,263 607.2,265.9 608,267.6 607.4,270.4 608,271.1 608.1,272.4 	"/>
	<polygon class="st1" points="559.1,289.6 548.8,288.5 540.4,274 564,260.5 564.6,260.3 567.3,261.8 568.8,261.9 569.3,262.6 
		569.3,264.1 570.4,264.9 571.2,264.6 573.2,266.5 573.8,266.2 573.9,267.2 575.9,266.6 574.8,268.9 575.9,269.8 576.4,269.9 
		577.3,269.5 577.8,269.9 577.4,273.1 578,273.9 579.8,274 580.1,275.4 579.8,277 580.4,277.9 	"/>
	<polygon class="st1" points="494.9,273.5 491.2,266 491.3,265.5 498.8,260.8 506.7,260.8 506.8,267.1 506.1,266.9 	"/>
	<polygon class="st1" points="522.6,292.5 521,291.7 520.6,290.6 522.3,288.6 522.4,287.6 520,287.5 519.4,286.7 517.9,286 
		518.1,284.6 515.6,282.5 516,281.5 517.5,280 516.1,278.9 515.1,277.5 513.4,277.8 512.7,276.9 512.4,275.9 513.1,273.4 
		512.5,271.4 514.1,269.9 513.8,268.7 513.8,268.3 531.6,263.5 538.5,275.1 540.4,274 548.8,288.5 538.8,294.3 533.9,286.2 	"/>
	<polygon class="st4" points="466.9,295.9 465.2,294 457,295.2 445.1,274.3 452.5,270 452.9,269.4 454.1,269.1 462.6,264.3 
		473.2,281.9 476.7,279.7 478.9,283.4 481.1,287.4 	"/>
	<polygon class="st4" points="499.9,296.6 488.3,277.6 494.9,273.5 506.1,266.9 506.8,267.1 508,267.3 508.3,267.6 507.6,268.6 
		508.8,268.5 509.2,270.2 511.1,270.8 512,270.6 512,269.4 513.8,268.7 514.1,269.9 512.5,271.4 513.1,273.4 512.4,275.9 
		512.7,276.9 513.4,277.8 515.1,277.5 516.1,278.9 517.5,280 516,281.5 515.6,282.5 518.1,284.6 517.9,286 519.4,286.7 520,287.5 
		522.4,287.6 522.3,288.6 520.6,290.6 521,291.7 522.6,292.5 507.3,301.4 503.1,294.9 	"/>
	<polygon class="st1" points="635.8,304.8 629.9,309.9 627.8,309.4 627.1,308.3 625,307.7 624.8,307.1 625.2,305.8 623.2,303.5 
		623.1,302.6 621.5,301.8 619.6,302.3 618.3,302.1 617.4,301.5 617.2,301 617.3,299.7 616.4,298.8 616.3,296.5 614.5,294.4 
		613.8,294.6 613.9,293.6 612.9,293.8 612.8,292.7 611.6,292.2 611.2,290 610.4,288.3 609.1,287.4 609.4,286 609.1,284.7 
		609.8,282.8 608.7,281.5 608.6,279.7 609.8,278.1 609.4,277.3 609.8,276.3 609.5,274.2 608.1,272.4 608,271.1 630.3,270.9 
		630.5,280.1 630.8,281.2 630.3,282.4 630.4,287.1 630.8,290.6 632.9,291.8 632.7,292.3 631.8,292.6 631.5,293.3 632.4,298 
		633.8,302.1 634.1,302.4 634.8,302.3 634.9,303.9 	"/>
	<polygon class="st1" points="334.6,298 334.7,273.8 339.2,273.7 356,274.1 355.5,295.3 353.8,295.3 353.6,302.6 334.5,302.8 	"/>
	<polygon class="st1" points="334.6,298 311,298.1 310.8,273.9 314.6,273.8 334.7,273.8 	"/>
	<polygon class="st1" points="311,298.1 286.6,298 286.5,274.1 290.3,274 310.8,273.9 	"/>
	<polygon class="st1" points="383.5,295.6 355.5,295.3 356,274.1 362.9,273.9 383.3,274.1 	"/>
	<polygon class="st1" points="262.5,298 236.9,297.8 237.5,278.6 250.4,278.7 250.5,274.1 262.8,274 	"/>
	<polygon class="st6" points="262.5,298 262.8,274 286.5,274.1 286.6,298 285.9,297.9 264.1,298.1 	"/>
	<polygon class="st1" points="389,301.8 383.5,301.7 383.5,295.6 383.3,274.1 387,274.1 408,274.1 407.8,302.2 407.4,302.2 	"/>
	<polygon class="st1" points="431.8,308 431.5,308.2 430.7,307.3 429.8,307.5 428.4,309.2 427.8,309.1 427.9,310.1 427.1,310.1 
		427,310.9 426.6,311.2 425.1,310.7 425.2,309.5 424.2,309.9 423.5,309.4 422.5,309.4 422.1,308.9 422.3,308.2 420.6,307.7 
		420.1,308.4 420.6,309.2 419.7,309.5 419.3,310.4 418,309.5 417.6,310.5 417.1,310.1 416.1,307.6 414.5,306.9 413.2,307 412,306.4 
		411.8,306.9 412.6,307.8 411.9,308.1 410.7,306.7 409.8,306.5 410,305.5 410.5,305.3 410.7,304.6 410.3,304.3 409,304.6 
		409.2,303.9 409.9,303.5 409,303.4 408.6,302.4 407.9,303.1 407.4,302.2 407.8,302.2 408,274.1 411.9,274.1 432.3,274.2 	"/>
	<polygon class="st1" points="431.8,308 432.3,274.2 435.8,274.2 445.1,274.3 457,295.2 452.7,295.9 451.7,300.4 442.1,307.2 
		440.7,308.1 439.9,307.2 439.1,307 438.6,308.2 438.2,308 437.8,308.5 437.1,308.7 437,309.2 436.3,308.2 435.7,308.8 433.6,308.1 
		433,308.6 432.5,307.8 	"/>
	<polygon class="st1" points="595.3,305.6 594.1,304.3 594.4,303.4 596,302.9 595.5,301.8 596.3,300.9 596.3,299.2 595.6,298.2 
		594.9,298.1 594.2,298.3 594.1,300.4 593.6,300.6 592.7,299.6 592.6,297.7 593,295.9 592.5,295.7 592.1,296.5 591,295.5 
		589.1,295.6 588.9,293.7 588.4,293.2 588.9,292.6 587.8,292.2 587.8,291.5 586.4,291.6 583.9,290.3 584,288.6 583.3,287.2 
		584.4,285.6 583.7,285.4 583.1,285.8 581.7,285.4 581.5,284.9 582.7,283.7 582.8,283.1 582,281.4 580.3,281.3 580.2,280.8 
		580.7,280.6 580.2,279.6 580.4,277.9 609.5,274.2 609.8,276.3 609.4,277.3 609.8,278.1 608.6,279.7 608.7,281.5 609.8,282.8 
		609.1,284.7 609.4,286 609.1,287.4 610.4,288.3 611.2,290 611.6,292.2 612.8,292.7 612.9,293.8 613.9,293.6 613.8,294.6 
		614.5,294.4 616.3,296.5 616.4,298.8 617.3,299.7 617.2,301 598.9,304 598.9,304.8 	"/>
	<polygon class="st1" points="480.1,308.4 476.3,310.7 466.9,295.9 481.1,287.4 478.9,283.4 488.3,277.6 499.9,296.6 	"/>
	<polygon class="st1" points="571.7,310.9 559.1,289.6 580.4,277.9 580.2,279.6 580.7,280.6 580.2,280.8 580.3,281.3 582,281.4 
		582.8,283.1 582.7,283.7 581.5,284.9 581.7,285.4 583.1,285.8 583.7,285.4 584.4,285.6 583.3,287.2 584,288.6 583.9,290.3 
		586.4,291.6 587.8,291.5 587.8,292.2 588.9,292.6 588.4,293.2 588.9,293.7 589.1,295.6 591,295.5 592.1,296.5 592.5,295.7 
		593,295.9 592.6,297.7 592.7,299.6 	"/>
	<polygon class="st5" points="515.8,315.9 507.3,301.4 522.6,292.5 533.9,286.2 538.8,294.3 545,305 522.7,318.4 519.6,320.2 	"/>
	<polygon class="st1" points="567.7,313.8 554.7,321.4 545,305 538.8,294.3 548.8,288.5 559.1,289.6 571.7,310.9 567.6,313.2 	"/>
	<polygon class="st1" points="461.9,321.1 461.2,319.5 460.2,319.8 458.9,318.6 460.3,318.2 460.6,316 459.1,316.8 458.7,316.4 
		459.1,316.2 458.8,315.8 458,316.5 457.8,316 458.2,315.8 458,315.2 458.4,314.4 457.8,314.2 457.7,313.6 455.3,315.2 455,314.7 
		455.7,312.3 455.3,311.5 454.3,311.5 454.4,310.9 454,310.3 453,311.5 452.9,312.7 451.9,313 451.9,311.5 450.3,311.6 450,311.1 
		448.6,311.1 447.3,309.7 444.9,310 444.8,309.3 444,308.8 442.9,309.7 442.9,308.9 441.9,308.3 442.1,307.2 451.7,300.4 
		452.7,295.9 457,295.2 465.2,294 466.9,295.9 476.3,310.7 476.3,311.1 	"/>
	<polygon class="st4" points="492.9,330 480.1,308.4 499.9,296.6 503.1,294.9 507.3,301.4 515.8,315.9 	"/>
	<polygon class="st1" points="389,329.2 362.1,329.3 361.8,304.7 334.5,304.9 334.5,302.8 353.6,302.6 353.8,295.3 355.5,295.3 
		383.5,295.6 383.5,301.7 389,301.8 	"/>
	<polygon class="st1" points="252.3,313.2 250.9,312.5 249.5,313.8 244.2,313.3 241.4,312.1 240.7,310.1 240,310.6 237.5,310.7 
		235.3,310.5 234.6,309.7 233.4,310.1 232.8,309.7 232.1,310 231.3,309.6 230.3,308.8 230.3,306.9 229.4,305.2 230,304.6 
		228.9,301.8 229.6,300.7 229.1,300.1 229.3,299.2 228.3,298.9 227.8,298.4 227.2,298.2 226.6,298.7 224.7,297.8 236.9,297.8 
		262.5,298 264.1,298.1 264,317.7 261.3,319.3 260.5,318.2 259.4,317.6 258.8,316.3 256.5,315 253.5,314.3 	"/>
	<polygon class="st1" points="285.9,329.3 282,329.3 280.2,327.4 280.2,324.3 279.7,322.7 276.4,320 274.2,319.4 272.4,319.5 
		272,318.3 270.6,318 270.5,317.3 269.4,316.8 269.2,316 268.2,316.2 266.3,317.5 266,318.4 265.5,318.6 265.1,318.7 264.7,317.8 
		264,317.7 264.1,298.1 285.9,297.9 	"/>
	<polygon class="st1" points="310.9,329.2 285.9,329.3 285.9,297.9 286.6,298 311,298.1 	"/>
	<polygon class="st6" points="310.9,329.2 311,298.1 334.6,298 334.5,302.8 334.5,304.9 334.3,329.3 	"/>
	<polygon class="st2" points="593.7,328.4 583.8,328.8 582.2,329.8 579.8,330.3 574.4,334 571.3,335.1 571.3,334.3 570.5,333 
		570.9,331 569.7,329.3 569.6,327.5 569.2,327 567.4,319.5 568.1,318.8 567.6,318 567.6,316.5 568,315.4 567.7,313.8 567.6,313.2 
		571.7,310.9 592.7,299.6 593.6,300.6 594.1,300.4 594.2,298.3 594.9,298.1 595.6,298.2 596.3,299.2 596.3,300.9 595.5,301.8 
		596,302.9 594.4,303.4 594.1,304.3 595.3,305.6 594.8,306.6 595.7,307.4 595.6,307.8 595,307.8 594.8,308.4 595.1,308.7 
		595.5,308.3 596,308.5 597.1,312.7 597.4,313.4 598.6,314 597.9,314.8 598.9,315 599,315.9 598.1,316.4 598,317.8 596.9,317.5 
		595.8,319 595.8,320.8 594.9,321.9 594.7,323 595.4,325.2 594.3,325.5 593.1,326.7 	"/>
	<polygon class="st3" points="609.1,330.8 600.3,337.7 599.6,337.5 598,334.5 598.7,333.2 598.6,332.3 599.4,331.8 600.3,331.8 
		600.1,331 599.4,330.7 599,329.5 597.9,329.7 595.6,329.4 594.2,329 593.7,328.4 593.1,326.7 594.3,325.5 595.4,325.2 594.7,323 
		594.9,321.9 595.8,320.8 595.8,319 596.9,317.5 598,317.8 598.1,316.4 599,315.9 598.9,315 597.9,314.8 598.6,314 597.4,313.4 
		597.1,312.7 596,308.5 595.5,308.3 595.1,308.7 594.8,308.4 595,307.8 595.6,307.8 595.7,307.4 594.8,306.6 595.3,305.6 
		598.9,304.8 598.9,304 617.2,301 617.4,301.5 618.3,302.1 619.6,302.3 621.5,301.8 623.1,302.6 623.2,303.5 625.2,305.8 
		624.8,307.1 625,307.7 627.1,308.3 627.8,309.4 629.9,309.9 630,310.6 631.7,312.4 631.6,312.9 	"/>
	<polygon class="st3" points="413.2,329.2 389,329.2 389,301.8 407.4,302.2 407.9,303.1 408.6,302.4 409,303.4 409.9,303.5 
		409.2,303.9 409,304.6 410.3,304.3 410.7,304.6 410.5,305.3 410,305.5 409.8,306.5 410.7,306.7 411.9,308.1 412.6,307.8 
		411.8,306.9 412,306.4 413.2,307 	"/>
	<polygon class="st5" points="362.1,329.3 349.1,329.4 334.3,329.3 334.5,304.9 361.8,304.7 	"/>
	<polygon class="st1" points="531.9,334.2 522.7,318.4 545,305 554.7,321.4 543.7,327.8 543.4,327.5 	"/>
	<polygon class="st2" points="419,337.2 413.2,337.2 413.2,329.2 413.2,307 414.5,306.9 416.1,307.6 417.1,310.1 417.6,310.5 
		418,309.5 419.3,310.4 419.7,309.5 420.6,309.2 420.1,308.4 420.6,307.7 422.3,308.2 422.1,308.9 422.5,309.4 423.5,309.4 
		424.2,309.9 425.2,309.5 425.1,310.7 426.6,311.2 427,310.9 427.1,310.1 427.9,310.1 427.8,309.1 428.4,309.2 429.8,307.5 
		430.7,307.3 431.5,308.2 431.8,308 432.5,307.8 433,308.6 433.6,308.1 435.7,308.8 436.3,308.2 437,309.2 437.3,337.3 	"/>
	<polygon class="st6" points="443.4,338.2 437.2,338.2 437.3,337.3 437,309.2 437.1,308.7 437.8,308.5 438.2,308 438.6,308.2 
		439.1,307 439.9,307.2 440.7,308.1 442.1,307.2 441.9,308.3 442.9,308.9 442.9,309.7 444,308.8 444.8,309.3 444.9,310 447.3,309.7 
		448.6,311.1 450,311.1 450.3,311.6 451.9,311.5 451.9,313 452.9,312.7 453,311.5 454,310.3 454.4,310.9 454.3,311.5 455.3,311.5 
		455.7,312.3 455,314.7 455.3,315.2 457.7,313.6 457.8,314.2 458.4,314.4 458,315.2 458.2,315.8 457.8,316 458,316.5 458.8,315.8 
		459.1,316.2 458.7,316.4 459.1,316.8 460.6,316 460.3,318.2 458.9,318.6 460.2,319.8 461.2,319.5 461.9,321.1 461.8,323.1 
		463.2,323.5 463.3,324.4 464.5,324.8 464.6,325.2 463.6,325.7 463.6,326.7 462.8,326.9 462.8,327.2 463.8,328.4 464.2,328.4 
		465.4,327.6 466.2,327.6 466.3,327.9 467,328 466.4,328.6 467.1,329.6 466.2,329.9 466,330.7 468,332.3 467,333.1 467.8,334.9 
		467.4,336.5 469.1,337.3 469.1,337.8 467.7,338.4 	"/>
	<polygon class="st1" points="492.7,331.7 468,332.3 466,330.7 466.2,329.9 467.1,329.6 466.4,328.6 467,328 466.3,327.9 
		466.2,327.6 465.4,327.6 464.2,328.4 463.8,328.4 462.8,327.2 462.8,326.9 463.6,326.7 463.6,325.7 464.6,325.2 464.5,324.8 
		463.3,324.4 463.2,323.5 461.8,323.1 461.9,321.1 476.3,311.1 476.3,310.7 480.1,308.4 492.9,330 	"/>
	<polygon class="st1" points="620.6,343.4 618.6,342.4 618.4,340.1 617.7,339.3 615.2,339.6 614.8,340.8 614.4,341.1 613.5,340.7 
		613.1,341.4 612.2,341.7 610.7,341.2 610.9,340.1 611.4,339.9 610.1,339.1 610,337.8 609.1,337.1 609.1,330.8 631.6,312.9 
		631.9,315.1 634.1,315.5 634.8,317.5 635.5,318 634.9,319.8 636.1,320.5 637.1,322 637.5,323.7 638,324.4 637.7,325.9 	"/>
	<polygon class="st1" points="311.6,352.4 293.4,352.6 293.3,355.8 282.6,355.7 282.8,373.2 273.2,373.6 273,385.4 232.3,352.3 
		225.5,346.6 252.3,313.2 253.5,314.3 256.5,315 258.8,316.3 259.4,317.6 260.5,318.2 261.3,319.3 264,317.7 264.7,317.8 
		265.1,318.7 265.5,318.6 266,318.4 266.3,317.5 268.2,316.2 269.2,316 269.4,316.8 270.5,317.3 270.6,318 272,318.3 272.4,319.5 
		274.2,319.4 276.4,320 279.7,322.7 280.2,324.3 280.2,327.4 282,329.3 285,330.4 285.3,331.1 286,331.2 286.3,331.9 288.5,331.7 
		290.7,332.4 291.3,333.8 291.8,333.3 292.3,333.7 294.6,334 295,334.5 296.5,334.6 297.5,334 301.5,335 302.9,336.4 303.7,336.5 
		305,338.1 306.3,338.5 306.1,340.6 307.3,341.5 307.9,342.9 308.5,347.1 309.3,348.5 309.5,350.3 	"/>
	<polygon class="st3" points="553.2,348.5 553.1,347.7 553.8,346.9 553.6,346.3 553.2,345.7 552.3,345.6 552.5,343.9 550.2,341.7 
		550.1,338.8 548.8,339.1 547.4,337.7 546.6,335.6 547.3,334 546.5,333.7 546.3,331.7 545.5,330.7 544.5,330.5 543.7,327.8 
		554.7,321.4 567.7,313.8 568,315.4 567.6,316.5 567.6,318 568.1,318.8 567.4,319.5 569.2,327 569.6,327.5 569.7,329.3 570.9,331 
		570.5,333 571.3,334.3 571.3,335.1 565.8,338.8 563.4,342.4 561.3,347.7 555.8,350.3 554.8,349 	"/>
	<polygon class="st1" points="496.4,338.6 492.7,331.7 492.9,330 515.8,315.9 519.6,320.2 522.7,318.4 531.9,334.2 523.2,339.4 
		520.7,347.1 505.5,340.7 	"/>
	<polygon class="st1" points="537.1,357.8 528.3,363 522.8,348 520.7,347.1 523.2,339.4 531.9,334.2 543.4,327.5 543.7,327.8 
		544.5,330.5 545.5,330.7 546.3,331.7 546.5,333.7 547.3,334 546.6,335.6 547.4,337.7 548.8,339.1 550.1,338.8 550.2,341.7 
		552.5,343.9 552.3,345.6 553.2,345.7 553.6,346.3 553.8,346.9 553.1,347.7 553.2,348.5 	"/>
	<polygon class="st1" points="589.3,341.3 587.1,341.2 581.1,342.4 574.6,343.2 573.1,339.4 573.1,337 571.6,336.1 571.3,335.1 
		574.4,334 579.8,330.3 582.2,329.8 583.8,328.8 593.7,328.4 594.2,329 595.6,329.4 597.9,329.7 599,329.5 599.4,330.7 600.1,331 
		600.3,331.8 599.4,331.8 598.6,332.3 598.7,333.2 598,334.5 599.6,337.5 600.3,337.7 600.6,338.6 599.7,339.3 595.3,338.8 
		591.9,340.8 	"/>
	<polygon class="st2" points="349.3,350.5 349.1,329.4 362.1,329.3 389,329.2 388.8,349.9 388.9,350.7 	"/>
	<polygon class="st1" points="418.7,349.5 388.8,349.9 389,329.2 413.2,329.2 413.2,337.2 419,337.2 	"/>
	<polygon class="st8" points="349.5,373 312,373.1 312.6,371.3 314.1,370 316.6,369.7 316.5,369.2 314.7,367.9 314.7,366.8 
		312.7,365.7 313.7,364.4 313.1,363.4 313.5,363.2 314.6,363.7 315,362.1 315.8,361.3 315.6,360.3 316.7,359.2 317.1,357.9 
		316.5,356.6 316.7,354.5 314.9,353.3 312.2,353.1 311.6,352.4 309.5,350.3 309.3,348.5 308.5,347.1 307.9,342.9 307.3,341.5 
		306.1,340.6 306.3,338.5 305,338.1 303.7,336.5 302.9,336.4 301.5,335 297.5,334 296.5,334.6 295,334.5 294.6,334 292.3,333.7 
		291.8,333.3 291.3,333.8 290.7,332.4 288.5,331.7 286.3,331.9 286,331.2 285.3,331.1 285,330.4 282,329.3 285.9,329.3 310.9,329.2 
		334.3,329.3 349.1,329.4 349.3,350.5 	"/>
	<polygon class="st1" points="590.9,354.1 589.3,341.3 591.9,340.8 595.3,338.8 599.7,339.3 600.6,338.6 600.3,337.7 609.1,330.8 
		609.1,337.1 610,337.8 610.1,339.1 611.4,339.9 610.9,340.1 610.7,341.2 612.2,341.7 613.1,341.4 613.5,340.7 614.4,341.1 
		612.9,360.4 601.7,360.3 	"/>
	<polygon class="st7" points="472.2,361.6 472.1,357.9 471.7,357.3 470.6,357.7 469.6,357.3 469.1,353.6 468.1,352.5 468.5,351.8 
		469.6,351.5 469.4,349.6 470.4,349.3 471.1,348 468.8,347.2 468.3,346.7 468.6,345 470.7,343.3 470.6,343 468.9,342.7 468.7,341.5 
		466.9,340.7 467.7,338.4 469.1,337.8 469.1,337.3 467.4,336.5 467.8,334.9 467,333.1 468,332.3 492.7,331.7 496.4,338.6 490,346 
		486.4,354 482.7,361.4 483.4,361.6 483.9,362.2 482.6,364.8 	"/>
	<polygon class="st1" points="576,370.3 575.7,368 574.2,366.8 573.7,366.7 573.4,367.4 572.2,368 570.5,368.5 568.7,367.5 
		569.1,366.3 569.8,366 569.5,364.3 567.7,363.5 567,362.7 567,362.1 567.8,362.5 565.8,360.5 566.1,359.3 565.6,358.7 565.2,358.7 
		565.2,359.2 564.6,358.9 564.2,359.1 563.2,358.3 562.7,356.3 562.3,357 561,355.6 560,355.3 560,354.5 559.3,354.9 558.4,354.1 
		554.7,353.6 555.8,350.3 561.3,347.7 563.4,342.4 565.8,338.8 571.3,335.1 571.6,336.1 573.1,337 573.1,339.4 574.6,343.2 
		574.4,345 575.1,348.3 574.5,355.1 577.2,363.9 579,364.5 579.2,365.3 578,365.5 577.4,367.1 576.2,367.5 576.4,369.9 	"/>
	<polygon class="st7" points="443.3,360.9 427,361.1 418.6,361 418.7,349.5 419,337.2 437.3,337.3 437.2,338.2 443.4,338.2 	"/>
	<polygon class="st1" points="472.2,361.6 470.2,361.1 461,361.1 443.3,360.9 443.4,338.2 467.7,338.4 466.9,340.7 468.7,341.5 
		468.9,342.7 470.6,343 470.7,343.3 468.6,345 468.3,346.7 468.8,347.2 471.1,348 470.4,349.3 469.4,349.6 469.6,351.5 468.5,351.8 
		468.1,352.5 469.1,353.6 469.6,357.3 470.6,357.7 471.7,357.3 472.1,357.9 	"/>
	<polygon class="st1" points="518,365.5 516.9,364.5 515.8,364.4 512,362.3 510.4,362.8 509,361.5 508,361.2 503.6,362.4 
		502.5,363.4 500.4,364.1 499.6,364.9 498.9,364.8 495.8,362.8 494.8,358.9 493.2,357.4 492.2,357.1 492,355.3 490.2,354.3 489,355 
		488.1,354.3 487.4,355 486.4,354 490,346 496.4,338.6 505.5,340.7 520.7,347.1 522.8,348 528.3,363 528.4,363.6 519.9,366.4 	"/>
	<polygon class="st2" points="591.9,375.3 578,376.5 577.5,375.8 578.7,375.4 578.8,372.7 578.3,372.4 578.2,371.6 576.8,371.6 
		576,370.3 576.4,369.9 576.2,367.5 577.4,367.1 578,365.5 579.2,365.3 579,364.5 577.2,363.9 574.5,355.1 575.1,348.3 574.4,345 
		574.6,343.2 581.1,342.4 587.1,341.2 589.3,341.3 590.9,354.1 592.1,369.5 	"/>
	<polygon class="st4" points="568.7,367.5 566.9,368.2 566.4,368 564.1,369.3 563.4,369 562.8,369.7 561.5,369.7 552.2,372.3 
		549.4,370.9 547.5,370.7 546.4,368.1 545.2,366.7 542.5,365.1 541.2,363.5 540.3,363.3 540.5,361.9 539.6,359.6 537.1,357.8 
		553.2,348.5 554.8,349 555.8,350.3 554.7,353.6 558.4,354.1 559.3,354.9 560,354.5 560,355.3 561,355.6 562.3,357 562.7,356.3 
		563.2,358.3 564.2,359.1 564.6,358.9 565.2,359.2 565.2,358.7 565.6,358.7 566.1,359.3 565.8,360.5 567.8,362.5 567,362.1 
		567,362.7 567.7,363.5 569.5,364.3 569.8,366 569.1,366.3 	"/>
	<polygon class="st6" points="405.7,373.1 388.7,373 388.9,350.7 388.8,349.9 418.7,349.5 418.6,361 427,361.1 426.9,373.2 	"/>
	<polygon class="st4" points="361.9,373 349.5,373 349.3,350.5 388.9,350.7 388.7,373 	"/>
	<polygon class="st5" points="216.1,428.4 215.8,366.6 232.3,352.3 273,385.4 281.9,393 284.9,395.2 282.9,397.1 282.1,401.3 
		276.5,400.3 274.2,402.3 273.1,400.7 270.2,403.2 268.4,402.6 262.3,414.2 261.5,420.6 258.6,423.7 257.4,428.3 259.4,430.4 
		253.7,432.5 245.9,443.9 240.6,442.4 239.9,443.5 237.3,440.1 235.4,441.1 230.8,438.9 228.3,434.9 219.2,432.5 218.3,430.4 
		216.3,430.4 217,427.6 	"/>
	<polygon class="st4" points="311.5,400.2 309.4,400.6 308.7,398.8 303.8,400.2 301.5,398.5 297.2,400.4 284.9,395.2 281.9,393 
		273,385.4 273.2,373.6 282.8,373.2 282.6,355.7 293.3,355.8 293.4,352.6 311.6,352.4 312.2,353.1 314.9,353.3 316.7,354.5 
		316.5,356.6 317.1,357.9 316.7,359.2 315.6,360.3 315.8,361.3 315,362.1 314.6,363.7 313.5,363.2 313.1,363.4 313.7,364.4 
		312.7,365.7 314.7,366.8 314.7,367.9 316.5,369.2 316.6,369.7 314.1,370 312.6,371.3 312,373.1 311.6,373.2 	"/>
	<polygon class="st8" points="504.6,384.7 501.4,387.5 480.5,369.7 482.6,364.8 483.9,362.2 483.4,361.6 482.7,361.4 486.4,354 
		487.4,355 488.1,354.3 489,355 490.2,354.3 492,355.3 492.2,357.1 493.2,357.4 494.8,358.9 495.8,362.8 498.9,364.8 499.6,364.9 
		500.4,364.1 502.5,363.4 503.6,362.4 508,361.2 509,361.5 510.4,362.8 512,362.3 515.8,364.4 516.9,364.5 518,365.5 512.4,377.3 	
		"/>
	<polygon class="st2" points="625.3,379.5 617.8,386.4 616.5,386.5 616.2,387.1 615.2,386.8 614.4,385.5 613.2,384.6 611.1,383.9 
		609.6,382.5 607.6,383 606.7,382.8 605.8,380.8 604.2,379.8 603,380.1 602.3,380.9 598.1,383.2 596.1,383.1 593.4,383.9 
		591.6,383.9 591.9,375.3 592.1,369.5 590.9,354.1 601.7,360.3 612.9,360.4 615,366 618.2,367.8 620,369.3 619.4,371 622.2,369.5 	
		"/>
	<polygon class="st1" points="545.1,379.7 542.5,382 534.1,386.6 533.9,385.5 531.4,374.6 526.8,370.4 519.9,366.4 528.4,363.6 
		528.3,363 537.1,357.8 539.6,359.6 540.5,361.9 540.3,363.3 541.2,363.5 542.5,365.1 545.2,366.7 546.4,368.1 547.5,370.7 
		549.4,370.9 552.2,372.3 551.1,374 549.2,375.2 547.8,375.7 547,378.1 	"/>
	<polygon class="st1" points="460.6,381.1 445.1,381.2 426.9,380.9 426.9,373.2 427,361.1 443.3,360.9 461,361.1 	"/>
	<polygon class="st6" points="474.3,386.6 468.8,391.5 460.6,381.1 461,361.1 470.2,361.1 472.2,361.6 482.6,364.8 480.5,369.7 
		478.8,372.8 	"/>
	<polygon class="st6" points="520.3,400.5 504.6,384.7 512.4,377.3 518,365.5 519.9,366.4 526.8,370.4 531.4,374.6 533.9,385.5 
		526.2,394.5 	"/>
	<polygon class="st1" points="575.3,385.1 574.4,385.6 571.2,384.7 570.4,384.8 569.8,384.4 569.7,383.4 569,383.6 568.6,383.2 
		555.9,385.5 555.3,385.5 554.4,384.7 553.2,385.8 552.3,384.8 552.7,382.7 551.6,381.9 551.7,380.6 550.4,380.8 549.9,379.4 
		549.2,380.3 546.1,380.9 546,380.3 545.1,379.7 547,378.1 547.8,375.7 549.2,375.2 551.1,374 552.2,372.3 561.5,369.7 562.8,369.7 
		563.4,369 564.1,369.3 566.4,368 566.9,368.2 568.7,367.5 570.5,368.5 572.2,368 573.4,367.4 573.7,366.7 574.2,366.8 575.7,368 
		576,370.3 576.8,371.6 578.2,371.6 578.3,372.4 578.8,372.7 578.7,375.4 577.5,375.8 578,376.5 577.4,377.2 577,376.7 576.1,377.3 
		575.3,377.1 574.6,378.1 575.4,380.9 575,381 574.3,380.5 574.1,381.2 573.3,381.4 573.8,382.3 573.4,382.9 574.7,383 575,383.4 
		574.9,384.2 575.3,384.1 576,384.7 	"/>
	<polygon class="st1" points="488.2,401.9 486.8,397.2 474.3,386.6 478.8,372.8 480.5,369.7 501.4,387.5 498,391.5 496.4,392.2 
		493.2,394.9 492.9,396 492.2,396.4 493.5,396.5 490.7,398.9 	"/>
	<polygon class="st7" points="393.7,409.1 388.9,409 361.8,409.2 361.9,373 388.7,373 405.7,373.1 405.6,384.3 398.1,384.3 
		398.1,384 395.7,383.9 395.2,387.3 394.8,387.6 394.2,393.9 393.6,394.5 393.5,395.7 392.7,396.8 393.2,397.5 393.6,399.8 
		392.6,400.8 392.9,402.5 392.4,404.1 393.2,405.9 393,407.1 393.6,408.1 	"/>
	<polygon class="st7" points="361.8,409.2 361.8,418.6 361.2,423.2 360.6,424.5 359.5,425 359.3,426.5 359.6,427.6 359.3,428.9 
		358.8,429 358.8,429.7 357.3,429.4 356.9,429.7 346.9,422.7 344.1,417.2 335,414.4 335.3,408.8 332.7,411.4 332.9,407.6 
		329.9,407.3 327.7,402.5 328.4,401.2 326.2,401.7 325.1,400.2 321.9,401.6 321.7,399 319.9,401.4 317.2,401.9 311.5,400.2 
		311.6,373.2 312,373.1 349.5,373 361.9,373 	"/>
	<polygon class="st6" points="412.2,393 409,393 408.8,384.5 405.6,384.3 405.7,373.1 426.9,373.2 426.9,380.9 445.1,381.2 
		444.8,400 433.1,393.6 426.4,392.9 	"/>
	<polygon class="st1" points="590.5,399.8 585,402.7 583.9,402.7 583.9,403.1 580.6,403.1 580.3,399.7 580.1,399.4 579.5,399.8 
		579,399.2 578.1,399.1 578,398.4 577.3,398.2 576.8,397.5 578,396.5 577.3,395.6 578.2,395.3 576.8,394.4 577,393.3 576.5,392.2 
		576.7,391.8 577.5,391.7 576.9,390.8 578.2,390.8 577.8,390.3 577.8,389 578.4,388.4 578,387.5 577.3,387.4 577.2,386.6 576.7,386 
		575.8,385.6 575.3,385.1 576,384.7 575.3,384.1 574.9,384.2 575,383.4 574.7,383 573.4,382.9 573.8,382.3 573.3,381.4 574.1,381.2 
		574.3,380.5 575,381 575.4,380.9 574.6,378.1 575.3,377.1 576.1,377.3 577,376.7 577.4,377.2 578,376.5 591.9,375.3 591.6,383.9 
		590.9,384.4 590,384.1 588.6,382.3 587.3,382.2 586.6,381.3 584.4,380 	"/>
	<polygon class="st2" points="541.3,408.4 528.6,408.6 529.1,408 520.3,400.5 526.2,394.5 533.9,385.5 534.1,386.6 542.5,382 
		545.1,379.7 546,380.3 546.1,380.9 549.2,380.3 549.9,379.4 550.4,380.8 551.7,380.6 551.6,381.9 552.7,382.7 552.3,384.8 
		553.2,385.8 555.6,390.8 542.2,406.8 	"/>
	<polygon class="st1" points="619.6,412.2 617.8,412.5 617.9,411.9 617,410.3 616.2,410.1 614.2,410.2 613.6,410.7 611.7,410.8 
		611.1,411.3 610,411.1 606.8,409.6 607,410.8 606.2,411.4 606.3,409.2 601.2,406.7 590.5,399.8 584.4,380 586.6,381.3 587.3,382.2 
		588.6,382.3 590,384.1 590.9,384.4 591.6,383.9 593.4,383.9 596.1,383.1 598.1,383.2 602.3,380.9 603,380.1 604.2,379.8 
		605.8,380.8 606.7,382.8 607.6,383 609.6,382.5 611.1,383.9 613.2,384.6 614.4,385.5 615.2,386.8 616.2,387.1 616.5,386.5 
		617.8,386.4 625.3,379.5 627.4,385.9 627,387.9 627.7,388.7 629.3,388.9 630.4,390.6 629.7,393.2 630.6,394.8 630.8,395.6 
		632,396.3 632.6,397.5 633.8,397.6 633.5,399.2 633.6,401.5 632.5,403.6 633.1,404 633.6,405 633,405.9 625.7,399.3 627.9,404.3 
		630.3,406.1 629.2,412.6 626.8,412.3 625.8,413.4 624.8,414 624.4,414.8 622.2,415.5 621.6,415.3 620.7,414 620.3,412.1 	"/>
	<polygon class="st6" points="457.9,402.2 457.4,402 455,402.9 454.8,403.4 453.8,403 453.6,403.7 451.4,404 444.8,400 445.1,381.2 
		460.6,381.1 468.8,391.5 	"/>
	<polygon class="st1" points="574.2,408.6 572.4,407.2 570.2,406.4 569.6,405.3 569.6,404.1 568.6,403.3 566.4,398.1 566.2,397.9 
		565.6,398.6 562.9,398.1 561.7,396.5 560,396 557.2,393.7 555.6,390.8 553.2,385.8 554.4,384.7 555.3,385.5 555.9,385.5 
		568.6,383.2 569,383.6 569.7,383.4 569.8,384.4 570.4,384.8 571.2,384.7 574.4,385.6 575.3,385.1 575.8,385.6 576.7,386 
		577.2,386.6 577.3,387.4 578,387.5 578.4,388.4 577.8,389 577.8,390.3 578.2,390.8 576.9,390.8 577.5,391.7 576.7,391.8 
		576.5,392.2 577,393.3 576.8,394.4 578.2,395.3 577.3,395.6 578,396.5 576.8,397.5 577.3,398.2 578,398.4 578.1,399.1 579,399.2 
		579.5,399.8 580.1,399.4 580.3,399.7 580.6,403.1 580.8,403.8 581.4,403.8 581.8,404.4 581.5,404.7 581.7,405.7 580,405.9 
		580.3,406.8 581,406.4 581.6,407 581.3,407.5 581.7,408.7 581.4,410.4 578.8,410.4 578,409.5 576.4,409.5 	"/>
	<polygon class="st1" points="412.3,408.8 393.7,409.1 393.6,408.1 393,407.1 393.2,405.9 392.4,404.1 392.9,402.5 392.6,400.8 
		393.6,399.8 393.2,397.5 392.7,396.8 393.5,395.7 393.6,394.5 394.2,393.9 394.8,387.6 395.2,387.3 395.7,383.9 398.1,384 
		398.1,384.3 405.6,384.3 408.8,384.5 409,393 412.2,393 	"/>
	<polygon class="st1" points="505.4,407.7 505,407.1 500.6,405.3 500.6,404.3 500,403.9 499.1,404 499.4,403.3 499,402.3 
		498.4,401.8 497.6,401.9 496.8,400.1 496,400.5 495.3,397.5 493.5,396.5 492.2,396.4 492.9,396 493.2,394.9 496.4,392.2 498,391.5 
		501.4,387.5 504.6,384.7 520.3,400.5 507.1,408.2 	"/>
	<polygon class="st1" points="473.1,410.7 472.2,409.2 472,407.2 471.3,406.6 470.4,406.4 470.5,404.4 471.9,404.1 471.6,403.1 
		470.5,403.6 470.2,402.9 468.9,402.1 468.6,403.2 468,403.3 467.8,403.8 466.6,402.6 465.2,402.8 462.2,401.6 461.1,402.3 
		460.1,402 459.6,402.7 458.9,402.2 458.2,402.5 457.9,402.2 468.8,391.5 474.3,386.6 486.8,397.2 488.2,401.9 484.5,405.4 	"/>
	<polygon class="st1" points="552,430 551,429.1 555.7,424.1 545.3,411.5 543.3,411.7 542.9,409.7 541.3,408.4 542.2,406.8 
		555.6,390.8 557.2,393.7 560,396 561.7,396.5 562.9,398.1 565.6,398.6 566.2,397.9 566.4,398.1 568.6,403.3 569.6,404.1 
		569.6,405.3 570.2,406.4 572.4,407.2 574.2,408.6 568,415.2 566.1,420.6 	"/>
	<polygon class="st1" points="412.3,408.8 412.2,393 426.4,392.9 433.1,393.6 444.8,400 451.4,404 450.5,405.2 445.2,411.7 
		443.1,412.5 442.3,412.3 442.1,409.2 421.8,408.9 	"/>
	<polygon class="st6" points="481.8,418.9 481.8,418.5 482.3,418.1 482.4,416.4 481.7,416 480.4,416.5 480.2,415.6 479.3,415.9 
		478.8,414.3 477.9,413.9 477.2,412.9 477.6,412.3 476.4,411.7 476.2,412.5 475.1,412.6 473.1,410.7 484.5,405.4 488.2,401.9 
		490.7,398.9 493.5,396.5 495.3,397.5 496,400.5 496.8,400.1 497.6,401.9 498.4,401.8 499,402.3 499.4,403.3 499.1,404 500,403.9 
		500.6,404.3 500.6,405.3 505,407.1 505.4,407.7 496,422.1 483.8,421.8 483,422.4 482.1,420.6 482.3,419.8 	"/>
	<polygon class="st1" points="589.9,428.1 588.3,427.8 586.7,425.6 585.4,425.1 584.6,423.9 585.1,422.9 584,422.1 583.3,420.1 
		580.8,419.1 580.8,418.3 579.7,416.8 581.3,416.1 581.4,415.5 579.9,414.8 579.9,413.5 580.5,413.1 579.6,411.9 579.5,410.8 
		578.8,410.4 581.4,410.4 581.7,408.7 581.3,407.5 581.6,407 581,406.4 580.3,406.8 580,405.9 581.7,405.7 581.5,404.7 581.8,404.4 
		581.4,403.8 580.8,403.8 580.6,403.1 583.9,403.1 583.9,402.7 585,402.7 590.5,399.8 601.2,406.7 606.3,409.2 606.2,411.4 
		607,410.8 606.8,409.6 610,411.1 607.8,419.2 603.3,419.4 603.7,421 602.6,422 601.9,425 600.2,425 599.7,425.4 599.5,426.7 
		597.6,426.5 593.7,425.2 592.5,426.3 591.9,426 	"/>
	<polygon class="st1" points="501.2,430.4 495.1,423.4 496,422.1 505.4,407.7 507.1,408.2 520.3,400.5 529.1,408 528.6,408.6 
		525.9,411.1 525.7,415.4 524.5,421.9 512.4,431.3 506.5,436.4 	"/>
	<polygon class="st1" points="450.6,429.2 450.5,405.2 451.4,404 453.6,403.7 453.8,403 454.8,403.4 455,402.9 457.4,402 
		457.9,402.2 458.2,402.5 458.9,402.2 459.6,402.7 460.1,402 461.1,402.3 462.2,401.6 465.2,402.8 466.6,402.6 467.8,403.8 
		468,403.3 468.6,403.2 468.9,402.1 470.2,402.9 470.5,403.6 471.6,403.1 471.9,404.1 470.5,404.4 470.4,406.4 471.3,406.6 
		472,407.2 472.2,409.2 473.1,410.7 475.1,412.6 476.2,412.5 476.4,411.7 477.6,412.3 477.2,412.9 477.9,413.9 478.8,414.3 
		479.3,415.9 480.2,415.6 480.4,416.5 481.7,416 482.4,416.4 482.3,418.1 481.8,418.5 481.8,418.9 468.7,436.6 	"/>
	<polygon class="st1" points="450.5,437.8 422,437.8 421.8,408.9 442.1,409.2 442.3,412.3 443.1,412.5 445.2,411.7 450.5,405.2 
		450.6,429.2 	"/>
	<polygon class="st8" points="536.6,436.9 524.5,421.9 525.7,415.4 525.9,411.1 528.6,408.6 541.3,408.4 542.9,409.7 543.3,411.7 
		545.3,411.5 555.7,424.1 551,429.1 538.8,439.5 	"/>
	<polygon class="st1" points="588.6,430.3 584.4,434.6 568.3,444.6 552,430 566.1,420.6 568,415.2 574.2,408.6 576.4,409.5 
		578,409.5 578.8,410.4 579.5,410.8 579.6,411.9 580.5,413.1 579.9,413.5 579.9,414.8 581.4,415.5 581.3,416.1 579.7,416.8 
		580.8,418.3 580.8,419.1 583.3,420.1 584,422.1 585.1,422.9 584.6,423.9 585.4,425.1 586.7,425.6 588.3,427.8 589.9,428.1 
		590.1,428.7 	"/>
	<polygon class="st2" points="422,437.8 389,438 388.9,409 393.7,409.1 412.3,408.8 421.8,408.9 	"/>
	<polygon class="st1" points="389,438 362.9,438.5 358.2,433.8 356.9,429.7 357.3,429.4 358.8,429.7 358.8,429 359.3,428.9 
		359.6,427.6 359.3,426.5 359.5,425 360.6,424.5 361.2,423.2 361.8,418.6 361.8,409.2 388.9,409 	"/>
	<polygon class="st1" points="626.7,432.2 622.3,432 622.1,436.5 620.5,437.1 618.1,444 605,453.4 604.2,451.9 602.4,451.8 
		602,450.2 599.2,447.5 599,445.7 597.6,444.9 593.6,444 593.6,442.4 592.2,440.9 592.7,438.9 591.8,437.9 591.1,435.8 589.7,434.5 
		589.6,433.5 590.3,433.2 590,431.4 588.6,430.3 590.1,428.7 589.9,428.1 591.9,426 592.5,426.3 593.7,425.2 597.6,426.5 
		599.5,426.7 599.7,425.4 600.2,425 601.9,425 602.6,422 603.7,421 603.3,419.4 607.8,419.2 610,411.1 611.1,411.3 611.7,410.8 
		613.6,410.7 614.2,410.2 616.2,410.1 617,410.3 617.9,411.9 617.8,412.5 619.6,412.2 618.7,417.2 627,431.8 	"/>
	<polygon class="st1" points="479.8,449.1 473.5,441.6 468.7,436.6 481.8,418.9 482.3,419.8 482.1,420.6 483,422.4 483.8,421.8 
		496,422.1 495.1,423.4 501.2,430.4 	"/>
	<polygon class="st1" points="521.1,449.9 520.4,449.6 520.1,448.8 517.8,448 517.5,447.3 516.9,447.4 515.7,446.8 508.5,452.7 
		499.9,442.4 506.5,436.4 512.4,431.3 524.5,421.9 536.6,436.9 	"/>
	<polygon class="st8" points="567.5,460.5 564.3,460.5 564.2,457.5 562.6,458.3 561.6,456 562.4,459.1 556.4,458.9 555.9,459.4 
		555.8,453.1 555.6,459.4 554.9,458 552.3,458.2 551.7,457.7 551.2,455.9 549.9,455.3 549.4,452.9 548.5,452.4 549.2,450.7 
		548,448.8 545.5,446.9 544.5,444.9 544.6,443.9 543.2,441.5 538.8,439.5 551,429.1 552,430 568.3,444.6 	"/>
	<polygon class="st4" points="450.5,462.2 450.5,437.8 450.6,429.2 468.7,436.6 473.5,441.6 479.8,449.1 483.8,454.3 472.5,464 
		472.4,462.2 	"/>
	<polygon class="st5" points="567.4,462.5 567.5,460.5 568.3,444.6 584.4,434.6 588.6,430.3 590,431.4 590.3,433.2 589.6,433.5 
		589.7,434.5 591.1,435.8 591.8,437.9 592.7,438.9 592.2,440.9 593.6,442.4 593.6,444 597.6,444.9 599,445.7 599.2,447.5 602,450.2 
		602.4,451.8 604.2,451.9 605,453.4 597.7,457.5 598.2,456.1 592.8,456.8 585.7,459.4 584.8,463.1 596.8,457.9 573,470.3 
		583.1,464.5 583.5,461.4 571.5,465.8 571.5,464.4 575.3,463.7 571.4,462.4 575.6,455.6 572.7,459.6 569.3,461 570,458.4 	"/>
	<polygon class="st8" points="488.2,459.6 483.8,454.3 479.8,449.1 501.2,430.4 506.5,436.4 499.9,442.4 508.5,452.7 498.7,460.5 
		498.3,460.2 496.5,460.6 494.4,459.7 492.4,458 	"/>
	<polygon class="st1" points="528.3,467.6 528.1,465.3 527.3,464.6 527.8,457.5 527.2,457.1 527.8,456.4 527.9,454.7 526.7,452.9 
		526.5,451.5 524.8,450 524.4,450 524.7,450.8 523.9,450.7 523.5,451.3 521.4,451.1 521.1,449.9 536.6,436.9 538.8,439.5 
		543.2,441.5 544.6,443.9 544.5,444.9 545.5,446.9 548,448.8 549.2,450.7 548.5,452.4 549.4,452.9 549.9,455.3 551.2,455.9 
		551.7,457.7 551.4,458.3 551.8,459.2 548.6,461.1 542.2,463.1 539.1,465.3 540.2,467.2 540,468.2 540.4,469.6 539.8,470 
		539.8,470.5 539.3,470.6 537.9,469.7 534.6,469.1 534.4,468.3 533.4,468.2 532.8,467.3 532.8,467.6 532,467.5 531.8,468.1 
		530.3,467.1 	"/>
	<polygon class="st7" points="422.2,462.2 389.1,462.2 389,438 422,437.8 	"/>
	<polygon class="st5" points="450.5,462.2 422.9,462.3 422.2,462.2 422,437.8 450.5,437.8 	"/>
	<polygon class="st1" points="389.2,485.5 384.3,485.6 383.9,483.5 380.4,481.4 380.6,479.3 377.8,475.3 376.6,470.8 378.1,469.6 
		374.6,467.3 375.4,464.8 370.9,461 366.6,448.5 363.9,447 362.9,438.5 389,438 389.1,462.2 	"/>
	<polygon class="st1" points="518,476 517.5,475.4 517.1,475.6 516.8,474.8 515.7,474.5 514.8,475.2 512.8,473.1 512.1,472.9 
		511.2,473.2 511,472.6 510,472.4 509.6,471.7 509.4,469.2 508.6,468.3 505.5,468.4 504,467.8 502.6,467.8 501.3,464.9 500.9,462.9 
		498.7,460.5 508.5,452.7 515.7,446.8 516.9,447.4 517.5,447.3 517.8,448 520.1,448.8 520.4,449.6 521.1,449.9 521.4,451.1 
		523.5,451.3 523.9,450.7 524.7,450.8 524.4,450 524.8,450 526.5,451.5 526.7,452.9 527.9,454.7 527.8,456.4 527.2,457.1 
		527.8,457.5 527.3,464.6 528.1,465.3 528.3,467.6 	"/>
	<polygon class="st6" points="477.3,493.1 472.6,493.1 472.5,464 483.8,454.3 488.2,459.6 484.2,461.3 497.4,487.3 493.4,490.5 
		493.4,493.2 	"/>
	<polygon class="st1" points="510.6,488 509.4,489.9 497.4,487.3 484.2,461.3 488.2,459.6 492.4,458 494.4,459.7 496.5,460.6 
		498.3,460.2 498.7,460.5 500.9,462.9 501.3,464.9 502.6,467.8 504,467.8 505.5,468.4 508.6,468.3 509.4,469.2 509.6,471.7 
		510,472.4 511,472.6 511.2,473.2 512.1,472.9 512.8,473.1 514.8,475.2 515.7,474.5 516.8,474.8 517.1,475.6 517.5,475.4 518,476 	
		"/>
	<polygon class="st4" points="450.6,493.1 423.1,494.5 423,485.5 422.9,462.3 450.5,462.2 	"/>
	<polygon class="st3" points="472.6,493.1 450.6,493.1 450.5,462.2 472.4,462.2 472.5,464 	"/>
	<polygon class="st1" points="423,485.5 389.2,485.5 389.1,462.2 422.2,462.2 422.9,462.3 	"/>
	<polygon class="st5" points="523.4,492.9 523.3,492.1 522.5,491.6 522.2,490.9 521.7,491.1 521.1,490.7 521.3,490.2 521,489.1 
		520.6,489.2 520.7,490.3 520,489.8 519.6,490.3 518.2,489.4 517.6,490 517,489.8 517.2,490.4 517,490.9 515.8,490.5 515.8,489.3 
		514.7,489.4 514.8,488.7 513.6,488.1 513.6,487.3 512.3,487.9 511.7,488.7 511.4,488.1 510.6,488 518,476 528.3,467.6 530.3,467.1 
		531.8,468.1 532,467.5 532.8,467.6 532.8,467.3 533.4,468.2 534.4,468.3 534.6,469.1 537.9,469.7 539.3,470.6 539.8,470.5 
		539.8,470 540.4,469.6 542.9,471.5 543.4,472.5 544.4,473.5 545.6,472.5 547,474.4 546.2,475.4 542.5,474.7 545.6,477.5 
		545.7,479.7 530.1,482 529.8,483.3 530.9,484.6 531.5,484.6 532.9,485.6 534.5,485.7 529.4,489.4 529.3,487.7 527.7,487.9 
		528.3,490.2 	"/>
	<polygon class="st3" points="443.4,535.1 425.7,535.1 424,533.2 419.6,535.2 415.9,532.6 418.4,523.5 416.7,522.7 415.6,517 
		407.8,514.4 403.1,508.1 400.3,507.1 397.1,497.1 394.7,496.2 389.8,488.1 384.3,485.6 389.2,485.5 423,485.5 423.1,494.5 
		450.6,493.1 450.5,530.4 450.5,535 	"/>
	<polygon class="st6" points="463.4,535 463.3,531 462.2,531 462.2,530.1 460.4,530.2 460.5,531 458.6,531 458.6,530.2 450.5,530.4 
		450.6,493.1 472.6,493.1 477.3,493.1 477.3,535.3 	"/>
	<polygon class="st1" points="477.3,535.3 477.3,493.1 493.4,493.2 494.7,494.5 495.7,494.6 496.8,494.1 497.4,494.4 497.9,494.9 
		497.8,496.3 491.4,502.5 491,515.5 485.6,515.7 485.6,535.5 	"/>
	<polygon class="st5" points="467.9,560.7 443.4,560.6 443.4,535.1 450.5,535 450.5,530.4 458.6,530.2 458.6,531 460.5,531 
		460.4,530.2 462.2,530.1 462.2,531 463.3,531 463.4,535 463,535.1 463.1,535.4 464.7,536.6 464.6,541.5 465.7,541.6 465.8,546 
		468.1,546.2 	"/>
	<polygon class="st1" points="433.7,571.6 428,557 423.1,552.3 423,549.7 420,547.9 420.9,538.9 419.6,535.2 424,533.2 425.7,535.1 
		443.4,535.1 443.4,560.6 440.9,566.3 	"/>
	<polygon class="st1" points="472.5,560.7 467.9,560.7 468.1,546.2 465.8,546 465.7,541.6 464.6,541.5 464.7,536.6 463.1,535.4 
		463,535.1 463.4,535 477.3,535.3 485.6,535.5 489.3,535.6 489.3,538.1 489,560.7 	"/>
	<polygon class="st1" points="460.3,588.4 456.6,589.4 450,582.4 445.8,583.2 444.3,581.3 436.4,580.1 436.7,576.4 433.5,573.4 
		433.7,571.6 440.9,566.3 443.4,560.6 467.9,560.7 472.5,560.7 	"/>
	<polygon class="st8" points="460.3,588.4 472.5,560.7 489,560.7 489,569.7 490.3,569.9 489.7,572.8 489.8,573.9 489.1,573.9 
		488.3,577.7 494.5,578.6 494.7,583.8 494.8,598.9 486.7,599 485,600.3 484.6,598.6 479.1,599.2 474.8,596.9 475.8,595.7 
		474.8,595.1 473.1,596.2 472.2,593.7 470.5,593.9 467.2,590.5 465.6,591.5 	"/>
	<polygon class="st8" points="162.9,351.5 162.9,344.2 163.6,344.2 163.6,335.1 162.9,334.9 162.6,278.6 166,278.6 205.1,278.4 
		201.2,328 	"/>
	<polygon class="st2" points="201.2,328 205.1,278.4 206.9,278.5 207.4,279.8 208.6,279.6 208.9,281.3 209.9,282 210.2,283.9 
		210.5,284.4 211.7,284.9 211.5,286 214.3,284.6 214.3,286.1 215.7,291 216.4,291.1 216.5,291.8 217.9,293.1 220.7,292.5 
		221.7,293.9 224,294.9 224.1,295.7 223.4,295.7 223.4,296.3 224.1,297.5 224.7,297.8 226.6,298.7 227.2,298.2 227.8,298.4 
		228.3,298.9 229.3,299.2 229.1,300.1 229.6,300.7 228.9,301.8 230,304.6 229.4,305.2 230.3,306.9 230.3,308.8 231.3,309.6 
		232.1,310 232.8,309.7 233.4,310.1 234.6,309.7 235.3,310.5 237.5,310.7 240,310.6 240.7,310.1 241.4,312.1 244.2,313.3 
		249.5,313.8 250.9,312.5 252.3,313.2 225.5,346.6 	"/>
	<polygon class="st2" points="236.9,297.8 224.7,297.8 224.1,297.5 223.4,296.3 223.4,295.7 224.1,295.7 224,294.9 221.7,293.9 
		220.7,292.5 217.9,293.1 216.5,291.8 216.4,291.1 215.7,291 214.3,286.1 214.3,284.6 211.5,286 211.7,284.9 210.5,284.4 
		210.2,283.9 209.9,282 208.9,281.3 208.6,279.6 207.4,279.8 206.9,278.5 218.8,278.5 237.5,278.6 	"/>
	<polygon class="st3" points="159.6,353.7 159.1,351.4 156.1,351.2 148.8,344.4 146.8,345.1 145.4,343.3 144.2,344.1 140.6,342.1 
		139.7,339.4 132.8,334.1 130.5,329.3 122.7,324.7 111.9,312.4 113.6,311.6 113.6,307.9 111.8,307.7 111.7,278.7 162.6,278.6 
		162.9,334.9 163.6,335.1 163.6,344.2 162.9,344.2 162.9,351.5 	"/>
	<polygon class="st5" points="111.9,312.4 101.8,307.7 93.8,293.6 86.5,290.7 82.9,288.9 82.9,287.4 81.5,284.6 82,283.6 
		82.1,280.4 81.3,279.9 82.5,278.8 94.1,278.8 111.7,278.7 111.8,307.7 113.6,307.9 113.6,311.6 	"/>
	<polygon class="st6" points="159.6,353.7 162.9,351.5 201.2,328 225.5,346.6 232.3,352.3 215.8,366.6 210.9,366.6 	"/>
	<polygon class="st3" points="159.6,353.7 210.9,366.6 215.8,366.6 216.1,428.4 203.9,425.1 198.3,421.2 196.4,416.7 188.2,413.1 
		180.8,406.1 178.8,399.1 174.3,393.6 173.2,385.6 174.3,380.6 172.9,375.7 167.7,369.6 168.1,368.2 165.9,367.3 164.1,357.6 	"/>
	<polygon class="st1" points="394.1,22.7 394.3,22.8 394.5,48.2 368.9,48.2 368.5,23 	"/>
	<polygon class="st3" points="292.3,48.4 292.4,22.9 298.6,22.8 318.1,22.8 318.1,48.4 	"/>
	<polygon class="st2" points="292.3,48.4 252,48.3 251.9,22.8 253.3,22.8 292.4,22.9 	"/>
	<polygon class="st4" points="318.1,48.4 318.1,22.8 343.1,23 343.4,48.3 	"/>
	<polygon class="st2" points="343.4,48.3 343.1,23 349.3,23 368.5,23 368.9,48.2 	"/>
	<polygon class="st5" points="342.9,73.3 343.4,48.3 368.9,48.2 368.8,73.3 343.3,73.3 	"/>
	<polygon class="st1" points="394.4,73.7 368.8,73.3 368.9,48.2 394.5,48.2 394.5,58.3 	"/>
	<polygon class="st1" points="342.9,73.3 318,73.3 318.1,48.4 343.4,48.3 	"/>
	<polygon class="st1" points="252.1,73.4 252.1,66.5 252,48.3 292.3,48.4 292.6,73.3 	"/>
	<polygon class="st1" points="292.6,73.3 292.3,48.4 318.1,48.4 318,73.3 	"/>
	<polygon class="st6" points="293.1,99 292.6,73.3 318,73.3 317.8,98.9 	"/>
	<polygon class="st5" points="343.3,73.3 343.2,98.9 317.8,98.9 318,73.3 342.9,73.3 	"/>
	<polygon class="st1" points="343.2,98.9 343.3,73.3 368.8,73.3 369.1,98.9 	"/>
	<polygon class="st1" points="369.1,98.9 368.8,73.3 394.4,73.7 394.6,84.9 394.5,98.9 	"/>
	<polygon class="st8" points="251.9,99.2 252.1,73.4 292.6,73.3 293.1,99 292.5,99 	"/>
	<polygon class="st1" points="300.5,123.6 292.2,123.8 292.5,99 293.1,99 317.8,98.9 317.7,123.6 	"/>
	<polygon class="st1" points="343.1,123.8 325.2,123.7 317.7,123.6 317.8,98.9 343.2,98.9 	"/>
	<polygon class="st2" points="368.7,123.9 369.1,98.9 394.5,98.9 394.6,107.6 394.4,123.9 374.7,124 	"/>
	<polygon class="st3" points="368.7,123.9 349.9,123.9 343.1,123.8 343.2,98.9 369.1,98.9 	"/>
	<polygon class="st4" points="275.8,123.5 252.1,124 251.9,111.4 251.9,99.2 292.5,99 292.2,123.8 	"/>
	<polygon class="st6" points="251.7,149 252.1,124 275.8,123.5 275.6,149 271.5,149 	"/>
	<polygon class="st1" points="275.6,149 275.8,123.5 292.2,123.8 300.5,123.6 300.6,148.9 296.2,149 	"/>
	<polygon class="st2" points="325.2,148.9 320.9,148.9 300.6,148.9 300.5,123.6 317.7,123.6 325.2,123.7 	"/>
	<polygon class="st1" points="345,148.7 325.2,148.9 325.2,123.7 343.1,123.8 349.9,123.9 349.8,148.5 	"/>
	<polygon class="st1" points="394.5,148.7 374.6,148.6 374.7,124 394.4,123.9 394.6,134.5 	"/>
	<polygon class="st1" points="374.6,148.6 369.9,148.6 349.8,148.5 349.9,123.9 368.7,123.9 374.7,124 	"/>
	<polygon class="st1" points="394.4,153.5 394.5,148.7 394.6,134.5 395.7,134.5 397,133.5 397.6,133.5 400,135.3 400.9,137 
		402.4,137.9 404.8,141.2 409.2,145 413.1,145.5 413.9,144.6 414.3,143.2 415.4,142.9 417.8,143.5 418.9,144.7 419.1,162.3 
		418.4,162.7 417.4,162.1 416.6,162.1 415.7,163 415.1,163 410.9,161.1 409.8,161.7 407.6,161.1 405.1,161.4 	"/>
	<polygon class="st4" points="443.7,176 419.3,176.3 419.1,162.3 418.9,144.7 420.8,145.8 422.2,145.5 422.9,143.9 423,142.1 
		424.3,140.9 426.2,143 428.9,143.8 429.5,145.6 431.8,147.6 432.2,149.2 431.8,152 432.5,153.8 433.2,154.4 435.4,155.1 
		437.8,154.7 439.8,155.2 441.6,154.6 443.7,155.5 	"/>
	<polygon class="st5" points="345.1,175.8 345,148.7 349.8,148.5 369.9,148.6 369.6,175.6 	"/>
	<polygon class="st1" points="394.4,153.5 393.8,153.6 392.9,152.9 391.8,153.6 391.6,175.5 369.6,175.6 369.9,148.6 374.6,148.6 
		394.5,148.7 	"/>
	<polygon class="st1" points="320.8,175.9 320.9,148.9 325.2,148.9 345,148.7 345.1,175.8 	"/>
	<polygon class="st1" points="296.4,176 296.2,149 300.6,148.9 320.9,148.9 320.8,175.9 	"/>
	<polygon class="st6" points="271.7,176.1 271.5,149 275.6,149 296.2,149 296.4,176 	"/>
	<polygon class="st5" points="251.6,176.4 251.7,149 271.5,149 271.7,176.1 	"/>
	<polygon class="st3" points="419.3,176.3 419.4,181.7 418.7,181.1 418.2,179.7 417,179.5 416.8,178.7 415.8,178.8 415.7,178.1 
		414.7,178.4 414.2,177.8 413.6,178.7 413.1,178 410.9,176.9 410.2,177.2 408.8,176.5 408.4,178 408,178 407.7,177 407.3,177.9 
		406.8,177.4 406.1,177.9 406,176.7 405.3,177 403.4,176.7 402.7,177 402,176 394.4,176 394.3,175.5 391.6,175.5 391.8,153.6 
		392.9,152.9 393.8,153.6 394.4,153.5 405.1,161.4 407.6,161.1 409.8,161.7 410.9,161.1 415.1,163 415.7,163 416.6,162.1 
		417.4,162.1 418.4,162.7 419.1,162.3 	"/>
	<polygon class="st1" points="443.7,176 443.7,155.5 446.6,157.4 450.4,158.2 451.9,159 455.3,159.1 456.4,158 457.4,158.2 
		459.1,157.5 460,157.9 461.4,158.4 462.3,160.5 465,162.7 467.5,163.4 468.7,162.8 468.9,175.9 	"/>
	<polygon class="st1" points="615.6,201.4 615.6,173 616.3,172.9 616.8,171.2 617.4,172.3 618,171.9 618,170.1 618.8,168.5 
		622.8,169.7 623.8,169.9 623.9,171.2 624.2,171.5 625.3,171 626,171.1 625.6,172.4 625.9,172.8 626.8,171.2 626.9,172.4 
		627.8,173.1 628.1,174.1 629.2,173.9 630.3,174.7 631.3,174.1 631.7,175.1 632.7,175.5 632.6,177 633.7,176.9 634.1,177.7 
		633.9,178.5 635.4,179.3 636.5,180.7 638.3,180.7 639.1,181.3 640,180.5 640.9,180.5 640.1,181.1 640,181.6 641.6,181.4 641,182.6 
		642,182.4 641.4,183.1 642,183.5 641.8,204 641.2,204.5 640.4,204.3 638.3,201.5 636.6,201.2 635.3,200.5 634,201 629.8,200.6 
		628.2,201.3 627,200.9 624.3,200.9 622.8,201.2 621.9,201 621.1,201.6 620.4,201.2 618.3,201.7 	"/>
	<polygon class="st6" points="638.6,223.6 635.5,221.7 633.4,219.4 632.1,218.6 628,218.5 623.8,220.9 624.3,200.9 627,200.9 
		628.2,201.3 629.8,200.6 634,201 635.3,200.5 636.6,201.2 638.3,201.5 	"/>
	<polygon class="st1" points="622.8,222.2 621.9,224.8 615.3,224.8 615.6,201.5 615.6,201.4 618.3,201.7 620.4,201.2 621.1,201.6 
		621.9,201 622.8,201.2 624.3,200.9 623.8,220.9 	"/>
	<polygon class="st3" points="646.1,229.5 643.8,229.5 642.5,227.9 639.9,225.5 638.6,223.6 638.3,201.5 640.4,204.3 641.2,204.5 
		641.8,204 642.8,205.1 644.2,204.9 645.8,207.1 	"/>
	<polygon class="st1" points="642.5,227.9 622.8,227.8 622.8,222.2 623.8,220.9 628,218.5 632.1,218.6 633.4,219.4 635.5,221.7 
		638.6,223.6 639.9,225.5 	"/>
	<polygon class="st1" points="622.6,247 622.8,227.8 642.5,227.9 643.8,229.5 644.2,232.6 643.7,233.3 643.7,234.5 643.8,242.1 
		643,242.2 642,241.7 640.8,242.1 637.9,246 630.3,249 629.6,249.5 628.8,248.2 628.4,248.7 626.4,248.6 625.7,247.9 623.5,248.3 	
		"/>
	<polygon class="st1" points="675,229.6 675,240.1 673,240.3 670.9,238.9 670.2,237.9 668.8,238.6 668.5,239.9 667.9,239.9 
		666.2,239.2 665.4,237.1 664,236.8 663,238 658.6,240.2 653.1,240.2 643.7,234.5 643.7,233.3 644.2,232.6 643.8,229.5 646.1,229.5 
			"/>
	<polygon class="st1" points="675,240.1 675.3,257.2 660.5,260.6 658.9,259.7 658.4,258.4 656.8,258.4 656.4,258.8 654.1,257.3 
		653.3,256.8 652.5,257.3 650.8,256.3 649.9,256.6 648.5,257.1 646.3,256.6 643.9,255 643.8,242.1 643.7,234.5 653.1,240.2 
		658.6,240.2 663,238 664,236.8 665.4,237.1 666.2,239.2 667.9,239.9 668.5,239.9 668.8,238.6 670.2,237.9 670.9,238.9 673,240.3 	
		"/>
	<polygon class="st5" points="630.4,287.1 630.3,282.4 630.8,281.2 630.5,280.1 630.3,270.9 630.3,258.2 645.3,258.2 648.7,258.8 
		649.5,258.6 649.9,256.6 650.8,256.3 652.5,257.3 653.3,256.8 654.1,257.3 653,261.3 652.3,262 652.2,263 649.8,267.4 649.3,272.8 
		648.6,275.2 648.9,280.4 653,280.4 653,283.2 654.6,285.1 655.4,287.2 	"/>
	<polygon class="st1" points="653,280.4 648.9,280.4 648.6,275.2 649.3,272.8 649.8,267.4 652.2,263 652.3,262 653,261.3 
		654.1,257.3 656.4,258.8 656.8,258.4 658.4,258.4 658.9,259.7 660.5,260.6 675.3,257.2 675.3,267.7 675.3,279.1 676.4,279.4 
		676.7,280 	"/>
	<polygon class="st5" points="684.8,301.5 680.9,300.4 677.5,302.7 672.4,299.5 658.3,297.8 657.7,296.2 657.5,293.6 656.2,288.6 
		655.4,287.2 654.6,285.1 653,283.2 653,280.4 676.7,280 678,281.8 678.3,283.1 679.9,283.8 680.8,283.8 680.5,284.8 681.7,284.7 
		682,286 682.5,285.9 682.7,287.1 683.3,288.9 684.7,289.8 685.3,291.3 684.9,292.5 685.9,293.8 685.6,294.8 685.9,295 686.7,294.8 
		685.8,296.9 686,298 685.6,298.3 685.4,300 684.7,300.1 	"/>
	<polygon class="st1" points="661.4,321.8 660.6,321.3 658.2,317.8 656.2,316.6 654.1,313 652,311.9 651.2,310.4 648.2,309.6 
		647.3,309.6 644.9,308.6 642.7,308.7 641.2,308.2 639.3,306.8 638.3,307 635.8,304.8 634.9,303.9 634.8,302.3 634.1,302.4 
		633.8,302.1 632.4,298 631.5,293.3 631.8,292.6 632.7,292.3 632.9,291.8 630.8,290.6 630.4,287.1 655.4,287.2 656.2,288.6 
		657.5,293.6 657.7,296.2 658.3,297.8 660.7,300.6 662.1,301.5 662.7,303.1 662.7,306 661.8,309.3 662.2,310.9 661.8,311.6 
		661.9,316.1 661.1,319.4 	"/>
	<polygon class="st1" points="680.8,325.3 675,326.4 674.3,326 675,324.2 675.2,320.5 674.6,316 675.5,313.4 674.6,311.9 
		677.4,308.2 677.5,302.7 680.9,300.4 684.8,301.5 685.6,302.2 685.8,303.2 687.3,304.6 688.1,304.8 688.8,304.4 689.5,305.3 
		690.8,305.4 690.1,306.8 688.7,307 688.6,307.3 689.8,308.7 691.1,308.6 690.9,309.5 691.7,309.9 691.2,310.5 691.3,311.1 
		691.6,311.7 692.7,312.1 692.9,313.5 694.1,313.5 692.1,316 691.9,316.8 693.1,318.3 693.6,318.1 694.3,319 695,318.9 695.2,319.2 
		695.2,320.7 696.2,321.4 695.6,323.1 696,324.1 	"/>
	<polygon class="st1" points="649.7,330.5 646.7,328.8 645.1,329.1 643.7,328.4 640.6,327.8 638.4,326.7 637.7,325.9 638,324.4 
		637.5,323.7 637.1,322 636.1,320.5 634.9,319.8 635.5,318 634.8,317.5 634.1,315.5 631.9,315.1 631.6,312.9 631.7,312.4 630,310.6 
		629.9,309.9 635.8,304.8 638.3,307 639.3,306.8 641.2,308.2 642.7,308.7 644.9,308.6 647.3,309.6 648.2,309.6 651.2,310.4 
		652,311.9 654.1,313 656.2,316.6 658.2,317.8 660.6,321.3 661.4,321.8 662.8,322.4 664.6,324.1 666.3,324.6 668.3,327.3 
		670.3,328.7 656,332 654.2,332.3 653.6,331.6 652,330.9 	"/>
	<polygon class="st1" points="681.7,375.4 683.5,337.2 680.8,325.3 696,324.1 696.8,324.6 698.1,323.5 699.1,323.8 699.2,324.2 
		698.7,324.3 699.1,325.1 698.4,325.3 698.7,326.8 699.1,327.1 698.8,327.7 697.8,328 697.6,328.5 698.4,328.8 698.4,329.5 
		699.7,329.9 699.2,330.9 700.1,331.9 698.2,333.3 697.4,333 697.3,333.3 697.1,334.2 697.6,334.5 697,335.3 698.2,335.7 
		698.7,336.4 698.9,336.2 699.3,337.6 699,338 698.1,338.2 698.3,339.2 697.4,339.4 697.2,340.3 697.6,341.1 698,341.7 697.3,342.5 
		697.8,342.7 698.1,343.5 696.6,344.9 696.4,346.5 694.9,348 695.4,348.7 694.9,348.7 695.2,349.9 694.9,351.2 692.9,352 
		692.1,353.8 691.4,353.8 691.8,354.7 691.4,355.1 692.4,356.1 691.3,356 690.2,356.7 690.2,357.7 689.4,358.9 690.8,360.2 
		690.4,361.2 690.7,361.6 690.3,362.1 691.1,363.1 690.9,363.5 691.2,364.6 690,365.1 689,366.4 688.5,367.9 688.8,368.7 
		688.2,369.4 688.3,370.1 689.6,372.1 691.1,372.5 690.7,375.7 	"/>
	<polygon class="st1" points="681.7,375.4 672.1,375.5 672.4,374.8 671.7,373.4 671.7,372.7 673,369.9 671.5,365.6 673.9,360.2 
		673.7,359.2 673,358.2 673,357.3 673.4,355.5 674.5,354.3 674.5,353.6 673.9,352.7 673.2,352.8 672.7,351.5 671.5,351.5 
		670.8,350.2 671.1,348.2 670.8,346.7 668.9,345 667.9,343 667.4,340 666.9,339.4 667.6,338.2 667.3,337.6 666.4,337.3 665.5,336.2 
		665.8,335.6 665.5,335 666.1,334.5 665.7,333.8 664.5,332.9 664.1,333 663.1,331.9 662,332.8 661,332.1 658.3,332.7 657.6,332.5 
		657,333.4 656.3,333.7 655.9,333.3 656,332 670.3,328.7 674.6,327.7 675,326.4 680.8,325.3 683.5,337.2 	"/>
	<polygon class="st1" points="637,361.9 636.3,361.2 636.2,360.6 637.3,359.6 637.3,358.9 634.5,357.9 633.3,358 631.5,357.3 
		628.2,356.8 629.1,355.5 629.2,354.5 628.7,353.2 629.3,352.8 628,352.1 627.9,351.4 627.3,351.7 627.1,351.3 624.5,352.2 
		624.4,350.3 623.6,350.3 622.9,348.9 623.5,345.8 620.6,343.4 637.7,325.9 638.4,326.7 640.6,327.8 643.7,328.4 645.1,329.1 
		646.7,328.8 649.7,330.5 646,333.3 651.1,360 651.5,361.9 642.4,362 	"/>
	<polygon class="st4" points="673.9,360.2 651.1,360 646,333.3 649.7,330.5 652,330.9 653.6,331.6 654.2,332.3 656,332 655.9,333.3 
		656.3,333.7 657,333.4 657.6,332.5 658.3,332.7 661,332.1 662,332.8 663.1,331.9 664.1,333 664.5,332.9 665.7,333.8 666.1,334.5 
		665.5,335 665.8,335.6 665.5,336.2 666.4,337.3 667.3,337.6 667.6,338.2 666.9,339.4 667.4,340 667.9,343 668.9,345 670.8,346.7 
		671.1,348.2 670.8,350.2 671.5,351.5 672.7,351.5 673.2,352.8 673.9,352.7 674.5,353.6 674.5,354.3 673.4,355.5 673,357.3 
		673,358.2 673.7,359.2 	"/>
	<polygon class="st1" points="622.2,369.5 619.4,371 620,369.3 618.2,367.8 615,366 612.9,360.4 614.4,341.1 614.8,340.8 
		615.2,339.6 617.7,339.3 618.4,340.1 618.6,342.4 620.6,343.4 623.5,345.8 622.9,348.9 623.6,350.3 624.4,350.3 624.5,352.2 
		627.1,351.3 627.3,351.7 627.9,351.4 628,352.1 629.3,352.8 628.7,353.2 629.2,354.5 629.1,355.5 628.2,356.8 631.5,357.3 
		633.3,358 634.5,357.9 637.3,358.9 637.3,359.6 636.2,360.6 636.3,361.2 637,361.9 	"/>
	<polygon class="st5" points="672.1,379.9 669.4,379.2 669,378.6 667.3,378.5 665.5,379.6 664.1,379.4 663.2,380.4 662.8,381.9 
		660.8,382.8 658.2,382.9 657,383.4 655.6,382.7 654.5,382.4 648.3,382.4 642.4,362 651.5,361.9 651.1,360 673.9,360.2 671.5,365.6 
		673,369.9 671.7,372.7 671.7,373.4 672.4,374.8 672.1,375.5 672.1,377.4 672.8,377.6 672.9,378.1 672.2,379 	"/>
	<polygon class="st2" points="655.7,394.3 630.6,394.8 629.7,393.2 630.4,390.6 629.3,388.9 627.7,388.7 627,387.9 627.4,385.9 
		625.3,379.5 622.2,369.5 637,361.9 642.4,362 648.3,382.4 654.5,382.4 655.6,382.7 	"/>
	<polygon class="st1" points="688.2,388.4 683.6,389.2 683.7,390.6 681.1,388.9 680.2,389 679.1,388.1 676.8,388 675.1,386.8 
		675.2,385.5 673.9,384.7 672.6,384.7 672.4,383.2 673,382.4 672.8,381.8 671.7,381.6 671.6,380.4 672.1,379.9 672.2,379 
		672.9,378.1 672.8,377.6 672.1,377.4 672.1,375.5 681.7,375.4 690.7,375.7 690.3,376.7 690.8,378.8 691.2,379.1 691.1,380.5 
		691.8,380.6 691.7,381 691.1,381 691.2,382.3 690.6,382.4 690.3,383.5 690.5,385.4 	"/>
	<polygon class="st6" points="660.1,412.6 659.6,394.3 655.7,394.3 655.6,382.7 657,383.4 658.2,382.9 660.8,382.8 662.8,381.9 
		663.2,380.4 664.1,379.4 665.5,379.6 667.3,378.5 669,378.6 669.4,379.2 672.1,379.9 671.6,380.4 671.7,381.6 672.8,381.8 
		673,382.4 672.4,383.2 672.6,384.7 673.9,384.7 675.2,385.5 675.1,386.8 676.8,388 679.1,388.1 680.2,389 681.1,388.9 683.7,390.6 
		679.2,398.6 684.7,406.4 673.8,406.4 	"/>
	<polygon class="st1" points="659.2,413 658.8,410.4 657.6,410.4 656.4,412.1 655.2,412.2 652.8,413.2 651.8,412.9 650.3,411.5 
		639.8,413.7 643.7,407.2 643.9,402 642.3,399.9 637.9,401.7 635.1,406.7 633,405.9 633.6,405 633.1,404 632.5,403.6 633.6,401.5 
		633.5,399.2 633.8,397.6 632.6,397.5 632,396.3 630.8,395.6 630.6,394.8 655.7,394.3 659.6,394.3 660.1,412.6 	"/>
	<polygon class="st1" points="630.3,258.2 630.3,249 637.9,246 640.8,242.1 642,241.7 643,242.2 643.8,242.1 643.9,255 646.3,256.6 
		648.5,257.1 649.9,256.6 649.5,258.6 648.7,258.8 645.3,258.2 	"/>
	<polygon class="st2" points="675,326.4 674.6,327.7 670.3,328.7 668.3,327.3 666.3,324.6 664.6,324.1 662.8,322.4 661.4,321.8 
		661.1,319.4 661.9,316.1 661.8,311.6 662.2,310.9 661.8,309.3 662.7,306 662.7,303.1 662.1,301.5 660.7,300.6 658.3,297.8 
		672.4,299.5 677.5,302.7 677.4,308.2 674.6,311.9 675.5,313.4 674.6,316 675.2,320.5 675,324.2 674.3,326 	"/>
	<polygon class="st3" points="641.8,204 642,183.5 644.4,184.1 645.4,183.7 646,184 646.6,184.8 645.5,185.1 645.4,185.4 
		645.9,185.6 646.8,185.2 647.2,184.4 648.6,185.5 649.4,184.7 649.7,185.2 650.5,185.1 650.3,185.6 649.4,185.7 649.2,186 
		649.8,186.2 651.2,185.7 651.4,186.5 650.4,186.8 650.4,187.2 651,187.3 652.5,186.7 652.2,188 652.9,187.4 653.3,187.9 
		654.5,187.4 656.4,187.1 656.4,188.2 655.7,188.9 656,189.4 656.7,189.3 657.8,190.7 658.4,190.6 659.1,189.6 659.5,189.7 
		659.4,190.7 658.3,191.4 659.5,192.1 661.4,190.7 662.7,191.6 662.8,190.3 663.8,189.8 664.1,190.1 664,191.3 665.7,189.6 
		666.4,190 665.8,191.4 667,191.6 667.2,190 669.4,189.5 669.6,191 672.3,190.7 672.8,190.1 674,190.5 675.2,191.7 675.2,207.8 
		673.7,206.2 673.1,206.3 672.4,205.9 671,206.2 669.3,205.6 666.8,206.4 666.1,207.4 666.1,208.6 664.8,209 662.7,208.4 
		659.3,208.6 657.5,208.1 656.8,207 655.6,207 654.4,206.6 650.1,208.1 649.4,208.9 647.8,209 646.7,208.3 645.8,207.1 644.2,204.9 
		642.8,205.1 	"/>
	<polygon class="st6" points="675.1,221.7 675,229.6 646.1,229.5 645.8,207.1 646.7,208.3 647.8,209 649.4,208.9 650.1,208.1 
		654.4,206.6 655.6,207 656.8,207 657.5,208.1 659.3,208.6 662.7,208.4 664.8,209 666.1,208.6 666.1,207.4 666.8,206.4 669.3,205.6 
		671,206.2 672.4,205.9 673.1,206.3 673.7,206.2 675.2,207.8 	"/>
	<path class="st1" d="M525.8,588.9l1.4,9.4l0.3-0.3l-1.1-9.5l-1.8-8.3l-0.9-0.1l1.2,3.7L525.8,588.9z M525.6,601.6l-3,0.3l1.1-3.5
		l-4.7-6l-0.7-9.3l-2.5-1.4l-1.2,1l-0.7,1.9l-1.8-0.5l-2.1,0.7l0.1,1.3l-15.4-2.4l0.1,15.1l10.3,1.9l1.7,3.2l1.8,0.4l-0.7,1.1
		l7.3,4.6h2.3l0.2-3.8l3.6-1.1l-0.1-1.4l6.3,0.5L525.6,601.6z"/>
	<path class="st1" d="M515.6,574.9l-1.2-4.3l-19.5,0.2l-4.6-0.8l-0.6,2.9l0.1,1.1h-0.7l-0.7,3.8l6.2,0.9l0.2,5.2l15.4,2.4l-0.1-1.3
		l2.1-0.7l1.8,0.5l0.7-1.9l1.2-1l-2.5-4.9L515.6,574.9z M521.7,570.5h-0.2l1.1,3.2l0.5,3.2l0.8,3.1l0.9,0.1L521.7,570.5z"/>
	<path class="st8" d="M509.8,537.3l-11.1-3l-1.7,0.6l-0.3,1l-0.7,0.3l-2.2,0.5l-2.1-0.1l-1.3,0.4l-0.5,1.1l-0.8,0.1l-0.3,22.6l0,8.9
		l1.3,0.2l4.6,0.8l19.5-0.2l-2.1-10.1l-2.9-2.8l-0.5-7l4.2-1l-1.2-4.5l3.6-9.7L509.8,537.3z M517.9,534.4l-0.2,3.9l1-3.9
		L517.9,534.4z M518.8,559.9l-1.1-7.7l-0.3-7.8l0.4-5.7l-0.5,0.2l-0.6,4.8l0.3,10l0.7,5.4l1.1,6l2.7,5.6h0.2L518.8,559.9z"/>
	<path class="st1" d="M496.2,519.9l-1.8-1.9l-0.2-1.3l-3.2-1.2l-5.4,0.2v19.8l3.7,0.1v2.5l0.8-0.2l0.5-1.1l1.3-0.4l2.1,0.1l2.2-0.5
		l0.7-0.3l0.3-1l1.7-0.6l4.9-0.3l-3.3-6.6l7.1,6.3l3.4-2.3l1-5l0.3,6.3l4.2-0.1l3.8-12.8L496.2,519.9z M523.9,518.7l-4.1,7.4
		l-1.9,8.3h0.8l6.4-15.3L523.9,518.7z"/>
	<path class="st8" d="M521.1,511.9l-1.8,4.1l-2.4-0.1l2.2-0.4l1.6-2.7l-1.4-1.3l1.5,0.2l-3.7-3.1l0.4-3.2l-4.3,0.6l-0.9-1.2
		l-0.5,0.2l-1.6-0.9l-2.3-0.5l-1-1.1l-1.4-0.5l-0.5-1.2l-0.7-0.5l-2.2,0.2l-2-0.9l-0.5,0.5l-0.2-0.6l-0.6-0.3l-0.5,0.1l-0.5,0.8
		l-0.7-1.2l0.1-1.2l0.6-0.4l0.1-0.9l-6.3,6.2l-0.4,13l3.2,1.2l0.2,1.3l1.8,1.9l23.9-0.3l3.8-6.7L521.1,511.9z M530.3,506l1.8,0.4
		l-4.5,5.5l-1.6,5.1l-2.6-2.1l0.5,3.8l1.2,0.4l8-13.6L530.3,506z"/>
	<polygon class="st1" points="529.2,501.8 524.5,494.2 522.9,495 524.3,493.8 523.4,492.9 523.3,492.1 522.5,491.6 522.2,490.9 
		521.7,491.1 521.1,490.7 521.3,490.2 521,489.1 520.6,489.2 520.7,490.3 520,489.8 519.6,490.3 518.2,489.4 517.6,490 517,489.8 
		517.2,490.4 517,490.9 515.8,490.5 515.8,489.3 514.7,489.4 514.8,488.7 513.6,488.1 513.6,487.3 512.3,487.9 511.7,488.7 
		511.4,488.1 510.6,488 509.4,489.9 497.4,487.3 493.4,490.5 493.4,493.2 494.7,494.5 495.7,494.6 496.8,494.1 497.4,494.4 
		497.9,494.9 497.8,496.3 497.7,497.2 497.1,497.6 497,498.9 497.7,500.1 498.2,499.3 498.7,499.2 499.3,499.5 499.5,500.1 
		500,499.6 502,500.5 504.2,500.3 504.9,500.8 505.4,502 506.7,502.5 507.7,503.5 510.1,504.1 511.7,504.9 512.1,504.7 511.1,503.6 
		512.3,503 513.1,504.2 519.4,503.1 518.6,504.9 522.3,503.2 525.6,505.4 524,505.8 526.4,506.4 530.2,500.9 	"/>
	<path class="st1" d="M530.1,482l-0.4,1.4l1.2,1.2h0.5l1.4,1l1.7,0.1l-0.5,3.3l2.8,1.2l1.6-3.8l-1.6-1.3l2.9-2.5l-1.8,7.6l6.9-5.2
		l0.5-3.2l0.3-2.2L530.1,482z M538.5,493.9l-1.6,2.4l1.1,0.9l-3.5,3.7l-1.2,3.9l9.2-11.1l0.8-2.8l-1.7-1.6L538.5,493.9z
		 M534.4,490.6l-4.5,2.9l-5.3,0.7l4.7,7.6l1-1l4.3-5.6L534.4,490.6z"/>
	<path class="st1" d="M558.3,471.7l-2.1-0.5l3.6-2l-3.8-3.6l-2.1,0.8l0.2-3.5l-2.5-3l0.6-1.9l-0.6-0.5l-0.2,0.6l0.4,0.9l-3.2,1.9
		l-6.4,2l-3.1,2.2l1.1,1.9l-0.2,1.1l0.4,1.3l2.6,1.9l0.4,1l1,1l1.2-0.9l-1.7-0.2l1.7-1.5l2.2,4l1.7,0.4l0.1,3l1.9,1.8l12.7-6.9
		l-4-3.5L558.3,471.7z M563.7,457.9l-1.4,1.2l-6-0.2l-0.5,0.5v3l2.8-0.7v2.2l1.3,0.5l1.4-3.1l0.8,3.2l-2.5,2.1l5.5-2.8l-2-1.5
		L563.7,457.9z M564.3,460.5l1.3,2.8l1.8-0.9l0.1-2L564.3,460.5z M560.9,479l-3.3,0.4l-9.7,7.2l-3.1,0.6l-1.5,5.7l20.6-14.9
		l-1.2-2.4L560.9,479z M544.9,485.1l1.2-1l-0.7-2.2L544.9,485.1z"/>
	<path class="st1" d="M658.8,410.4h-1.2l-1.2,1.7l-1.1,0.1l-2.5,1l-1-0.3l1.1,0.5l1.9-0.6l-1.5,2.1L650,414l-5.1,3.1l-4.9,5l0.9,1
		l4-3.7l14.4-6.4L658.8,410.4z M626.7,432.2l5.4-7l2.5,0.9l0.3-4.6l3.6,1.2l-3.6-1.5l-1.2-2.6l0.2,1.5l-1.8-0.2l0.4-2.2l-1.8,0.2
		l3.4-2.2l-4.8-3.2l-2.4-0.3l-1,1.1l-1,0.5l-0.3,0.8l-2.2,0.7l-0.6-0.2l-0.9-1.3l-0.4-1.9l-0.6,0.1l-0.9,5l8.3,14.6L626.7,432.2z
		 M633.9,428.9l-9,8.7l16.8-12l-0.9-1.2L633.9,428.9z"/>
</g>
<path class="st9" d="M172.4,278.1H211c-45.3-48.3-91.7-97.2-195.8-138.4l-1.1,43.8c76.2,24.6,119,58.6,155.8,94.8
	C170.8,278.2,171.6,278.1,172.4,278.1z"/>
<path class="st9" d="M538.4,218.7c-22.2-75.2-66.2-94.8-106.6-78.9l5.5,11.8c45.3-10.8,70.9,56.1,81.2,92.8
	c20.4,72.1-44.5,183.8-147.1,153.8c-20.8,0.6-41.7,0.1-62.5-0.5c1.7,1,3.4,1.9,5.1,2.9C452.5,475.1,570.4,326.9,538.4,218.7z"/>
<path class="st9" d="M432.8,265.1c-27.1-43.2-30.7-101.9,4.5-113.5l-5.5-11.8c-54.9,17.4-61.4,90.3-12.6,157.8
	c0.5,0.6,0.9,1.2,1.4,1.9c11.7,6.4,20.8,17.8,25.2,30.4c70.7,75.3,160.6,94.8,238.6,94.8l6.3-32.2
	C534.9,387,481.6,342.6,432.8,265.1z"/>
<polygon class="st9" points="698.5,396.2 693.8,421.9 720.5,410.5 "/>
</svg>
