<?xml version="1.0" encoding="utf-8"?>
<!-- Generator: Adobe Illustrator 24.1.0, SVG Export Plug-In . SVG Version: 6.00 Build 0)  -->
<svg version="1.1" id="Layer_1" xmlns="http://www.w3.org/2000/svg" xmlns:xlink="http://www.w3.org/1999/xlink" x="0px" y="0px"
	 viewBox="0 0 285.96 96.38" style="enable-background:new 0 0 285.96 96.38;" xml:space="preserve">
<style type="text/css">
	.st0{fill:#B72A30;}
	.st1{fill:#5CB9B3;}
	.st2{fill:#333333;}
</style>
<g>
	<g>
		<path class="st0" d="M63,73.9c-24.13-7.33-43.75-14.8-51.16-39.91C8.52,22.75,10.94,8.42,24.36,3.31
			C34.25-0.46,57.5,8,49.33,41.91c-8.22,34.16-26.51,47-26.51,47L10.74,77.03c0,0,19.94-13.09,30.86-40.68
			C50.96,12.7,34.07,3,25.41,6.09c-10.03,3.58-13.06,13.85-7.44,25.35c7.98,16.32,25.28,23.88,48.84,27.33L63,73.9z"/>
		<polygon class="st0" points="5.78,93.09 9.09,82.38 17.28,90.19 		"/>
	</g>
	<g>
		<path class="st1" d="M78.41,50.48V28.6h-7.32v-9.62h7.32V3.92h13.16v15.05h11.27v9.62H91.57v19c0,4.69,1.32,6.17,6.09,6.17
			c1.48,0,3.46-0.16,4.36-0.49v9.46c-0.99,0.25-5.84,0.66-8.72,0.66C80.3,63.4,78.41,58.71,78.41,50.48z"/>
		<path class="st1" d="M103.08,40.94c0-17.52,12.42-22.87,22.13-22.87c11.93,0,16.53,6.33,19.08,13.41l-11.11,3.7
			c-1.73-5.59-4.28-7.4-8.14-7.4c-5.35,0-8.72,4.52-8.72,13.24c0,7.81,2.47,13.41,8.55,13.41c3.54,0,6.75-1.89,8.64-7.81l10.94,3.78
			c-2.8,6.83-8.23,13.33-19.82,13.33C114.35,63.73,103.08,57.97,103.08,40.94z"/>
		<path class="st1" d="M146.84,62.82V1.95h13.24v23.94c2.63-3.46,7.49-7.81,15.14-7.81c7.49,0,12.83,3.7,12.83,12.75v32h-13.24
			v-27.8c0-3.95-1.48-6.01-5.1-6.01c-3.62,0-6.66,1.81-9.62,4.36v29.45H146.84z"/>
		<path class="st1" d="M191.01,40.94c0-17.03,13-22.87,22.05-22.87c9.05,0,20.15,4.52,20.15,24.43v1.97h-29.04
			c0.66,7.24,4.69,10.04,10.2,10.04c5.18,0,10.04-2.55,13-5.26l5.1,7.9c-5.1,4.36-11.43,6.58-19.08,6.58
			C201.95,63.73,191.01,57.89,191.01,40.94z M221.36,36.66c-0.66-6.17-3.46-9.13-8.39-9.13c-4.11,0-7.65,2.71-8.64,9.13H221.36z"/>
		<path class="st1" d="M236.58,79.27v-60.3h13.24v6.66c2.88-3.95,6.99-7.57,13.49-7.57c9.95,0,16.86,7.65,16.86,22.79
			c0,15.14-6.99,22.62-17.03,22.62c-5.92,0-10.04-2.14-13.33-5.84v21.63H236.58z M266.93,40.94c0-7.32-2.55-11.93-8.47-11.93
			c-3.37,0-6.42,2.06-8.64,4.28V49.5c2.88,2.71,5.26,4.03,8.8,4.03C264.14,53.53,266.93,48.92,266.93,40.94z"/>
	</g>
	<g>
		<path class="st2" d="M80.16,80.01v-9.22h-3.29v-1.13h7.82v1.13h-3.3v9.22H80.16z"/>
		<path class="st2" d="M83.9,76.32c0-2.69,1.79-3.85,3.34-3.85c1.75,0,3.08,1.23,3.08,3.9v0.25H85.1c0.04,1.67,1.01,2.56,2.22,2.56
			c1.06,0,1.67-0.43,2.22-1.2l0.7,0.62c-0.69,0.98-1.62,1.57-3.01,1.57C85.49,80.17,83.9,78.9,83.9,76.32z M89.17,75.69
			c-0.1-1.31-0.73-2.21-1.95-2.21c-0.99,0-1.93,0.69-2.1,2.21H89.17z"/>
		<path class="st2" d="M91.03,80.01l2.63-3.82l-2.45-3.57h1.32l1.8,2.7l1.79-2.7h1.27l-2.46,3.55l2.62,3.83h-1.3l-1.99-2.94
			l-1.97,2.94H91.03z"/>
		<path class="st2" d="M98.38,78.27c0-1.5,1.27-2.56,4.94-3.08v-0.34c0-0.92-0.49-1.37-1.4-1.37c-1.12,0-1.94,0.49-2.67,1.12
			l-0.63-0.76c0.85-0.78,1.96-1.37,3.43-1.37c1.76,0,2.46,0.92,2.46,2.46v3.26c0,0.9,0.06,1.44,0.21,1.82h-1.23
			c-0.1-0.31-0.17-0.6-0.17-1.02c-0.83,0.77-1.75,1.13-2.85,1.13C99.19,80.13,98.38,79.46,98.38,78.27z M103.32,78.1v-2.07
			c-2.81,0.45-3.75,1.13-3.75,2.06c0,0.71,0.48,1.09,1.25,1.09C101.79,79.17,102.63,78.77,103.32,78.1z"/>
		<path class="st2" d="M106.04,78.9l0.73-0.73c0.56,0.6,1.3,1.02,2.31,1.02c1.15,0,1.78-0.41,1.78-1.16c0-0.74-0.64-1.02-1.9-1.32
			c-1.57-0.38-2.64-0.8-2.64-2.22c0-1.12,0.98-2.01,2.59-2.01c1.3,0,2.14,0.42,2.83,1.06l-0.63,0.8c-0.56-0.52-1.32-0.88-2.14-0.88
			c-1.08,0-1.5,0.48-1.5,0.99c0,0.69,0.59,0.94,1.75,1.2c1.67,0.41,2.81,0.81,2.81,2.34c0,1.41-1.27,2.17-2.95,2.17
			C107.73,80.15,106.64,79.62,106.04,78.9z"/>
		<path class="st2" d="M116.71,74.79c0-3.23,1.81-5.33,4.39-5.33c2.2,0,3.36,1.27,3.83,3.18l-1.17,0.32
			c-0.45-1.57-1.16-2.36-2.67-2.36c-1.93,0-3.13,1.62-3.13,4.18c0,2.74,1.23,4.31,3.16,4.31c1.47,0,2.38-0.83,2.81-2.5l1.16,0.27
			c-0.5,2.04-1.82,3.36-3.99,3.36C118.48,80.21,116.71,78.18,116.71,74.79z"/>
		<path class="st2" d="M126.31,76.32c0-2.55,1.62-3.85,3.44-3.85c1.8,0,3.43,1.3,3.43,3.85c0,2.53-1.62,3.85-3.43,3.85
			C127.95,80.17,126.31,78.85,126.31,76.32z M131.97,76.32c0-1.54-0.74-2.81-2.21-2.81c-1.41,0-2.23,1.15-2.23,2.81
			c0,1.57,0.73,2.83,2.23,2.83C131.16,79.15,131.97,78.01,131.97,76.32z"/>
		<path class="st2" d="M134.98,80.01V69.66h1.2v10.35H134.98z"/>
		<path class="st2" d="M138.48,80.01V69.66h1.2v10.35H138.48z"/>
		<path class="st2" d="M141.44,78.27c0-1.5,1.27-2.56,4.94-3.08v-0.34c0-0.92-0.49-1.37-1.4-1.37c-1.12,0-1.95,0.49-2.67,1.12
			l-0.63-0.76c0.85-0.78,1.96-1.37,3.43-1.37c1.76,0,2.46,0.92,2.46,2.46v3.26c0,0.9,0.06,1.44,0.21,1.82h-1.23
			c-0.1-0.31-0.17-0.6-0.17-1.02c-0.83,0.77-1.75,1.13-2.85,1.13C142.25,80.13,141.44,79.46,141.44,78.27z M146.38,78.1v-2.07
			c-2.81,0.45-3.75,1.13-3.75,2.06c0,0.71,0.48,1.09,1.25,1.09C144.86,79.17,145.7,78.77,146.38,78.1z"/>
		<path class="st2" d="M150.83,79.06v0.95h-1.2V69.66h1.2v4c0.56-0.63,1.33-1.19,2.43-1.19c1.69,0,3.01,1.26,3.01,3.83
			c0,2.57-1.33,3.82-3.13,3.82C152.23,80.13,151.46,79.72,150.83,79.06z M155.07,76.32c0-1.89-0.9-2.81-2.08-2.81
			c-0.85,0-1.54,0.46-2.15,1.13v3.39c0.64,0.73,1.36,1.12,2.14,1.12C154.26,79.15,155.07,78.28,155.07,76.32z"/>
		<path class="st2" d="M157.59,76.32c0-2.55,1.62-3.85,3.44-3.85c1.8,0,3.43,1.3,3.43,3.85c0,2.53-1.62,3.85-3.43,3.85
			S157.59,78.85,157.59,76.32z M163.25,76.32c0-1.54-0.74-2.81-2.21-2.81c-1.41,0-2.22,1.15-2.22,2.81c0,1.57,0.73,2.83,2.22,2.83
			C162.43,79.15,163.25,78.01,163.25,76.32z"/>
		<path class="st2" d="M166.17,80.01v-7.39h1.2V74h0.03c0.54-0.85,1.41-1.53,2.85-1.53h0.15l-0.08,1.12
			c-0.04-0.01-0.31-0.01-0.35-0.01c-1.18,0-2.06,0.62-2.6,1.67v4.77H166.17z"/>
		<path class="st2" d="M171.06,78.27c0-1.5,1.27-2.56,4.94-3.08v-0.34c0-0.92-0.49-1.37-1.4-1.37c-1.12,0-1.94,0.49-2.67,1.12
			l-0.63-0.76c0.85-0.78,1.96-1.37,3.43-1.37c1.76,0,2.46,0.92,2.46,2.46v3.26c0,0.9,0.06,1.44,0.21,1.82h-1.23
			c-0.1-0.31-0.17-0.6-0.17-1.02c-0.83,0.77-1.75,1.13-2.85,1.13C171.87,80.13,171.06,79.46,171.06,78.27z M176,78.1v-2.07
			c-2.81,0.45-3.75,1.13-3.75,2.06c0,0.71,0.48,1.09,1.25,1.09C174.47,79.17,175.31,78.77,176,78.1z"/>
		<path class="st2" d="M179.77,78.22v-4.6h-1.29v-0.99h1.29V70h1.2v2.63h1.92v0.99h-1.92v4.34c0,0.78,0.25,1.17,1.15,1.17
			c0.27,0,0.56-0.04,0.76-0.1v0.99c-0.21,0.04-0.67,0.08-1.05,0.08C180.28,80.11,179.77,79.51,179.77,78.22z"/>
		<path class="st2" d="M184.58,71.04v-1.17h1.26v1.17H184.58z M184.6,80.01v-7.39h1.2v7.39H184.6z"/>
		<path class="st2" d="M189.95,80.04l-2.71-7.42h1.29l2.07,5.99h0.03l2.04-5.99h1.2l-2.7,7.42H189.95z"/>
		<path class="st2" d="M194.45,76.32c0-2.69,1.79-3.85,3.34-3.85c1.75,0,3.08,1.23,3.08,3.9v0.25h-5.22
			c0.04,1.67,1.01,2.56,2.22,2.56c1.06,0,1.67-0.43,2.22-1.2l0.7,0.62c-0.69,0.98-1.62,1.57-3.01,1.57
			C196.05,80.17,194.45,78.9,194.45,76.32z M199.73,75.69c-0.1-1.31-0.73-2.21-1.95-2.21c-0.99,0-1.93,0.69-2.1,2.21H199.73z"/>
		<path class="st2" d="M206.45,80.01v-6.39h-1.29v-0.99h1.29v-0.99c0-1.25,0.66-2,2.22-2c0.21,0,0.57,0.04,0.69,0.04v0.98
			c-0.11-0.03-0.35-0.04-0.52-0.04c-0.67,0-1.19,0.24-1.19,1.04v0.98h1.62v0.99h-1.62v6.39H206.45z"/>
		<path class="st2" d="M209.99,76.32c0-2.55,1.62-3.85,3.44-3.85c1.8,0,3.43,1.3,3.43,3.85c0,2.53-1.62,3.85-3.43,3.85
			S209.99,78.85,209.99,76.32z M215.64,76.32c0-1.54-0.74-2.81-2.21-2.81c-1.41,0-2.22,1.15-2.22,2.81c0,1.57,0.73,2.83,2.22,2.83
			C214.83,79.15,215.64,78.01,215.64,76.32z"/>
		<path class="st2" d="M218.57,80.01v-7.39h1.2V74h0.03c0.55-0.85,1.41-1.53,2.85-1.53h0.15l-0.08,1.12
			c-0.04-0.01-0.31-0.01-0.35-0.01c-1.17,0-2.06,0.62-2.6,1.67v4.77H218.57z"/>
		<path class="st2" d="M77.7,94.24V83.89h1.23v4.34h5.33v-4.34h1.23v10.35h-1.23v-4.88h-5.33v4.88H77.7z"/>
		<path class="st2" d="M88.18,94.24V83.89h1.23v10.35H88.18z"/>
		<path class="st2" d="M94.91,94.28l-3.64-10.4h1.26l2.97,8.75h0.03l2.98-8.75h1.19l-3.64,10.4H94.91z"/>
		<path class="st2" d="M104.27,94.24V83.89h6.35v1.13h-5.12v3.23h3.81v1.11h-3.81v3.76h5.42v1.12H104.27z"/>
		<path class="st2" d="M111.83,90.56c0-2.57,1.34-3.86,3.15-3.86c0.9,0,1.73,0.45,2.29,1.09v-3.9h1.2v8.54
			c0,0.9,0.06,1.44,0.22,1.82h-1.26c-0.08-0.24-0.17-0.67-0.17-1.05c-0.59,0.64-1.33,1.16-2.43,1.16
			C113.15,94.35,111.83,93.13,111.83,90.56z M117.27,92.23v-3.39c-0.64-0.73-1.34-1.12-2.13-1.12c-1.29,0-2.11,0.91-2.11,2.85
			c0,1.89,0.91,2.78,2.1,2.78C115.99,93.36,116.66,92.9,117.27,92.23z"/>
		<path class="st2" d="M120.55,92.18v-5.33h1.2v5.08c0,0.98,0.42,1.44,1.36,1.44c0.9,0,1.62-0.46,2.39-1.19v-5.33h1.22v7.39h-1.22
			v-1.11c-0.64,0.63-1.57,1.25-2.77,1.25C121.32,94.38,120.55,93.58,120.55,92.18z"/>
		<path class="st2" d="M128.43,90.55c0-2.7,1.74-3.85,3.39-3.85c1.67,0,2.45,0.98,2.9,2.07l-1.02,0.42
			c-0.36-0.95-0.94-1.47-1.9-1.47c-1.06,0-2.14,0.74-2.14,2.83c0,1.82,0.87,2.84,2.11,2.84c0.94,0,1.51-0.41,1.99-1.48l0.99,0.39
			c-0.57,1.23-1.43,2.1-3.02,2.1C130.01,94.39,128.43,93.08,128.43,90.55z"/>
		<path class="st2" d="M135.76,92.49c0-1.5,1.27-2.56,4.94-3.08v-0.34c0-0.92-0.49-1.37-1.4-1.37c-1.12,0-1.95,0.49-2.67,1.12
			L136,88.07c0.85-0.78,1.96-1.37,3.43-1.37c1.76,0,2.46,0.92,2.46,2.46v3.26c0,0.9,0.06,1.44,0.21,1.82h-1.23
			c-0.1-0.31-0.17-0.6-0.17-1.02c-0.83,0.77-1.75,1.13-2.85,1.13C136.57,94.35,135.76,93.68,135.76,92.49z M140.7,92.32v-2.07
			c-2.81,0.45-3.75,1.13-3.75,2.06c0,0.71,0.48,1.09,1.25,1.09C139.18,93.4,140.01,93,140.7,92.32z"/>
		<path class="st2" d="M144.48,92.45v-4.6h-1.29v-0.99h1.29v-2.63h1.2v2.63h1.92v0.99h-1.92v4.34c0,0.78,0.25,1.17,1.15,1.17
			c0.27,0,0.56-0.04,0.76-0.1v0.99c-0.21,0.04-0.67,0.08-1.05,0.08C144.98,94.34,144.48,93.74,144.48,92.45z"/>
		<path class="st2" d="M149.28,85.27V84.1h1.26v1.17H149.28z M149.31,94.24v-7.39h1.2v7.39H149.31z"/>
		<path class="st2" d="M152.3,90.55c0-2.55,1.62-3.85,3.44-3.85c1.8,0,3.43,1.3,3.43,3.85c0,2.53-1.62,3.85-3.43,3.85
			S152.3,93.08,152.3,90.55z M157.96,90.55c0-1.54-0.74-2.81-2.21-2.81c-1.41,0-2.22,1.15-2.22,2.81c0,1.57,0.73,2.83,2.22,2.83
			C157.14,93.37,157.96,92.24,157.96,90.55z"/>
		<path class="st2" d="M160.88,94.24v-7.39h1.22v1.1c0.64-0.63,1.57-1.26,2.77-1.26c1.41,0,2.18,0.81,2.18,2.21v5.33h-1.2v-5.07
			c0-0.98-0.42-1.44-1.36-1.44c-0.88,0-1.62,0.46-2.39,1.19v5.32H160.88z"/>
		<path class="st2" d="M171.81,91.68c0-1.54,1.11-2.46,2.42-3.15c-0.46-0.83-0.7-1.57-0.7-2.37c0-1.29,0.83-2.48,2.52-2.48
			c1.51,0,2.27,0.92,2.27,2.04c0,1.46-1.16,2.31-2.59,3.02c0.24,0.36,0.55,0.76,0.9,1.2c0.63,0.81,1.19,1.46,1.67,1.93
			c0.55-0.74,0.88-1.72,1.02-2.85h1.12c-0.18,1.32-0.62,2.55-1.31,3.48c0.74,0.57,1.38,0.8,2.06,0.8v1.06
			c-1.08-0.04-1.9-0.31-2.83-1.04c-0.8,0.69-1.78,1.09-3.05,1.09C173.01,94.44,171.81,93.32,171.81,91.68z M177.55,92.69
			c-0.55-0.52-1.15-1.2-1.88-2.11c-0.36-0.46-0.69-0.88-0.95-1.27c-1.01,0.59-1.68,1.34-1.68,2.25c0,1.2,0.81,1.86,2.34,1.86
			C176.23,93.41,176.95,93.18,177.55,92.69z M177.21,85.82c0-0.6-0.36-1.15-1.16-1.15c-0.87,0-1.36,0.56-1.36,1.43
			c0,0.66,0.18,1.23,0.59,1.93C176.35,87.47,177.21,86.87,177.21,85.82z"/>
		<path class="st2" d="M186.02,94.24V83.89h3.51c2.24,0,3.74,0.88,3.74,2.94c0,2.21-1.65,3.04-3.82,3.04h-2.2v4.38H186.02z
			 M187.25,88.77h2.27c1.65,0,2.53-0.5,2.53-1.9c0-1.33-0.87-1.86-2.55-1.86h-2.25V88.77z"/>
		<path class="st2" d="M194.61,94.24v-7.39h1.2v1.37h0.03c0.55-0.85,1.41-1.53,2.85-1.53h0.15l-0.08,1.12
			c-0.04-0.01-0.31-0.01-0.35-0.01c-1.17,0-2.06,0.62-2.6,1.67v4.77H194.61z"/>
		<path class="st2" d="M199.4,90.55c0-2.69,1.79-3.85,3.34-3.85c1.75,0,3.08,1.23,3.08,3.9v0.25h-5.22
			c0.04,1.67,1.01,2.56,2.22,2.56c1.06,0,1.67-0.43,2.22-1.2l0.7,0.62c-0.69,0.98-1.62,1.57-3.01,1.57
			C200.99,94.39,199.4,93.12,199.4,90.55z M204.67,89.92c-0.1-1.31-0.73-2.21-1.95-2.21c-0.99,0-1.93,0.69-2.1,2.21H204.67z"/>
		<path class="st2" d="M209.2,94.27l-2.71-7.42h1.29l2.07,5.99h0.03l2.04-5.99h1.2l-2.7,7.42H209.2z"/>
		<path class="st2" d="M213.71,90.55c0-2.69,1.79-3.85,3.34-3.85c1.75,0,3.08,1.23,3.08,3.9v0.25h-5.22
			c0.04,1.67,1.01,2.56,2.22,2.56c1.06,0,1.67-0.43,2.22-1.2l0.7,0.62c-0.69,0.98-1.62,1.57-3.01,1.57
			C215.31,94.39,213.71,93.12,213.71,90.55z M218.99,89.92c-0.1-1.31-0.73-2.21-1.95-2.21c-0.99,0-1.93,0.69-2.1,2.21H218.99z"/>
		<path class="st2" d="M221.86,94.24v-7.39h1.22v1.1c0.64-0.63,1.57-1.26,2.77-1.26c1.41,0,2.18,0.81,2.18,2.21v5.33h-1.2v-5.07
			c0-0.98-0.42-1.44-1.36-1.44c-0.88,0-1.62,0.46-2.39,1.19v5.32H221.86z"/>
		<path class="st2" d="M230.62,92.45v-4.6h-1.29v-0.99h1.29v-2.63h1.2v2.63h1.92v0.99h-1.92v4.34c0,0.78,0.25,1.17,1.15,1.17
			c0.27,0,0.56-0.04,0.76-0.1v0.99c-0.21,0.04-0.67,0.08-1.05,0.08C231.12,94.34,230.62,93.74,230.62,92.45z"/>
		<path class="st2" d="M235.42,85.27V84.1h1.26v1.17H235.42z M235.45,94.24v-7.39h1.2v7.39H235.45z"/>
		<path class="st2" d="M238.44,90.55c0-2.55,1.62-3.85,3.44-3.85c1.8,0,3.43,1.3,3.43,3.85c0,2.53-1.62,3.85-3.43,3.85
			C240.08,94.39,238.44,93.08,238.44,90.55z M244.09,90.55c0-1.54-0.74-2.81-2.21-2.81c-1.41,0-2.23,1.15-2.23,2.81
			c0,1.57,0.73,2.83,2.23,2.83C243.28,93.37,244.09,92.24,244.09,90.55z"/>
		<path class="st2" d="M247.02,94.24v-7.39h1.22v1.1c0.64-0.63,1.57-1.26,2.77-1.26c1.41,0,2.18,0.81,2.18,2.21v5.33h-1.2v-5.07
			c0-0.98-0.42-1.44-1.36-1.44c-0.88,0-1.62,0.46-2.39,1.19v5.32H247.02z"/>
	</g>
</g>
</svg>
