<?xml version="1.0" encoding="utf-8"?>
<!-- Generator: Adobe Illustrator 24.0.1, SVG Export Plug-In . SVG Version: 6.00 Build 0)  -->
<svg version="1.1" id="Layer_1" xmlns="http://www.w3.org/2000/svg" xmlns:xlink="http://www.w3.org/1999/xlink" x="0px" y="0px"
	 viewBox="0 0 234 94" style="enable-background:new 0 0 234 94;" xml:space="preserve">
<style type="text/css">
	.st0{fill:#CD412A;}
	.st1{fill:#8EC7C6;}
	.st2{fill:#333333;}
</style>
<g>
	<path class="st0" d="M56.27,68.06C34.02,61.3,15.92,54.41,9.08,31.25C6.02,20.89,8.25,7.67,20.63,2.95
		c9.13-3.47,30.57,4.33,23.04,35.6C36.08,70.06,19.21,81.9,19.21,81.9L8.06,70.95c0,0,18.39-12.07,28.46-37.52
		c8.64-21.82-6.96-32.61-14.94-29.76C12.34,6.97,9.55,18.3,14.74,28.9c7.36,15.05,23.31,22.03,45.05,25.2L56.27,68.06z"/>
	<polygon class="st0" points="2.46,87.08 5.98,76.93 13.3,83.73 	"/>
</g>
<g>
	<path class="st1" d="M69.02,54.48V37.04h-5.83v-7.67h5.83v-12h10.49v12h8.98v7.67h-8.98v15.14c0,3.74,1.05,4.92,4.85,4.92
		c1.18,0,2.75-0.13,3.47-0.39v7.54c-0.79,0.2-4.65,0.52-6.95,0.52C70.53,64.77,69.02,61.04,69.02,54.48z"/>
	<path class="st1" d="M88.69,46.88c0-13.96,9.9-18.22,17.63-18.22c9.5,0,13.18,5.05,15.21,10.69l-8.85,2.95
		c-1.38-4.46-3.41-5.9-6.49-5.9c-4.26,0-6.95,3.61-6.95,10.55c0,6.23,1.97,10.69,6.82,10.69c2.82,0,5.38-1.51,6.88-6.23l8.72,3.02
		c-2.23,5.44-6.56,10.62-15.8,10.62C97.67,65.03,88.69,60.45,88.69,46.88z"/>
	<path class="st1" d="M123.56,64.31V15.8h10.55v19.08c2.1-2.75,5.96-6.23,12.06-6.23c5.96,0,10.23,2.95,10.23,10.16v25.5h-10.55
		V42.16c0-3.15-1.18-4.79-4.06-4.79c-2.88,0-5.31,1.44-7.67,3.47v23.47H123.56z"/>
	<path class="st1" d="M158.77,46.88c0-13.57,10.36-18.22,17.57-18.22c7.21,0,16.06,3.61,16.06,19.47v1.57h-23.14
		c0.52,5.77,3.74,8,8.13,8c4.13,0,8-2.03,10.36-4.2l4.06,6.29c-4.06,3.47-9.11,5.24-15.21,5.24
		C167.49,65.03,158.77,60.38,158.77,46.88z M182.96,43.47c-0.52-4.92-2.75-7.28-6.69-7.28c-3.28,0-6.1,2.16-6.88,7.28H182.96z"/>
	<path class="st1" d="M195.08,77.42V29.37h10.55v5.31c2.29-3.15,5.57-6.03,10.75-6.03c7.93,0,13.44,6.1,13.44,18.16
		s-5.57,18.03-13.57,18.03c-4.72,0-8-1.7-10.62-4.65v17.24H195.08z M219.27,46.88c0-5.83-2.03-9.5-6.75-9.5
		c-2.69,0-5.11,1.64-6.88,3.41v12.91c2.29,2.16,4.2,3.21,7.01,3.21C217.04,56.91,219.27,53.23,219.27,46.88z"/>
</g>
<g>
	<path class="st2" d="M70.42,78.02v-7.35H67.8v-0.9h6.23v0.9H71.4v7.35H70.42z"/>
	<path class="st2" d="M73.4,75.07c0-2.14,1.43-3.07,2.67-3.07c1.39,0,2.45,0.98,2.45,3.11v0.2h-4.16c0.03,1.33,0.8,2.04,1.77,2.04
		c0.85,0,1.33-0.35,1.77-0.96l0.56,0.49c-0.55,0.78-1.29,1.25-2.4,1.25C74.67,78.14,73.4,77.13,73.4,75.07z M77.6,74.57
		c-0.08-1.05-0.58-1.76-1.55-1.76c-0.79,0-1.54,0.55-1.67,1.76H77.6z"/>
	<path class="st2" d="M79.08,78.02l2.1-3.04l-1.95-2.84h1.05l1.44,2.15l1.43-2.15h1.01l-1.96,2.83l2.09,3.06h-1.04l-1.58-2.34
		l-1.57,2.34H79.08z"/>
	<path class="st2" d="M84.94,76.63c0-1.19,1.01-2.04,3.94-2.45V73.9c0-0.74-0.39-1.09-1.12-1.09c-0.89,0-1.55,0.39-2.13,0.89
		l-0.5-0.6c0.68-0.62,1.56-1.09,2.73-1.09c1.41,0,1.96,0.74,1.96,1.96v2.6c0,0.71,0.04,1.15,0.17,1.45h-0.98
		c-0.08-0.25-0.13-0.48-0.13-0.81c-0.66,0.61-1.39,0.9-2.28,0.9C85.59,78.11,84.94,77.57,84.94,76.63z M88.88,76.49v-1.65
		c-2.24,0.36-2.99,0.9-2.99,1.64c0,0.57,0.38,0.87,0.99,0.87C87.66,77.35,88.33,77.03,88.88,76.49z"/>
	<path class="st2" d="M91.04,77.13l0.58-0.58c0.45,0.48,1.04,0.81,1.84,0.81c0.91,0,1.42-0.32,1.42-0.93c0-0.59-0.51-0.81-1.52-1.05
		c-1.25-0.3-2.11-0.64-2.11-1.77c0-0.89,0.78-1.61,2.06-1.61c1.04,0,1.71,0.33,2.25,0.85l-0.5,0.64c-0.45-0.41-1.05-0.7-1.71-0.7
		c-0.86,0-1.19,0.38-1.19,0.79c0,0.55,0.47,0.75,1.39,0.96c1.33,0.32,2.24,0.65,2.24,1.86c0,1.13-1.01,1.73-2.35,1.73
		C92.39,78.13,91.52,77.71,91.04,77.13z"/>
	<path class="st2" d="M99.55,73.86c0-2.58,1.44-4.25,3.5-4.25c1.75,0,2.68,1.02,3.06,2.53l-0.94,0.26
		c-0.36-1.25-0.93-1.89-2.13-1.89c-1.54,0-2.5,1.29-2.5,3.33c0,2.19,0.98,3.44,2.52,3.44c1.17,0,1.9-0.66,2.24-2l0.93,0.21
		c-0.4,1.63-1.45,2.68-3.18,2.68C100.96,78.18,99.55,76.56,99.55,73.86z"/>
	<path class="st2" d="M107.2,75.07c0-2.03,1.29-3.07,2.74-3.07c1.44,0,2.73,1.04,2.73,3.07c0,2.02-1.29,3.07-2.73,3.07
		C108.51,78.14,107.2,77.09,107.2,75.07z M111.71,75.07c0-1.23-0.59-2.24-1.76-2.24c-1.13,0-1.77,0.91-1.77,2.24
		c0,1.25,0.58,2.25,1.77,2.25C111.06,77.33,111.71,76.42,111.71,75.07z"/>
	<path class="st2" d="M114.11,78.02v-8.25h0.96v8.25H114.11z"/>
	<path class="st2" d="M116.9,78.02v-8.25h0.96v8.25H116.9z"/>
	<path class="st2" d="M119.26,76.63c0-1.19,1.01-2.04,3.94-2.45V73.9c0-0.74-0.39-1.09-1.12-1.09c-0.89,0-1.55,0.39-2.13,0.89
		l-0.5-0.6c0.68-0.62,1.56-1.09,2.73-1.09c1.41,0,1.96,0.74,1.96,1.96v2.6c0,0.71,0.04,1.15,0.17,1.45h-0.98
		c-0.08-0.25-0.13-0.48-0.13-0.81c-0.66,0.61-1.39,0.9-2.28,0.9C119.91,78.11,119.26,77.57,119.26,76.63z M123.2,76.49v-1.65
		c-2.24,0.36-2.99,0.9-2.99,1.64c0,0.57,0.38,0.87,0.99,0.87C121.98,77.35,122.65,77.03,123.2,76.49z"/>
	<path class="st2" d="M126.75,77.26v0.76h-0.96v-8.25h0.96v3.19c0.45-0.5,1.06-0.95,1.94-0.95c1.35,0,2.4,1,2.4,3.06
		c0,2.05-1.06,3.05-2.5,3.05C127.86,78.11,127.25,77.79,126.75,77.26z M130.12,75.07c0-1.51-0.71-2.24-1.66-2.24
		c-0.68,0-1.23,0.37-1.72,0.9v2.7c0.51,0.58,1.08,0.89,1.71,0.89C129.48,77.33,130.12,76.64,130.12,75.07z"/>
	<path class="st2" d="M132.13,75.07c0-2.03,1.29-3.07,2.74-3.07c1.44,0,2.73,1.04,2.73,3.07c0,2.02-1.29,3.07-2.73,3.07
		C133.44,78.14,132.13,77.09,132.13,75.07z M136.64,75.07c0-1.23-0.59-2.24-1.76-2.24c-1.13,0-1.77,0.91-1.77,2.24
		c0,1.25,0.58,2.25,1.77,2.25C135.99,77.33,136.64,76.42,136.64,75.07z"/>
	<path class="st2" d="M138.97,78.02v-5.89h0.96v1.09h0.02c0.44-0.68,1.13-1.22,2.28-1.22h0.12l-0.07,0.89
		c-0.03-0.01-0.25-0.01-0.28-0.01c-0.94,0-1.64,0.49-2.08,1.33v3.8H138.97z"/>
	<path class="st2" d="M142.86,76.63c0-1.19,1.01-2.04,3.94-2.45V73.9c0-0.74-0.39-1.09-1.12-1.09c-0.89,0-1.55,0.39-2.13,0.89
		l-0.5-0.6c0.68-0.62,1.56-1.09,2.73-1.09c1.41,0,1.96,0.74,1.96,1.96v2.6c0,0.71,0.04,1.15,0.17,1.45h-0.98
		c-0.08-0.25-0.13-0.48-0.13-0.81c-0.66,0.61-1.39,0.9-2.28,0.9C143.51,78.11,142.86,77.57,142.86,76.63z M146.8,76.49v-1.65
		c-2.24,0.36-2.99,0.9-2.99,1.64c0,0.57,0.38,0.87,0.99,0.87C145.58,77.35,146.25,77.03,146.8,76.49z"/>
	<path class="st2" d="M149.81,76.59v-3.67h-1.03v-0.79h1.03v-2.1h0.96v2.1h1.53v0.79h-1.53v3.46c0,0.62,0.2,0.94,0.92,0.94
		c0.21,0,0.45-0.03,0.6-0.08v0.79c-0.17,0.03-0.54,0.07-0.84,0.07C150.21,78.1,149.81,77.62,149.81,76.59z"/>
	<path class="st2" d="M153.64,70.87v-0.94h1v0.94H153.64z M153.66,78.02v-5.89h0.96v5.89H153.66z"/>
	<path class="st2" d="M157.92,78.04l-2.16-5.91h1.03l1.65,4.77h0.02l1.63-4.77h0.96l-2.15,5.91H157.92z"/>
	<path class="st2" d="M161.51,75.07c0-2.14,1.43-3.07,2.67-3.07c1.39,0,2.45,0.98,2.45,3.11v0.2h-4.16c0.03,1.33,0.8,2.04,1.77,2.04
		c0.85,0,1.33-0.35,1.77-0.96l0.56,0.49c-0.55,0.78-1.29,1.25-2.4,1.25C162.78,78.14,161.51,77.13,161.51,75.07z M165.72,74.57
		c-0.08-1.05-0.58-1.76-1.55-1.76c-0.79,0-1.54,0.55-1.67,1.76H165.72z"/>
	<path class="st2" d="M171.07,78.02v-5.1h-1.03v-0.79h1.03v-0.79c0-0.99,0.52-1.6,1.77-1.6c0.17,0,0.46,0.03,0.55,0.03v0.78
		c-0.09-0.02-0.28-0.03-0.41-0.03c-0.54,0-0.95,0.19-0.95,0.83v0.78h1.29v0.79h-1.29v5.1H171.07z"/>
	<path class="st2" d="M173.89,75.07c0-2.03,1.29-3.07,2.74-3.07c1.44,0,2.73,1.04,2.73,3.07c0,2.02-1.29,3.07-2.73,3.07
		C175.2,78.14,173.89,77.09,173.89,75.07z M178.4,75.07c0-1.23-0.59-2.24-1.76-2.24c-1.13,0-1.77,0.91-1.77,2.24
		c0,1.25,0.58,2.25,1.77,2.25C177.75,77.33,178.4,76.42,178.4,75.07z"/>
	<path class="st2" d="M180.73,78.02v-5.89h0.96v1.09h0.02c0.44-0.68,1.13-1.22,2.28-1.22h0.12l-0.07,0.89
		c-0.03-0.01-0.25-0.01-0.28-0.01c-0.94,0-1.64,0.49-2.08,1.33v3.8H180.73z"/>
	<path class="st2" d="M68.46,89.36V81.1h0.98v3.46h4.25V81.1h0.98v8.25h-0.98v-3.89h-4.25v3.89H68.46z"/>
	<path class="st2" d="M76.81,89.36V81.1h0.98v8.25H76.81z"/>
	<path class="st2" d="M82.18,89.39l-2.9-8.29h1l2.37,6.97h0.02l2.38-6.97h0.95l-2.9,8.29H82.18z"/>
	<path class="st2" d="M89.64,89.36V81.1h5.06v0.9h-4.08v2.58h3.03v0.88h-3.03v3h4.32v0.89H89.64z"/>
	<path class="st2" d="M95.66,86.42c0-2.05,1.07-3.08,2.51-3.08c0.71,0,1.38,0.36,1.83,0.87V81.1h0.96v6.8
		c0,0.71,0.04,1.15,0.18,1.45h-1c-0.07-0.19-0.13-0.54-0.13-0.84c-0.47,0.51-1.06,0.93-1.94,0.93
		C96.71,89.45,95.66,88.48,95.66,86.42z M100,87.75v-2.7c-0.51-0.58-1.07-0.89-1.7-0.89c-1.03,0-1.68,0.73-1.68,2.28
		c0,1.51,0.73,2.22,1.67,2.22C98.97,88.65,99.51,88.29,100,87.75z"/>
	<path class="st2" d="M102.61,87.72v-4.25h0.96v4.05c0,0.78,0.33,1.15,1.08,1.15c0.71,0,1.29-0.37,1.91-0.95v-4.25h0.97v5.89h-0.97
		v-0.88c-0.51,0.5-1.25,0.99-2.21,0.99C103.22,89.47,102.61,88.83,102.61,87.72z"/>
	<path class="st2" d="M108.89,86.41c0-2.15,1.38-3.07,2.7-3.07c1.33,0,1.95,0.78,2.31,1.65l-0.81,0.33
		c-0.29-0.76-0.75-1.17-1.52-1.17c-0.85,0-1.71,0.59-1.71,2.25c0,1.45,0.69,2.26,1.68,2.26c0.75,0,1.2-0.32,1.58-1.18l0.79,0.31
		c-0.46,0.98-1.14,1.67-2.41,1.67C110.15,89.48,108.89,88.43,108.89,86.41z"/>
	<path class="st2" d="M114.73,87.96c0-1.19,1.01-2.04,3.94-2.45v-0.27c0-0.74-0.39-1.09-1.12-1.09c-0.89,0-1.55,0.39-2.13,0.89
		l-0.5-0.6c0.68-0.62,1.56-1.09,2.73-1.09c1.41,0,1.96,0.74,1.96,1.96v2.6c0,0.71,0.04,1.15,0.17,1.45h-0.98
		c-0.08-0.25-0.13-0.48-0.13-0.81c-0.66,0.61-1.39,0.9-2.28,0.9C115.38,89.45,114.73,88.91,114.73,87.96z M118.67,87.83v-1.65
		c-2.24,0.36-2.99,0.9-2.99,1.64c0,0.57,0.38,0.87,0.99,0.87C117.46,88.69,118.12,88.36,118.67,87.83z"/>
	<path class="st2" d="M121.68,87.93v-3.67h-1.03v-0.79h1.03v-2.1h0.96v2.1h1.53v0.79h-1.53v3.46c0,0.62,0.2,0.94,0.92,0.94
		c0.21,0,0.45-0.03,0.6-0.08v0.79c-0.17,0.03-0.54,0.07-0.84,0.07C122.08,89.44,121.68,88.96,121.68,87.93z"/>
	<path class="st2" d="M125.51,82.21v-0.94h1v0.94H125.51z M125.53,89.36v-5.89h0.96v5.89H125.53z"/>
	<path class="st2" d="M127.92,86.41c0-2.03,1.29-3.07,2.74-3.07c1.44,0,2.73,1.04,2.73,3.07c0,2.02-1.29,3.07-2.73,3.07
		C129.22,89.48,127.92,88.43,127.92,86.41z M132.42,86.41c0-1.23-0.59-2.24-1.76-2.24c-1.13,0-1.77,0.91-1.77,2.24
		c0,1.25,0.58,2.25,1.77,2.25C131.78,88.67,132.42,87.76,132.42,86.41z"/>
	<path class="st2" d="M134.75,89.36v-5.89h0.97v0.88c0.51-0.5,1.25-1,2.21-1c1.13,0,1.74,0.65,1.74,1.76v4.25h-0.96v-4.04
		c0-0.78-0.33-1.15-1.08-1.15c-0.7,0-1.29,0.37-1.91,0.95v4.24H134.75z"/>
	<path class="st2" d="M143.46,87.32c0-1.23,0.88-1.96,1.93-2.51c-0.37-0.66-0.56-1.25-0.56-1.89c0-1.03,0.66-1.97,2.01-1.97
		c1.2,0,1.81,0.74,1.81,1.63c0,1.16-0.93,1.84-2.06,2.41c0.19,0.29,0.43,0.6,0.71,0.96c0.5,0.65,0.95,1.16,1.33,1.54
		c0.44-0.59,0.7-1.37,0.81-2.28h0.89c-0.15,1.05-0.49,2.03-1.05,2.78c0.59,0.46,1.1,0.64,1.64,0.64v0.85
		c-0.86-0.03-1.52-0.25-2.25-0.83c-0.64,0.55-1.42,0.87-2.43,0.87C144.42,89.51,143.46,88.62,143.46,87.32z M148.04,88.12
		c-0.44-0.41-0.92-0.96-1.5-1.68c-0.29-0.37-0.55-0.7-0.76-1.02c-0.8,0.47-1.34,1.07-1.34,1.8c0,0.96,0.65,1.48,1.86,1.48
		C146.99,88.7,147.56,88.51,148.04,88.12z M147.77,82.64c0-0.48-0.29-0.91-0.93-0.91c-0.69,0-1.08,0.45-1.08,1.14
		c0,0.52,0.14,0.98,0.47,1.54C147.08,83.96,147.77,83.48,147.77,82.64z"/>
	<path class="st2" d="M154.79,89.36V81.1h2.8c1.79,0,2.98,0.7,2.98,2.34c0,1.76-1.32,2.42-3.04,2.42h-1.75v3.49H154.79z M155.77,85
		h1.81c1.32,0,2.02-0.4,2.02-1.52c0-1.06-0.69-1.48-2.03-1.48h-1.79V85z"/>
	<path class="st2" d="M161.63,89.36v-5.89h0.96v1.09h0.02c0.44-0.68,1.13-1.22,2.28-1.22h0.12l-0.07,0.89
		c-0.03-0.01-0.25-0.01-0.28-0.01c-0.94,0-1.64,0.49-2.08,1.33v3.8H161.63z"/>
	<path class="st2" d="M165.45,86.41c0-2.14,1.43-3.07,2.67-3.07c1.39,0,2.45,0.98,2.45,3.11v0.2h-4.16c0.03,1.33,0.8,2.04,1.77,2.04
		c0.85,0,1.33-0.35,1.77-0.96l0.56,0.49c-0.55,0.78-1.29,1.25-2.4,1.25C166.72,89.48,165.45,88.46,165.45,86.41z M169.65,85.91
		c-0.08-1.05-0.58-1.76-1.55-1.76c-0.79,0-1.54,0.55-1.67,1.76H169.65z"/>
	<path class="st2" d="M173.27,89.38l-2.16-5.91h1.03l1.65,4.77h0.02l1.63-4.77h0.96l-2.15,5.91H173.27z"/>
	<path class="st2" d="M176.86,86.41c0-2.14,1.43-3.07,2.67-3.07c1.39,0,2.45,0.98,2.45,3.11v0.2h-4.16c0.03,1.33,0.8,2.04,1.77,2.04
		c0.85,0,1.33-0.35,1.77-0.96l0.56,0.49c-0.55,0.78-1.29,1.25-2.4,1.25C178.13,89.48,176.86,88.46,176.86,86.41z M181.06,85.91
		c-0.08-1.05-0.58-1.76-1.55-1.76c-0.79,0-1.54,0.55-1.67,1.76H181.06z"/>
	<path class="st2" d="M183.35,89.36v-5.89h0.97v0.88c0.51-0.5,1.25-1,2.21-1c1.13,0,1.74,0.65,1.74,1.76v4.25h-0.96v-4.04
		c0-0.78-0.33-1.15-1.08-1.15c-0.7,0-1.29,0.37-1.91,0.95v4.24H183.35z"/>
	<path class="st2" d="M190.33,87.93v-3.67h-1.03v-0.79h1.03v-2.1h0.96v2.1h1.53v0.79h-1.53v3.46c0,0.62,0.2,0.94,0.92,0.94
		c0.21,0,0.45-0.03,0.6-0.08v0.79c-0.17,0.03-0.54,0.07-0.84,0.07C190.73,89.44,190.33,88.96,190.33,87.93z"/>
	<path class="st2" d="M194.16,82.21v-0.94h1v0.94H194.16z M194.18,89.36v-5.89h0.96v5.89H194.18z"/>
	<path class="st2" d="M196.57,86.41c0-2.03,1.29-3.07,2.74-3.07c1.44,0,2.73,1.04,2.73,3.07c0,2.02-1.29,3.07-2.73,3.07
		C197.87,89.48,196.57,88.43,196.57,86.41z M201.07,86.41c0-1.23-0.59-2.24-1.76-2.24c-1.13,0-1.77,0.91-1.77,2.24
		c0,1.25,0.58,2.25,1.77,2.25C200.43,88.67,201.07,87.76,201.07,86.41z"/>
	<path class="st2" d="M203.4,89.36v-5.89h0.97v0.88c0.51-0.5,1.25-1,2.21-1c1.13,0,1.74,0.65,1.74,1.76v4.25h-0.96v-4.04
		c0-0.78-0.33-1.15-1.08-1.15c-0.7,0-1.29,0.37-1.91,0.95v4.24H203.4z"/>
</g>
</svg>
