<?xml version="1.0" encoding="utf-8"?>
<!-- Generator: Adobe Illustrator 23.0.4, SVG Export Plug-In . SVG Version: 6.00 Build 0)  -->
<svg version="1.1" id="Layer_1" xmlns="http://www.w3.org/2000/svg" xmlns:xlink="http://www.w3.org/1999/xlink" x="0px" y="0px"
	 viewBox="0 0 439.54 25.94" style="enable-background:new 0 0 439.54 25.94;" xml:space="preserve">
<style type="text/css">
	.st0{fill:#FFFFFF;}
</style>
<g>
	<path class="st0" d="M17.78,5.21h-0.56l-0.14-0.53c-0.37-1.42-0.64-2.04-3.12-2.04h-3.51V14c0,2.69,0.35,3.14,2.58,3.14v0.56H5.75
		v-0.56c2.23,0,2.58-0.46,2.58-3.14V2.64H4.81c-2.47,0-2.74,0.62-3.11,2.04L1.56,5.21H1l0.24-3.62h16.3L17.78,5.21L17.78,5.21z"/>
	<path class="st0" d="M31.77,11.04V9.73c0-2.69-0.32-3.12-2.12-3.12V6.08h6.15v0.54c-1.77,0-2.12,0.43-2.12,3.12v4.3
		c0,2.68,0.35,3.14,2.12,3.14v0.54h-6.15v-0.54c1.8,0,2.12-0.46,2.12-3.14v-1.99h-6.09v1.99c0,2.68,0.32,3.14,2.12,3.14v0.54h-6.15
		v-0.54c1.8,0,2.12-0.46,2.12-3.14v-4.3c0-2.69-0.32-3.12-2.12-3.12V6.08h6.15v0.54c-1.8,0-2.12,0.43-2.12,3.12v1.31H31.77
		L31.77,11.04z"/>
	<path class="st0" d="M50.29,14.99l0.14-0.53h0.54l-0.21,3.25H40.71v-0.54c1.8,0,2.12-0.46,2.12-3.14v-4.3
		c0-2.69-0.32-3.12-2.12-3.12V6.08h5.93h3.46l0.21,3.22h-0.56l-0.13-0.54c-0.3-1.23-0.64-1.72-3.08-1.72h-1.8v4h0.16
		c2.69,0,2.9-0.32,2.9-2.12h0.53v5.24h-0.53c0-1.78-0.22-2.12-2.9-2.12h-0.16v1.56c0,2.68,0.32,3.12,2.12,3.12h0.33
		C49.62,16.71,49.97,16.25,50.29,14.99"/>
	<path class="st0" d="M75.69,2.16V1.59h6.28v0.57c-2.23,0-2.58,0.43-2.58,3.12v6.44c0,4.21-2.9,6.45-6.47,6.45
		c-3.54,0-6.44-2.23-6.44-6.45V5.27c0-2.69-0.33-3.12-2.55-3.12V1.59h7.25v0.57c-2.23,0-2.55,0.43-2.55,3.12v6.57
		c0,3.49,2.01,5.1,4.7,5.1c2.82,0,4.94-1.61,4.94-5.1V5.27C78.26,2.58,77.92,2.16,75.69,2.16"/>
	<path class="st0" d="M86.18,6.61V6.08h3.3l7.14,8.48V9.73c0-2.69-0.32-3.12-2.12-3.12V6.08h5.24v0.53c-1.8,0-2.12,0.43-2.12,3.12
		v8.4h-0.51L89.3,8.76v5.26c0,2.68,0.33,3.14,2.12,3.14v0.54h-5.23v-0.54c1.8,0,2.12-0.45,2.12-3.14v-4.3
		C88.3,7.04,87.98,6.61,86.18,6.61"/>
	<path class="st0" d="M104.63,17.7v-0.53c1.8,0,2.12-0.46,2.12-3.15V9.73c0-2.69-0.32-3.12-2.12-3.12V6.08h6.15v0.54
		c-1.8,0-2.12,0.43-2.12,3.12v4.29c0,2.69,0.32,3.15,2.12,3.15v0.53H104.63L104.63,17.7z"/>
	<path class="st0" d="M125.51,8.97l-3.97,9.18h-0.35l-3.97-9.18c-0.86-2.04-1.21-2.36-2.6-2.36V6.08h6.01v0.54
		c-1.93,0-2.12,0.48-1.45,2.04l2.74,6.34l2.71-6.34c0.7-1.58,0.7-2.04-1.42-2.04V6.08h5.05v0.54
		C126.62,6.62,126.37,6.93,125.51,8.97"/>
	<path class="st0" d="M141.49,14.99l0.14-0.53h0.54l-0.21,3.25H131.9v-0.54c1.8,0,2.12-0.46,2.12-3.14v-4.3
		c0-2.69-0.32-3.12-2.12-3.12V6.08h5.93h3.46l0.21,3.22h-0.56l-0.14-0.54c-0.29-1.23-0.64-1.72-3.08-1.72h-1.8v4h0.16
		c2.68,0,2.9-0.32,2.9-2.12h0.53v5.24h-0.53c0-1.78-0.22-2.12-2.9-2.12h-0.16v1.56c0,2.68,0.32,3.12,2.12,3.12h0.33
		C140.81,16.71,141.16,16.25,141.49,14.99"/>
	<path class="st0" d="M152.63,7.04h-1.53v4.67h1.53c1.51,0,2.2-1.05,2.2-2.31C154.83,8.11,154.13,7.04,152.63,7.04 M155.34,14.67
		c1.08,1.26,2.31,2.31,3.6,2.5v0.54h-3.43l-3.65-4.99h-0.75v1.31c0,2.68,0.32,3.14,2.12,3.14v0.54h-6.15v-0.54
		c1.8,0,2.12-0.45,2.12-3.14v-4.3c0-2.69-0.32-3.12-2.12-3.12V6.08h5.56c2.77,0,4.3,1.42,4.3,3.32c0,1.64-1.24,2.98-3.25,3.25
		L155.34,14.67L155.34,14.67z"/>
	<path class="st0" d="M166.94,18.16c-1.4,0-2.52-0.67-3.01-0.99c-0.16,0.19-0.43,0.54-0.51,0.99h-0.48v-4.62h0.54
		c0.21,2.28,1.66,3.57,3.68,3.57c1.15,0,2.07-0.65,2.07-1.8c0-0.94-0.75-1.66-2.2-2.39l-1.83-0.94c-1.29-0.68-2.23-1.78-2.23-3.28
		c0-1.69,1.42-3.06,3.35-3.06c1.13,0,1.99,0.4,2.55,0.8c0.14-0.16,0.35-0.4,0.4-0.83h0.54v4.54h-0.54
		c-0.16-1.61-0.88-3.52-2.82-3.52c-1.04,0-1.93,0.56-1.93,1.56c0,0.94,0.7,1.45,2.33,2.31l1.8,0.94c1.53,0.77,2.09,1.98,2.09,3.03
		C170.75,16.68,169.01,18.16,166.94,18.16"/>
	<path class="st0" d="M175.61,17.7v-0.53c1.8,0,2.12-0.46,2.12-3.15V9.73c0-2.69-0.32-3.12-2.12-3.12V6.08h6.15v0.54
		c-1.8,0-2.12,0.43-2.12,3.12v4.29c0,2.69,0.32,3.15,2.12,3.15v0.53H175.61L175.61,17.7z"/>
	<path class="st0" d="M189.19,7.12c-2.47,0-2.68,0.46-3.01,1.72l-0.13,0.53h-0.54l0.16-3.3h11.97l0.19,3.3h-0.56l-0.13-0.53
		c-0.32-1.26-0.64-1.72-3.11-1.72h-1.4v6.9c0,2.69,0.35,3.15,2.15,3.15v0.53h-6.17v-0.53c1.8,0,2.15-0.46,2.15-3.15v-6.9H189.19
		L189.19,7.12z"/>
	<path class="st0" d="M207.9,14.02c0,2.69,0.35,3.15,2.15,3.15v0.54h-6.17v-0.54c1.8,0,2.15-0.46,2.15-3.15v-1.1l-2.68-3.95
		c-1.24-1.85-1.74-2.36-3.14-2.36V6.08h5.96v0.54c-1.69,0-1.85,0.48-0.78,2.04l2.09,3.09l2.07-3.09c1.13-1.64,1.05-2.04-0.75-2.04
		V6.08h5.05v0.54c-1.48,0-2.09,0.62-3.28,2.36l-2.66,3.92V14.02L207.9,14.02z"/>
	<path class="st0" d="M230.21,9.13c-1.61,0-2.68,1.83-3.08,4.08c-0.4,2.25,0,4.11,1.61,4.11c1.61,0,2.66-1.85,3.06-4.11
		C232.2,10.96,231.8,9.13,230.21,9.13 M228.61,18.16c-2.26,0-3.68-2.23-3.22-4.94c0.51-2.71,2.71-4.91,4.97-4.91
		c2.23,0,3.65,2.2,3.17,4.91C233.03,15.93,230.83,18.16,228.61,18.16"/>
	<path class="st0" d="M238.11,9.7l0.19-0.93h1.75l0.46-2.66c0.56-3.16,2.63-4.96,4.29-4.96c1.67,0,2.42,1.18,2.28,1.99
		c-0.08,0.4-0.37,0.67-0.83,0.67c-1.15,0-0.19-1.88-1.69-1.88c-0.86,0-2.01,1.19-2.55,4.19l-0.46,2.66h2.15L243.5,9.7h-2.15
		l-1.9,10.88c-0.56,3.17-1.93,4.3-3.52,4.3c-1.58,0-2.25-1.12-2.09-1.91c0.08-0.43,0.35-0.75,0.88-0.75c1.16,0,0.03,1.88,1.48,1.88
		c0.8,0,1.28-0.94,1.74-3.52l1.91-10.88H238.11L238.11,9.7z"/>
	<path class="st0" d="M271.05,5.21h-0.57l-0.13-0.53c-0.38-1.42-0.64-2.04-3.11-2.04h-3.52V14c0,2.69,0.35,3.14,2.58,3.14v0.56
		h-7.28v-0.56c2.23,0,2.58-0.46,2.58-3.14V2.64h-3.52c-2.47,0-2.74,0.62-3.11,2.04l-0.14,0.53h-0.56l0.24-3.62h16.3L271.05,5.21
		L271.05,5.21z"/>
	<path class="st0" d="M284.5,14.99l0.14-0.53h0.54l-0.21,3.25h-10.04v-0.54c1.8,0,2.12-0.46,2.12-3.14v-4.3
		c0-2.69-0.32-3.12-2.12-3.12V6.08h5.93h3.46l0.21,3.22h-0.56l-0.14-0.54c-0.3-1.23-0.64-1.72-3.09-1.72h-1.8v4h0.16
		c2.69,0,2.9-0.32,2.9-2.12h0.54v5.24H282c0-1.78-0.21-2.12-2.9-2.12h-0.16v1.56c0,2.68,0.33,3.12,2.12,3.12h0.32
		C283.83,16.71,284.18,16.25,284.5,14.99"/>
	<path class="st0" d="M293.62,15.09c-1.21,1.56-0.86,2.05,0.7,2.05v0.56h-5.05v-0.56c1.26,0,1.99-0.62,3.35-2.34l2.2-2.79
		l-2.14-3.04c-1.26-1.82-1.83-2.36-3.22-2.36V6.08h6.01v0.53c-1.72,0-1.75,0.54-0.7,2.04l1.26,1.85l1.47-1.85
		c1.26-1.64,0.94-2.04-0.7-2.04V6.08h5.05v0.53c-1.37,0-2.04,0.67-3.36,2.36l-1.88,2.34l2.44,3.49c1.26,1.8,1.96,2.34,3.25,2.34
		v0.56h-6.02v-0.56c1.69,0,1.78-0.46,0.67-2.05l-1.55-2.22L293.62,15.09L293.62,15.09z"/>
	<path class="st0" d="M311.48,8.76l-1.77,4.11h3.54L311.48,8.76L311.48,8.76z M308.74,15.09c-0.67,1.59-0.67,2.05,1.45,2.05v0.56
		h-5.08v-0.56c1.64,0,1.88-0.33,2.77-2.34l3.95-9.18h0.37l3.95,9.18c0.89,2.01,1.21,2.34,2.63,2.34v0.56h-6.01v-0.56
		c1.93,0,2.12-0.46,1.45-2.05l-0.54-1.23h-4.4L308.74,15.09L308.74,15.09z"/>
	<path class="st0" d="M326.92,18.16c-1.4,0-2.52-0.67-3.01-0.99c-0.16,0.19-0.43,0.54-0.51,0.99h-0.48v-4.62h0.54
		c0.21,2.28,1.66,3.57,3.68,3.57c1.15,0,2.07-0.65,2.07-1.8c0-0.94-0.75-1.66-2.2-2.39l-1.82-0.94c-1.29-0.68-2.23-1.78-2.23-3.28
		c0-1.69,1.42-3.06,3.36-3.06c1.12,0,1.99,0.4,2.55,0.8c0.13-0.16,0.35-0.4,0.4-0.83h0.54v4.54h-0.54
		c-0.16-1.61-0.89-3.52-2.82-3.52c-1.05,0-1.93,0.56-1.93,1.56c0,0.94,0.7,1.45,2.34,2.31l1.8,0.94c1.53,0.77,2.09,1.98,2.09,3.03
		C330.73,16.68,328.98,18.16,326.92,18.16"/>
	<path class="st0" d="M345.12,18.16h-0.54v-5.9h0.54c0,0,0.05,4.83,4.97,4.83c1.91,0,3.35-1.24,3.35-2.95
		c0-1.24-1.23-2.28-3.09-3.25l-2.58-1.31c-1.55-0.8-2.98-2.39-2.98-4.43c0-2.22,1.85-4,4.46-4c1.59,0,2.47,0.51,3.28,1.1
		c0.32-0.27,0.64-0.68,0.78-1.24h0.54v5.91h-0.56c-0.19-2.15-0.99-4.7-4.11-4.7c-1.5,0-2.61,1.04-2.61,2.39
		c0,1.39,0.94,2.12,3.25,3.33l2.58,1.32c2.07,1.05,2.79,2.61,2.79,4.08c0,2.93-2.34,4.83-5.1,4.83c-2.04,0-3.33-1.07-4.19-1.26
		C345.58,17.16,345.25,17.56,345.12,18.16"/>
	<path class="st0" d="M366.41,14.02c0,2.69,0.35,3.15,2.15,3.15v0.54h-6.17v-0.54c1.79,0,2.14-0.46,2.14-3.15v-1.1l-2.68-3.95
		c-1.24-1.85-1.75-2.36-3.14-2.36V6.08h5.95v0.54c-1.69,0-1.85,0.48-0.78,2.04l2.09,3.09l2.07-3.09c1.13-1.64,1.05-2.04-0.75-2.04
		V6.08h5.05v0.54c-1.48,0-2.09,0.62-3.28,2.36l-2.66,3.92V14.02L366.41,14.02z"/>
	<path class="st0" d="M379.86,18.16c-1.4,0-2.52-0.67-3.01-0.99c-0.16,0.19-0.43,0.54-0.51,0.99h-0.48v-4.62h0.54
		c0.21,2.28,1.67,3.57,3.67,3.57c1.16,0,2.07-0.65,2.07-1.8c0-0.94-0.75-1.66-2.21-2.39l-1.82-0.94c-1.29-0.68-2.23-1.78-2.23-3.28
		c0-1.69,1.42-3.06,3.36-3.06c1.13,0,1.99,0.4,2.55,0.8c0.13-0.16,0.35-0.4,0.4-0.83h0.54v4.54h-0.54
		c-0.16-1.61-0.88-3.52-2.82-3.52c-1.05,0-1.93,0.56-1.93,1.56c0,0.94,0.7,1.45,2.34,2.31l1.8,0.94c1.53,0.77,2.1,1.98,2.1,3.03
		C383.67,16.68,381.93,18.16,379.86,18.16"/>
	<path class="st0" d="M391.05,7.12c-2.47,0-2.68,0.46-3.01,1.72l-0.13,0.53h-0.54l0.16-3.3h11.97l0.19,3.3h-0.57L399,8.84
		c-0.32-1.26-0.65-1.72-3.11-1.72h-1.4v6.9c0,2.69,0.35,3.15,2.15,3.15v0.53h-6.17v-0.53c1.8,0,2.15-0.46,2.15-3.15v-6.9H391.05
		L391.05,7.12z"/>
	<path class="st0" d="M412.99,14.99l0.14-0.53h0.54l-0.22,3.25H403.4v-0.54c1.8,0,2.12-0.46,2.12-3.14v-4.3
		c0-2.69-0.32-3.12-2.12-3.12V6.08h5.93h3.46l0.21,3.22h-0.56l-0.14-0.54c-0.29-1.23-0.64-1.72-3.08-1.72h-1.8v4h0.16
		c2.68,0,2.9-0.32,2.9-2.12h0.54v5.24h-0.54c0-1.78-0.22-2.12-2.9-2.12h-0.16v1.56c0,2.68,0.32,3.12,2.12,3.12h0.32
		C412.31,16.71,412.67,16.25,412.99,14.99"/>
	<path class="st0" d="M421.69,14.02c0,2.69,0.32,3.15,2.12,3.15v0.54h-5.23v-0.54c1.8,0,2.12-0.46,2.12-3.15V9.73
		c0-2.69-0.32-3.12-2.12-3.12V6.08h4.03l4,8.97l3.97-8.97h3.75v0.54c-1.79,0-2.15,0.43-2.15,3.12v4.29c0,2.69,0.35,3.15,2.15,3.15
		v0.54h-6.14v-0.54c1.8,0,2.12-0.46,2.12-3.15V9.01l-4.05,9.15h-0.37l-4.19-9.51V14.02L421.69,14.02z"/>
</g>
</svg>
